<svg width="24" height="24" viewBox="0 0 24 24" fill="none" xmlns="http://www.w3.org/2000/svg">
<path d="M21.6003 18.1998L13.0003 11.7498V10.8398C14.6503 10.3498 15.8003 8.66977 15.4303 6.78977C15.1703 5.47977 14.1303 4.38977 12.8203 4.08977C11.0603 3.68977 9.45026 4.61977 8.80026 6.06977C8.50026 6.73977 8.98026 7.49977 9.71026 7.49977C10.1003 7.49977 10.4603 7.27977 10.6103 6.92977C10.8403 6.37977 11.3703 5.99977 12.0003 5.99977C12.8303 5.99977 13.5003 6.66977 13.5003 7.49977C13.5003 8.33977 12.8103 9.01977 11.9703 8.99977C11.4303 8.98977 11.0003 9.44977 11.0003 9.98977V11.7498L2.40026 18.1998C1.63026 18.7798 2.04026 19.9998 3.00026 19.9998H12.0003H21.0003C21.9603 19.9998 22.3703 18.7798 21.6003 18.1998ZM6.00026 17.9998L12.0003 13.4998L18.0003 17.9998H6.00026Z" fill="#AD578D"/>
</svg>
