<svg width="24" height="14" viewBox="0 0 24 14" fill="none" xmlns="http://www.w3.org/2000/svg">
<path fill-rule="evenodd" clip-rule="evenodd" d="M16 14H22V10H24V4H13.32C12.17 1.58 9.72 0 7 0C3.14 0 0 3.14 0 7C0 10.86 3.14 14 7 14C9.72 14 12.18 12.42 13.32 10H16V14ZM20 12H18V8H11.94L11.71 8.67C11.01 10.66 9.11 12 7 12C4.24 12 2 9.76 2 7C2 4.24 4.24 2 7 2C9.11 2 11.01 3.34 11.71 5.33L11.94 6H22V8H20V12ZM7 10C5.35 10 4 8.65 4 7C4 5.35 5.35 4 7 4C8.65 4 10 5.35 10 7C10 8.65 8.65 10 7 10ZM6 7C6 6.45 6.45 6 7 6C7.55 6 8 6.45 8 7C8 7.55 7.55 8 7 8C6.45 8 6 7.55 6 7Z" fill="#AD578D"/>
</svg>
