<svg width="20" height="20" viewBox="0 0 20 20" fill="none" xmlns="http://www.w3.org/2000/svg">
<path fill-rule="evenodd" clip-rule="evenodd" d="M7 0.497559C5.61929 0.497559 4.5 1.61685 4.5 2.99756C4.5 4.37827 5.61929 5.49756 7 5.49756C8.38071 5.49756 9.5 4.37827 9.5 2.99756C9.5 1.61685 8.38071 0.497559 7 0.497559ZM2.5 4.49756C1.11929 4.49756 0 5.61685 0 6.99756C0 8.37827 1.11929 9.49756 2.5 9.49756C3.88071 9.49756 5 8.37827 5 6.99756C5 5.61685 3.88071 4.49756 2.5 4.49756ZM10.5 2.99756C10.5 1.61685 11.6193 0.497559 13 0.497559C14.3807 0.497559 15.5 1.61685 15.5 2.99756C15.5 4.37827 14.3807 5.49756 13 5.49756C11.6193 5.49756 10.5 4.37827 10.5 2.99756ZM17.5 4.49756C16.1193 4.49756 15 5.61685 15 6.99756C15 8.37827 16.1193 9.49756 17.5 9.49756C18.8807 9.49756 20 8.37827 20 6.99756C20 5.61685 18.8807 4.49756 17.5 4.49756ZM14.4437 11.3031C14.7333 11.6445 15.0276 11.9914 15.34 12.3576C15.4179 12.4355 15.4969 12.5139 15.5765 12.5929C16.8347 13.8421 18.2416 15.2389 17.95 17.1576C17.66 18.1676 16.93 19.1876 15.62 19.4776C15.284 19.542 14.6092 19.4539 13.7368 19.3401C12.7136 19.2066 11.4187 19.0376 10.08 19.0376H9.9C8.5726 19.0376 7.28818 19.2066 6.26906 19.3407C5.38415 19.4571 4.69927 19.5473 4.36 19.4776C3.05 19.1876 2.32 18.1776 2.03 17.1576C1.74798 15.2492 3.15391 13.8534 4.41175 12.6047C4.49193 12.5251 4.5715 12.4461 4.65 12.3676C5.21408 11.7137 5.71652 11.1216 6.23371 10.512C6.52337 10.1706 6.81767 9.82374 7.13 9.45756C7.6 8.91756 8.18 8.37756 8.88 8.13756C8.99 8.09756 9.1 8.06756 9.21 8.04756C9.47 7.99756 9.74 7.99756 10 7.99756C10.26 7.99756 10.53 7.99756 10.78 8.03756C10.89 8.05756 11 8.08756 11.11 8.12756C11.81 8.36756 12.4 8.90756 12.86 9.44756C13.4241 10.1014 13.9265 10.6935 14.4437 11.3031Z" fill="#AD578D"/>
</svg>
