<svg width="20" height="21" viewBox="0 0 20 21" fill="none" xmlns="http://www.w3.org/2000/svg">
<path d="M18.5 11.0002H20V14.0002H18.5V11.0002ZM16 11.0002H17.5V14.0002H16V11.0002ZM15 12.5002C15 11.6702 14.33 11.0002 13.5 11.0002H12.66L14.84 13.1802C14.94 12.9702 15 12.7402 15 12.5002ZM16.96 0.350214H17H16.96ZM16.85 2.73021C17.23 2.35021 17.52 1.89021 17.69 1.38021C17.85 0.880214 17.5 0.370214 16.98 0.360214C16.64 0.370214 16.37 0.610214 16.26 0.940214C16.08 1.49021 15.64 1.93021 15.09 2.11021C14.75 2.22021 14.5 2.50021 14.5 2.85021V3.00021C14.5 3.37021 14.77 3.69021 15.14 3.75021C17.07 4.06021 18.5 5.75021 18.5 7.77021V9.25021C18.5 9.66021 18.84 10.0002 19.25 10.0002C19.66 10.0002 20 9.66021 20 9.25021V7.76021C20 5.54021 18.72 3.62021 16.85 2.73021ZM12.61 6.65021H14.03C15.08 6.65021 16 7.39021 16 8.70021V9.25021C16 9.66021 16.33 10.0002 16.75 10.0002H16.76C17.17 10.0002 17.51 9.67021 17.51 9.25021V8.36021C17.51 6.55021 15.91 5.20021 14.04 5.20021H12.74C11.72 5.20021 10.8 4.47021 10.67 3.45021C10.55 2.50021 11.13 1.75021 11.97 1.52021C12.29 1.43021 12.51 1.14021 12.51 0.800214C12.51 0.310214 12.05 -0.0597862 11.58 0.0802138C10.16 0.490214 9.13 1.81021 9.16 3.36021C9.18 5.21021 10.77 6.65021 12.61 6.65021ZM2.12 3.29021C1.73 2.90021 1.1 2.90021 0.71 3.29021C0.32 3.68021 0.32 4.31021 0.71 4.70021L7 11.0002H1.5C0.67 11.0002 0 11.6702 0 12.5002C0 13.3302 0.67 14.0002 1.5 14.0002H10L16.29 20.2902C16.68 20.6802 17.31 20.6802 17.7 20.2902C18.09 19.9002 18.09 19.2702 17.7 18.8802L2.12 3.29021Z" fill="#AD578D"/>
</svg>
