<svg width="22" height="22" viewBox="0 0 22 22" fill="none" xmlns="http://www.w3.org/2000/svg">
<path fill-rule="evenodd" clip-rule="evenodd" d="M11 22H10V15.43C8.93 16.4 7.52 17 6 17C2.75 17 0 14.25 0 11V10H6.57C5.6 8.93 5 7.52 5 6C5 2.75 7.75 0 11 0H12V6.57C13.07 5.6 14.48 5 16 5C19.25 5 22 7.75 22 11V12H15.43C16.4 13.07 17 14.48 17 16C17 19.25 14.25 22 11 22ZM12 19.87C13.7 19.41 15 17.83 15 16C15 14.17 13.7 12.59 12 12.13V19.87ZM6 15C4.17 15 2.59 13.7 2.13 12H9.87C9.41 13.7 7.83 15 6 15ZM19.87 10C19.41 8.3 17.82 7 16 7C14.18 7 12.59 8.3 12.13 10H19.87ZM7 6C7 4.18 8.3 2.59 10 2.13V9.87C8.3 9.41 7 7.82 7 6Z" fill="#AD578D"/>
</svg>
