<svg width="558" height="116" viewBox="0 0 558 116" fill="none" xmlns="http://www.w3.org/2000/svg">
<path d="M318.735 28.949V7.37842H333.21V11.9196H323.56V15.8931H332.643V19.8667H323.56V24.4078H333.778V28.949H318.735Z" fill="white"/>
<path d="M338.037 28.949V7.37842H343.43V28.949H338.037Z" fill="white"/>
<path d="M362.161 28.949L353.363 14.7578V28.949H348.254V7.37842H354.214L363.013 21.5696V7.37842H368.122V28.949H362.161Z" fill="white"/>
<path d="M393.381 18.1637C393.381 20.1505 393.097 21.5696 392.246 22.9887C391.678 24.4078 390.543 25.5431 389.408 26.3946C388.272 27.2461 386.853 27.8137 385.434 28.3814C384.015 28.6652 382.596 28.949 380.893 28.949H372.662V7.37842H380.609C382.028 7.37842 383.731 7.66224 385.15 7.94607C386.569 8.22989 387.989 8.79754 389.124 9.64901C390.259 10.5005 391.111 11.6358 391.962 13.0549C393.097 14.1902 393.381 15.8931 393.381 18.1637ZM387.989 18.1637C387.989 17.0284 387.705 15.8931 387.421 15.0417C387.137 14.1902 386.569 13.6225 385.718 13.0549C385.15 12.4872 384.299 12.2034 383.447 11.9196C382.596 11.6358 381.744 11.6358 380.893 11.6358H378.339V24.4078H380.893C381.744 24.4078 382.596 24.4078 383.731 24.124C384.583 23.8402 385.434 23.5564 386.002 22.9887C386.569 22.4211 387.137 21.8534 387.705 21.0019C387.705 20.1505 387.989 19.299 387.989 18.1637Z" fill="white"/>
<path d="M410.976 28.949V19.8667H402.461V28.949H397.353V7.37842H402.461V15.6093H410.976V7.37842H416.085V28.949H410.976Z" fill="white"/>
<path d="M443.9 18.1641C443.9 19.8671 443.616 21.57 443.048 22.9891C442.481 24.4082 441.629 25.5435 440.494 26.6788C439.359 27.8141 438.223 28.3818 436.804 28.9494C435.385 29.517 433.682 29.8009 431.979 29.8009C430.276 29.8009 428.573 29.517 427.154 28.9494C425.735 28.3818 424.6 27.5303 423.464 26.6788C422.329 25.5435 421.478 24.4082 420.91 22.9891C420.342 21.57 420.059 19.8671 420.059 18.1641C420.059 16.4612 420.342 14.7582 420.91 13.3391C421.478 11.92 422.329 10.7847 423.464 9.6494C424.6 8.79793 425.735 7.94646 427.154 7.37881C428.573 6.81117 430.276 6.52734 431.979 6.52734C433.682 6.52734 435.385 6.81117 436.804 7.37881C438.223 7.94646 439.642 8.79793 440.494 9.6494C441.629 10.5009 442.481 11.92 443.048 13.3391C443.616 14.7582 443.9 16.1773 443.9 18.1641ZM438.223 18.1641C438.223 17.3126 437.939 16.4612 437.656 15.6097C437.372 14.7582 436.804 14.1906 436.52 13.6229C435.953 13.0553 435.385 12.4876 434.534 12.2038C433.682 11.92 432.831 11.6362 431.979 11.6362C431.128 11.6362 430.276 11.92 429.425 12.2038C428.573 12.4876 428.006 13.0553 427.438 13.6229C426.87 14.1906 426.587 15.0421 426.303 15.6097C426.019 16.4612 425.735 17.3126 425.735 18.1641C425.735 19.0156 426.019 20.1509 426.303 21.0023C426.587 21.8538 427.154 22.4215 427.438 22.9891C428.006 23.5568 428.573 24.1244 429.425 24.4082C430.276 24.6921 431.128 24.9759 431.979 24.9759C432.831 24.9759 433.682 24.6921 434.534 24.4082C435.385 24.1244 435.953 23.5568 436.52 22.9891C437.088 22.4215 437.372 21.57 437.939 21.0023C438.223 19.8671 438.223 19.0156 438.223 18.1641Z" fill="white"/>
<path d="M457.811 28.949H452.703L444.472 7.37842H450.432L455.541 22.7049L460.65 7.37842H466.326L457.811 28.949Z" fill="white"/>
<path d="M468.879 28.949V7.37842H483.354V11.9196H473.704V15.8931H482.786V19.8667H473.704V24.4078H483.922V28.949H468.879Z" fill="white"/>
<path d="M501.799 28.949L493.001 14.7578V28.949H488.176V7.37842H494.136L502.935 21.5696V7.37842H508.043V28.949H501.799Z" fill="white"/>
<path d="M330.088 84.2946V101.608H324.979V84.2946H318.735V79.7534H336.332V84.2946H330.088Z" fill="white"/>
<path d="M338.886 101.324V79.7534H353.361V84.2946H343.711V88.2681H352.793V92.5255H343.711V97.0667H353.928V101.608H338.886V101.324Z" fill="white"/>
<path d="M373.514 101.041C372.094 101.608 370.391 101.892 368.688 101.892C366.986 101.892 365.566 101.608 364.147 101.041C362.728 100.473 361.593 99.6215 360.458 98.77C359.322 97.6347 358.471 96.4994 357.903 95.0803C357.336 93.6612 357.052 92.2421 357.052 90.5391C357.052 88.8362 357.336 87.1332 357.903 85.7141C358.471 84.295 359.322 83.1597 360.458 82.0244C361.593 81.1729 362.728 80.3215 364.147 79.7538C365.566 79.1862 366.986 78.9023 368.688 78.9023C370.108 78.9023 371.811 79.1862 373.23 79.7538C374.649 80.3215 375.784 81.1729 376.919 82.0244L373.23 85.7141C372.662 85.1465 372.094 84.5788 371.243 84.295C370.391 84.0112 369.54 83.7273 368.688 83.7273C367.837 83.7273 366.986 84.0112 366.134 84.295C365.283 84.5788 364.715 85.1465 364.147 85.7141C363.58 86.2818 363.296 87.1332 362.728 87.7009C362.444 88.5523 362.161 89.4038 362.161 90.2553C362.161 91.1068 362.444 92.2421 362.728 92.8097C363.012 93.6612 363.58 94.2288 363.864 94.7965C364.431 95.3641 364.999 95.9318 365.85 96.2156C366.702 96.4994 367.553 96.7832 368.405 96.7832C369.54 96.7832 370.391 96.4994 371.243 96.2156C372.094 95.9318 372.662 95.3641 373.23 94.5126L376.919 97.9185C376.068 99.3376 374.933 100.473 373.514 101.041Z" fill="white"/>
<path d="M393.381 101.324V92.2417H384.867V101.324H379.758V79.7534H384.867V87.9843H393.381V79.7534H398.49V101.324H393.381Z" fill="white"/>
<path d="M417.507 101.324L408.708 87.1328V101.324H403.6V79.7534H409.56L418.358 93.9446V79.7534H423.467V101.324H417.507Z" fill="white"/>
<path d="M451.284 90.5391C451.284 92.2421 451 93.945 450.432 95.3641C449.864 96.7832 449.013 97.9185 447.878 99.0538C446.742 100.189 445.607 100.757 444.188 101.324C442.769 101.892 441.066 102.176 439.363 102.176C437.66 102.176 435.957 101.892 434.538 101.324C433.119 100.757 431.984 99.9053 430.848 99.0538C429.713 97.9185 428.861 96.7832 428.294 95.3641C427.726 93.945 427.442 92.2421 427.442 90.5391C427.442 88.8362 427.726 87.1332 428.294 85.7141C428.861 84.295 429.713 83.1597 430.848 82.0244C431.984 81.1729 433.119 80.3215 434.538 79.7538C435.957 79.1862 437.66 78.9023 439.363 78.9023C441.066 78.9023 442.769 79.1862 444.188 79.7538C445.607 80.3215 447.026 81.1729 447.878 82.0244C449.013 82.8759 449.864 84.295 450.432 85.7141C451 87.1332 451.284 88.8362 451.284 90.5391ZM445.607 90.5391C445.607 89.6876 445.323 88.8362 445.039 87.9847C444.756 87.1332 444.188 86.5656 443.904 85.9979C443.336 85.4303 442.769 84.8626 441.917 84.5788C441.066 84.295 440.214 84.0112 439.363 84.0112C438.511 84.0112 437.66 84.295 436.809 84.5788C435.957 84.8626 435.389 85.4303 434.822 85.9979C434.254 86.5656 433.97 87.4171 433.686 87.9847C433.403 88.8362 433.119 89.6876 433.119 90.5391C433.119 91.3906 433.403 92.5259 433.686 93.3773C433.97 94.2288 434.538 94.7965 434.822 95.3641C435.389 95.9318 435.957 96.4994 436.809 96.7832C437.66 97.067 438.511 97.3509 439.363 97.3509C440.214 97.3509 441.066 97.067 441.917 96.7832C442.769 96.4994 443.336 95.9318 443.904 95.3641C444.472 94.7965 444.756 93.945 445.323 93.3773C445.323 92.2421 445.607 91.3906 445.607 90.5391Z" fill="white"/>
<path d="M454.971 101.324V79.7534H460.363V96.7828H468.878V101.324H454.971Z" fill="white"/>
<path d="M493.857 90.5391C493.857 92.2421 493.573 93.945 493.005 95.3641C492.438 96.7832 491.586 97.9185 490.451 99.0538C489.316 100.189 488.18 100.757 486.761 101.324C485.342 101.892 483.639 102.176 481.936 102.176C480.233 102.176 478.53 101.892 477.111 101.324C475.692 100.757 474.557 99.9053 473.421 99.0538C472.286 97.9185 471.435 96.7832 470.867 95.3641C470.299 93.945 470.016 92.2421 470.016 90.5391C470.016 88.8362 470.299 87.1332 470.867 85.7141C471.435 84.295 472.286 83.1597 473.421 82.0244C474.557 81.1729 475.692 80.3215 477.111 79.7538C478.53 79.1862 480.233 78.9023 481.936 78.9023C483.639 78.9023 485.342 79.1862 486.761 79.7538C488.18 80.3215 489.599 81.1729 490.451 82.0244C491.586 82.8759 492.438 84.295 493.005 85.7141C493.573 87.1332 493.857 88.8362 493.857 90.5391ZM488.464 90.5391C488.464 89.6876 488.18 88.8362 487.896 87.9847C487.613 87.1332 487.045 86.5656 486.761 85.9979C486.194 85.4303 485.626 84.8626 484.774 84.5788C483.923 84.295 483.071 84.0112 482.22 84.0112C481.369 84.0112 480.517 84.295 479.666 84.5788C478.814 84.8626 478.246 85.4303 477.679 85.9979C477.111 86.5656 476.827 87.4171 476.544 87.9847C476.26 88.8362 475.976 89.6876 475.976 90.5391C475.976 91.3906 476.26 92.5259 476.544 93.3773C476.827 94.2288 477.395 94.7965 477.679 95.3641C478.246 95.9318 478.814 96.4994 479.666 96.7832C480.517 97.067 481.369 97.3509 482.22 97.3509C483.071 97.3509 483.923 97.067 484.774 96.7832C485.626 96.4994 486.194 95.9318 486.761 95.3641C487.329 94.7965 487.613 93.945 488.18 93.3773C488.18 92.2421 488.464 91.3906 488.464 90.5391Z" fill="white"/>
<path d="M513.44 101.324C512.021 101.608 510.602 101.892 508.899 101.892C507.196 101.892 505.493 101.608 504.074 101.041C502.655 100.473 501.236 99.6215 500.384 98.77C499.249 97.6347 498.398 96.4994 497.83 95.0803C497.262 93.6612 496.979 92.2421 496.979 90.5391C496.979 88.8362 497.262 87.1332 497.83 85.7141C498.398 84.295 499.249 83.1597 500.384 82.0244C501.52 81.1729 502.655 80.3215 504.074 79.7538C505.493 79.1862 506.912 78.9023 508.615 78.9023C510.318 78.9023 512.021 79.1862 513.44 79.7538C514.859 80.3215 515.995 80.8891 517.13 81.7406L513.724 85.4303C513.156 84.8626 512.589 84.295 511.737 84.0112C510.886 83.7273 510.034 83.4435 508.899 83.4435C508.048 83.4435 507.196 83.7273 506.345 84.0112C505.493 84.295 504.926 84.8626 504.358 85.4303C503.79 85.9979 503.223 86.8494 502.939 87.7009C502.655 88.5523 502.371 89.4038 502.371 90.5391C502.371 91.6744 502.655 92.5259 502.939 93.3773C503.223 94.2288 503.79 94.7965 504.074 95.6479C504.642 96.2156 505.209 96.7832 506.061 97.0671C506.912 97.3509 507.764 97.6347 508.899 97.6347C509.467 97.6347 510.034 97.6347 510.602 97.6347C511.17 97.6347 511.737 97.3509 512.021 97.0671V93.0935H508.048V88.8362H517.13V100.189C515.995 100.473 514.859 101.041 513.44 101.324Z" fill="white"/>
<path d="M532.171 92.2417V101.324H527.062V92.2417L518.831 79.7534H525.075L529.616 87.7005L534.158 79.7534H540.402L532.171 92.2417Z" fill="white"/>
<path d="M336.616 60.4553C336.049 61.5906 335.481 62.4421 334.629 63.2936C333.778 64.145 332.927 64.7127 331.791 64.9965C330.656 65.5641 329.237 65.5641 327.818 65.5641C326.399 65.5641 324.979 65.2803 323.844 64.9965C322.709 64.4289 321.857 63.8612 321.006 63.2936C320.154 62.4421 319.587 61.5906 319.303 60.4553C318.735 59.32 318.735 58.1847 318.735 56.7656V43.1421H323.844V56.198C323.844 56.7656 323.844 57.3333 324.128 57.9009C324.412 58.4686 324.412 59.0362 324.696 59.32C324.979 59.6039 325.547 60.1715 325.831 60.4553C326.399 60.7391 326.966 60.7391 327.818 60.7391C328.669 60.7391 329.237 60.7391 329.804 60.4553C330.372 60.1715 330.656 59.8877 330.94 59.32C331.224 58.7524 331.507 58.4686 331.507 57.9009C331.791 57.3333 331.791 56.7656 331.791 56.198V43.1421H336.9V56.7656C337.184 58.1847 337.184 59.6039 336.616 60.4553Z" fill="white"/>
<path d="M355.914 65.2806L347.116 51.0894V65.2806H342.007V43.71H347.967L356.766 57.9011V43.71H361.874V65.2806H355.914Z" fill="white"/>
<path d="M366.985 65.2806V43.71H372.378V65.2806H366.985Z" fill="white"/>
<path d="M388.274 65.2806H383.165L374.935 43.71H380.895L386.004 59.0364L391.113 43.71H396.789L388.274 65.2806Z" fill="white"/>
<path d="M399.06 65.2806V43.71H413.535V48.2511H403.885V52.2247H412.967V56.482H403.885V61.0232H414.102V65.2806H399.06Z" fill="white"/>
<path d="M429.993 65.2806L425.168 56.7658H423.465V65.2806H418.356V43.71H426.587C427.723 43.71 428.574 43.71 429.709 43.9938C430.561 44.2776 431.696 44.5614 432.264 45.1291C433.115 45.6967 433.683 46.2644 434.251 47.1158C434.818 47.9673 434.818 49.1026 434.818 50.2379C434.818 51.657 434.534 53.0761 433.683 53.9276C432.831 55.0629 431.696 55.6305 430.277 56.1982L435.954 65.5644H429.993V65.2806ZM429.709 50.2379C429.709 49.6703 429.709 49.3864 429.426 49.1026C429.142 48.8188 428.858 48.535 428.574 48.2511C428.29 47.9673 427.723 47.9673 427.439 47.9673C427.155 47.9673 426.587 47.9673 426.304 47.9673H423.465V53.0761H426.02C426.587 53.0761 426.871 53.0761 427.439 53.0761C428.006 53.0761 428.29 52.7923 428.574 52.7923C428.858 52.5085 429.142 52.2247 429.426 51.9408C429.709 51.0894 429.709 50.8056 429.709 50.2379Z" fill="white"/>
<path d="M450.714 49.1024C450.146 48.5347 449.579 47.9671 449.011 47.6833C448.16 47.3994 447.592 47.1156 447.024 47.1156C446.741 47.1156 446.457 47.1156 445.889 47.1156C445.605 47.1156 445.321 47.3994 445.038 47.3994C444.754 47.6833 444.47 47.6833 444.186 47.9671C443.902 48.2509 443.902 48.5347 443.902 49.1024C443.902 49.3862 443.902 49.67 444.186 49.9539C444.47 50.2377 444.47 50.5215 444.754 50.5215C445.038 50.8053 445.321 50.8053 445.889 51.0891C446.173 51.373 446.741 51.373 447.308 51.6568C448.16 51.9406 448.727 52.2244 449.579 52.5083C450.43 52.7921 450.998 53.0759 451.849 53.6436C452.417 54.2112 452.985 54.7789 453.552 55.3465C454.12 56.198 454.12 57.0494 454.12 58.1847C454.12 59.32 453.836 60.4553 453.552 61.3068C452.985 62.1583 452.417 63.0097 451.566 63.5774C450.714 64.145 449.863 64.7127 449.011 64.9965C447.876 65.2803 447.024 65.5641 445.889 65.5641C444.47 65.5641 442.767 65.2803 441.348 64.7127C439.929 64.145 438.793 63.2936 437.658 62.4421L441.064 59.0362C441.632 59.6039 442.199 60.1715 443.051 60.7391C443.902 61.3068 444.754 61.3068 445.605 61.3068C445.889 61.3068 446.457 61.3068 446.741 61.3068C447.024 61.3068 447.308 61.023 447.592 61.023C447.876 60.7391 448.16 60.4553 448.16 60.1715C448.443 59.8877 448.444 59.6039 448.444 59.0362C448.444 58.7524 448.443 58.1847 448.16 57.9009C447.876 57.6171 447.592 57.3333 447.308 57.0494C447.024 56.7656 446.457 56.4818 445.889 56.4818C445.321 56.198 444.754 56.198 443.902 55.9142C443.335 55.6303 442.483 55.3465 441.916 55.0627C441.348 54.7789 440.78 54.495 440.213 53.9274C439.645 53.3597 439.361 52.7921 439.077 52.2244C438.793 51.6568 438.51 50.8053 438.51 49.67C438.51 48.5347 438.794 47.3994 439.361 46.548C439.929 45.6965 440.496 44.845 441.348 44.5612C442.199 43.9936 443.051 43.7097 444.186 43.4259C445.321 43.1421 446.173 43.1421 447.308 43.1421C448.444 43.1421 449.863 43.4259 450.998 43.7097C452.133 44.2774 453.269 44.845 454.404 45.6965L450.714 49.1024Z" fill="white"/>
<path d="M458.092 65.2806V43.71H463.484V65.2806H458.092Z" fill="white"/>
<path d="M477.394 47.966V65.2792H472.285V47.966H466.041V43.4248H483.638V47.966H477.394Z" fill="white"/>
<path d="M498.394 55.9144V65.2806H493.286V56.1982L485.055 43.71H491.299L495.84 51.657L500.381 43.71H506.625L498.394 55.9144Z" fill="white"/>
<path d="M539.834 54.2105C539.834 55.9134 539.55 57.6164 538.983 59.0355C538.415 60.4546 537.564 61.5899 536.428 62.7252C535.293 63.8605 534.158 64.4281 532.739 64.9958C531.32 65.5634 529.617 65.8473 527.914 65.8473C526.211 65.8473 524.508 65.5634 523.089 64.9958C521.67 64.4281 520.534 63.5767 519.399 62.7252C518.264 61.5899 517.412 60.4546 516.845 59.0355C516.277 57.6164 515.993 55.9134 515.993 54.2105C515.993 52.5076 516.277 50.8046 516.845 49.3855C517.412 47.9664 518.264 46.8311 519.399 45.6958C520.534 44.8443 521.67 43.9928 523.089 43.4252C524.508 42.8576 526.211 42.5737 527.914 42.5737C529.617 42.5737 531.32 42.8576 532.739 43.4252C534.158 43.9928 535.577 44.8443 536.428 45.6958C537.564 46.5473 538.415 47.9664 538.983 49.3855C539.55 50.8046 539.834 52.5076 539.834 54.2105ZM534.158 54.2105C534.158 53.359 533.874 52.5076 533.59 51.6561C533.306 50.8046 532.739 50.237 532.455 49.6693C531.887 49.1017 531.32 48.534 530.468 48.2502C529.617 47.9664 528.765 47.6826 527.914 47.6826C527.062 47.6826 526.211 47.9664 525.359 48.2502C524.508 48.534 523.94 49.1017 523.373 49.6693C522.805 50.237 522.521 51.0884 522.237 51.6561C521.953 52.5076 521.67 53.359 521.67 54.2105C521.67 55.062 521.953 56.1973 522.237 57.0487C522.521 57.9002 523.089 58.4678 523.373 59.0355C523.94 59.6031 524.508 60.1708 525.359 60.4546C526.211 60.7384 527.062 61.0223 527.914 61.0223C528.765 61.0223 529.617 60.7384 530.468 60.4546C531.32 60.1708 531.887 59.6031 532.455 59.0355C533.023 58.4678 533.306 57.6164 533.874 57.0487C534.158 56.1973 534.158 55.3458 534.158 54.2105Z" fill="white"/>
<path d="M548.918 47.9673V52.5085H557.433V56.7658H548.918V65.2806H543.81V43.71H558.001V48.2511H548.918V47.9673Z" fill="white"/>
<path d="M50.5206 26.6784V101.324H27.2471V26.6784H0V7.37842H77.7676V26.6784H50.5206Z" fill="white"/>
<path d="M166.887 81.4568C164.9 85.998 162.062 89.9716 158.372 93.3774C154.682 96.7833 150.425 99.3377 145.316 101.041C140.207 103.027 134.531 103.879 128.287 103.879C122.043 103.879 116.082 103.027 110.974 101.041C105.865 99.0539 101.607 96.4995 97.9177 93.3774C94.5119 89.9716 91.6736 85.998 89.6869 81.4568C87.7001 76.9157 86.8486 71.523 86.8486 65.8466V7.37891H110.122V64.1436C110.122 66.698 110.406 69.2524 111.257 71.523C111.825 73.7936 112.96 75.7804 114.38 77.7671C115.799 79.4701 117.785 80.8892 120.056 82.0245C122.327 83.1598 125.165 83.7274 128.571 83.7274C131.977 83.7274 134.531 83.1598 137.085 82.0245C139.356 80.8892 141.343 79.4701 142.762 77.7671C144.181 76.0642 145.316 73.7936 145.884 71.523C146.452 69.2524 146.735 66.698 146.735 64.1436V7.37891H170.009V66.1304C169.725 71.523 168.59 76.6319 166.887 81.4568Z" fill="white"/>
<path d="M184.202 115.8L231.317 0H214.571L167.173 115.8H184.202Z" fill="white"/>
<path d="M254.303 33.4907C234.72 33.4907 219.109 49.3848 219.109 68.6848C219.109 87.9848 235.003 103.879 254.303 103.879C266.792 103.879 279.564 98.4863 286.376 88.5525L270.481 82.0245C266.224 86.8495 260.264 88.5525 254.303 88.5525C245.221 88.5525 237.842 82.5922 235.287 74.6451H289.214C289.498 72.6584 289.781 70.6716 289.781 68.6848C289.781 49.101 273.887 33.4907 254.303 33.4907ZM254.303 48.5334C262.534 48.5334 269.914 53.6422 272.752 61.0216H235.855C238.977 53.6422 246.073 48.5334 254.303 48.5334Z" fill="white"/>
</svg>
