<?xml version="1.0" standalone="no"?>
<!DOCTYPE svg PUBLIC "-//W3C//DTD SVG 20010904//EN"
 "http://www.w3.org/TR/2001/REC-SVG-20010904/DTD/svg10.dtd">
<svg version="1.0" xmlns="http://www.w3.org/2000/svg"
 width="2918.000000pt" height="2918.000000pt" viewBox="0 0 2918.000000 2918.000000"
 preserveAspectRatio="xMidYMid meet">
<metadata>
Created by potrace 1.11, written by Peter Selinger 2001-2013
</metadata>
<g transform="translate(0.000000,2918.000000) scale(0.100000,-0.100000)"
fill="#000000" stroke="none">
<path d="M0 14585 l0 -14585 14585 0 14585 0 0 14585 0 14585 -14585 0 -14585
0 0 -14585z m12847 9574 c538 -44 1132 -199 1626 -424 750 -342 1397 -917
1833 -1627 327 -533 526 -1113 611 -1778 15 -118 18 -274 22 -1207 l6 -1072
105 61 c459 265 1041 514 1428 612 711 179 1365 122 1942 -168 239 -120 429
-257 629 -451 353 -343 581 -726 720 -1211 l38 -131 153 -203 c84 -111 166
-232 183 -269 60 -127 46 -313 -32 -431 -16 -25 -91 -112 -165 -194 -106 -116
-138 -159 -146 -190 -72 -290 -208 -596 -375 -846 -113 -169 -198 -273 -340
-415 -482 -483 -1112 -760 -1804 -791 -195 -9 -284 14 -397 104 -212 168 -220
513 -15 693 95 85 188 115 376 123 663 28 1234 399 1530 994 68 138 106 246
144 415 17 75 42 160 56 188 23 45 42 69 132 170 l23 25 -71 95 c-96 127 -111
160 -154 334 -76 308 -212 573 -404 788 -444 497 -1066 663 -1796 481 -318
-79 -809 -295 -1240 -544 -136 -78 -180 -106 -372 -233 l-153 -100 -2 -2526
-3 -2526 -23 -109 c-120 -564 -479 -1034 -981 -1286 -273 -136 -558 -193 -976
-194 -234 -1 -321 7 -515 45 -276 54 -576 185 -775 338 -393 301 -617 714
-697 1286 -19 136 -16 530 6 700 144 1138 807 2424 1864 3615 290 327 710 730
1040 999 l143 116 -4 1375 c-4 1466 -2 1419 -52 1689 -174 938 -751 1774
-1557 2254 -451 269 -1042 456 -1606 507 -172 16 -635 8 -787 -14 -801 -115
-1482 -452 -2040 -1011 -493 -492 -825 -1104 -965 -1775 -61 -295 -66 -401
-83 -1560 -3 -241 -12 -281 -82 -374 -20 -25 -193 -188 -386 -362 -324 -292
-350 -318 -335 -333 9 -9 168 -153 353 -321 185 -168 352 -326 371 -352 126
-177 102 -433 -56 -587 -145 -141 -354 -172 -537 -79 -74 38 -1157 1018 -1212
1098 -58 82 -78 153 -77 265 1 100 22 168 75 249 19 29 216 213 500 469 l469
422 0 125 c1 69 5 323 10 565 9 468 20 592 75 885 284 1494 1326 2752 2747
3313 404 160 870 267 1308 300 111 8 581 6 697 -4z m-1189 -2905 c123 -25 214
-74 302 -163 87 -87 132 -165 160 -277 106 -413 -258 -805 -678 -730 -427 76
-633 559 -391 921 134 199 372 297 607 249z m8027 -4195 c73 -27 156 -104 192
-177 25 -51 28 -68 28 -157 0 -89 -3 -106 -28 -157 -69 -140 -235 -226 -383
-199 -120 23 -221 100 -272 209 -23 48 -27 70 -27 147 0 77 4 99 27 147 15 32
48 79 75 106 106 106 245 135 388 81z m-15728 -8477 c16 -10 803 -1707 803
-1730 0 -38 -19 -42 -195 -42 -204 0 -188 -9 -261 153 l-48 107 -340 -2 -339
-3 -51 -113 c-36 -80 -59 -118 -76 -128 -18 -10 -70 -13 -193 -14 -165 0 -168
0 -178 23 -9 20 43 138 381 867 215 465 398 855 406 868 15 22 65 31 91 14z
m5290 0 c16 -10 803 -1707 803 -1730 0 -38 -19 -42 -195 -42 -204 0 -188 -9
-261 153 l-48 107 -340 -2 -339 -3 -51 -113 c-36 -80 -59 -118 -76 -128 -18
-10 -70 -13 -193 -14 -165 0 -168 0 -178 23 -9 20 43 138 381 867 215 465 398
855 406 868 15 22 65 31 91 14z m2072 -22 c156 -44 371 -182 371 -236 0 -19
-29 -55 -112 -140 -61 -63 -119 -114 -128 -114 -10 0 -35 14 -56 31 -199 159
-490 140 -658 -42 -282 -305 -122 -810 275 -871 129 -19 281 19 382 96 58 44
71 38 190 -89 76 -82 107 -122 107 -140 0 -59 -242 -209 -405 -252 -54 -14
-106 -18 -225 -17 -139 0 -164 3 -245 28 -326 100 -550 338 -632 674 -26 108
-22 303 10 423 44 167 128 310 253 430 132 126 257 191 445 234 95 22 330 14
428 -15z m5282 14 c243 -46 462 -197 594 -409 151 -242 177 -570 66 -836 -96
-230 -297 -418 -534 -500 -115 -39 -212 -52 -347 -46 -226 10 -409 89 -574
246 -174 167 -262 364 -273 611 -9 207 38 382 147 548 200 303 561 455 921
386z m4040 -463 l494 -478 5 447 c4 358 8 450 19 463 12 15 38 17 185 17 120
0 176 -4 184 -12 17 -17 17 -1739 0 -1756 -7 -7 -30 -12 -52 -12 -40 0 -46 6
-543 502 l-503 503 0 -476 c0 -356 -3 -478 -12 -487 -8 -8 -64 -12 -184 -12
-147 0 -173 2 -185 17 -12 13 -15 164 -17 871 -4 964 -10 892 73 892 42 0 43
-1 536 -479z m2340 463 c243 -46 462 -197 594 -409 151 -242 177 -570 66 -836
-96 -230 -297 -418 -534 -500 -115 -39 -212 -52 -347 -46 -226 10 -409 89
-574 246 -174 167 -262 364 -273 611 -9 207 38 382 147 548 200 303 561 455
921 386z m2234 -441 c110 -249 203 -447 206 -440 3 7 52 194 109 417 56 223
109 415 116 428 14 21 19 22 178 22 91 0 171 -3 180 -6 9 -3 16 -18 16 -33 0
-31 -469 -1711 -483 -1728 -15 -20 -91 -16 -109 5 -8 9 -116 245 -239 524
-123 280 -227 508 -230 508 -3 0 -107 -228 -229 -507 -123 -280 -230 -516
-238 -525 -18 -21 -94 -25 -109 -5 -14 17 -483 1697 -483 1728 0 15 7 30 16
33 9 3 89 6 178 6 143 0 165 -2 178 -17 8 -10 61 -202 118 -428 56 -225 106
-415 109 -422 4 -7 94 187 200 430 107 243 199 448 204 455 7 8 28 12 61 10
l51 -3 200 -452z m-18786 412 c184 -44 346 -196 404 -380 27 -89 29 -222 3
-310 -60 -203 -226 -357 -431 -400 -43 -9 -127 -15 -217 -15 l-148 0 0 -303
c0 -222 -3 -306 -12 -315 -8 -8 -63 -12 -183 -12 -120 0 -175 4 -183 12 -17
17 -17 1709 0 1726 19 19 683 16 767 -3z m1119 3 c9 -9 12 -176 12 -690 l0
-678 301 0 c188 0 308 -4 320 -10 18 -10 19 -23 19 -173 0 -114 -4 -167 -12
-175 -17 -17 -989 -17 -1006 0 -17 17 -17 1709 0 1726 8 8 63 12 183 12 120 0
175 -4 183 -12z m5610 0 c8 -8 12 -61 12 -175 0 -150 -1 -163 -19 -173 -13 -6
-148 -10 -370 -10 l-351 0 0 -155 0 -155 294 0 c254 0 297 -2 310 -16 24 -24
23 -309 -1 -336 -15 -17 -38 -18 -310 -18 l-293 0 0 -165 0 -165 351 0 c222 0
357 -4 370 -10 18 -10 19 -23 19 -173 0 -114 -4 -167 -12 -175 -17 -17 -1089
-17 -1106 0 -17 17 -17 1709 0 1726 17 17 1089 17 1106 0z m2150 0 c8 -8 12
-61 12 -175 0 -150 -1 -163 -19 -173 -13 -6 -148 -10 -370 -10 l-351 0 0 -180
0 -180 294 0 c254 0 297 -2 310 -16 24 -24 23 -309 -1 -336 -15 -17 -38 -18
-310 -18 l-293 0 0 -313 c0 -230 -3 -316 -12 -325 -8 -8 -63 -12 -183 -12
-120 0 -175 4 -183 12 -17 17 -17 1709 0 1726 17 17 1089 17 1106 0z m3367
-21 c85 -34 187 -108 237 -174 213 -281 126 -647 -192 -811 l-58 -30 169 -312
c93 -172 171 -321 174 -331 4 -10 1 -28 -5 -39 -11 -20 -18 -20 -208 -18
l-197 3 -172 335 -172 335 -85 3 -86 3 0 -329 c0 -242 -3 -331 -12 -340 -8 -8
-63 -12 -183 -12 -120 0 -175 4 -183 12 -18 18 -17 1709 0 1726 10 10 113 12
458 10 l445 -3 70 -28z"/>
<path d="M15819 16002 c-648 -662 -1146 -1353 -1500 -2077 -363 -746 -512
-1418 -423 -1920 81 -461 370 -713 879 -765 218 -23 532 5 672 60 219 85 415
278 509 501 69 163 65 11 62 2318 l-3 2084 -196 -201z"/>
<path d="M3823 7613 l-90 -198 180 -3 c99 -1 182 -1 184 2 4 4 -164 376 -177
389 -4 4 -48 -81 -97 -190z"/>
<path d="M9113 7613 l-90 -198 180 -3 c99 -1 182 -1 184 2 4 4 -164 376 -177
389 -4 4 -48 -81 -97 -190z"/>
<path d="M16323 8175 c-249 -54 -423 -309 -385 -564 34 -217 205 -389 422
-422 266 -41 520 151 562 422 39 257 -136 511 -389 564 -82 18 -129 18 -210 0z"/>
<path d="M22703 8175 c-249 -54 -423 -309 -385 -564 34 -217 205 -389 422
-422 266 -41 520 151 562 422 39 257 -136 511 -389 564 -82 18 -129 18 -210 0z"/>
<path d="M6040 7999 l0 -191 148 4 c133 3 151 5 184 26 47 29 74 67 89 125 23
82 -22 170 -106 208 -32 15 -66 19 -177 19 l-138 0 0 -191z"/>
<path d="M18080 8005 l0 -195 198 0 c191 0 200 1 248 25 146 73 148 272 3 345
-34 18 -59 20 -244 20 l-205 0 0 -195z"/>
</g>
</svg>
