<svg width="961" height="448" viewBox="0 0 961 448" fill="none" xmlns="http://www.w3.org/2000/svg">
<path d="M284.995 203.464C252.165 199.693 228.588 170.027 232.335 137.203C236.081 104.38 265.732 80.8288 298.562 84.6003C331.392 88.3718 354.969 118.038 351.222 150.861C347.475 183.685 317.824 207.236 284.995 203.464Z" fill="#C65959"/>
<path d="M293.094 132.64C266.549 129.591 247.485 105.604 250.515 79.0635C253.544 52.5234 277.519 33.4806 304.064 36.5301C330.61 39.5796 349.673 63.5667 346.644 90.1068C343.614 116.647 319.639 135.69 293.094 132.64Z" fill="#C65959"/>
<path d="M219.392 166.782C214.38 166.206 210.781 161.677 211.353 156.666C211.925 151.654 216.452 148.059 221.464 148.634C226.476 149.21 230.075 153.739 229.503 158.75C228.931 163.762 224.404 167.357 219.392 166.782Z" fill="#C65959"/>
<path fill-rule="evenodd" clip-rule="evenodd" d="M239.586 114.784L213.708 151.523L222.943 166.056C222.943 166.056 233.301 169.827 239.586 114.784Z" fill="#C65959"/>
<path d="M294.981 116.035C292.051 115.698 289.947 113.05 290.281 110.121C290.616 107.191 293.262 105.089 296.192 105.426C299.123 105.762 301.227 108.41 300.893 111.34C300.558 114.269 297.912 116.371 294.981 116.035Z" fill="#DDDD72"/>
<path d="M295.856 104.993C290.208 104.345 286.152 99.2406 286.796 93.5933C287.441 87.946 292.542 83.894 298.191 84.5429C303.839 85.1918 307.895 90.2958 307.251 95.943C306.606 101.59 301.505 105.642 295.856 104.993Z" fill="#DDDD72"/>
<path fill-rule="evenodd" clip-rule="evenodd" d="M290.199 110.852L286.875 96.2936L306.561 98.5549L300.81 112.071L290.199 110.852Z" fill="#DDDD72"/>
<path fill-rule="evenodd" clip-rule="evenodd" d="M342.915 85.8592C344.313 73.6098 340.984 61.8781 334.413 52.5317C343.287 62.4609 348.069 76.0213 346.44 90.2947C343.409 116.852 319.418 135.876 292.89 132.828C278.614 131.188 266.482 123.466 258.813 112.579C266.431 121.126 277.114 126.985 289.365 128.393C315.893 131.44 339.888 112.382 342.915 85.8592Z" fill="#AA4F4F"/>
<path fill-rule="evenodd" clip-rule="evenodd" d="M347.847 146.62C349.611 131.16 345.318 116.418 336.852 104.768C347.516 116.989 353.166 133.478 351.182 150.857C347.438 183.662 317.801 207.233 284.955 203.46C267.572 201.463 252.787 192.198 243.286 179.086C252.759 189.968 266.152 197.482 281.58 199.254C314.465 202.996 344.098 179.459 347.847 146.62Z" fill="#AA4F4F"/>
<path fill-rule="evenodd" clip-rule="evenodd" d="M269.141 70.5344C269.724 74.0006 272.534 76.8093 276.197 77.2295C279.859 77.6496 283.23 75.5514 284.581 72.3085C284.704 73.0408 284.728 73.8025 284.639 74.5772C284.132 79.0187 280.123 82.2066 275.686 81.6975C271.248 81.1885 268.063 77.1753 268.571 72.7338C268.659 71.9581 268.855 71.2206 269.141 70.5344Z" fill="#2D2D2D"/>
<path fill-rule="evenodd" clip-rule="evenodd" d="M313.771 75.6521C314.354 79.1177 317.164 81.9256 320.827 82.3458C324.49 82.766 327.861 80.667 329.211 77.4231C329.335 78.1558 329.359 78.918 329.27 79.6931C328.762 84.1346 324.754 87.3225 320.317 86.8135C315.879 86.3045 312.694 82.2913 313.201 77.8497C313.29 77.0747 313.485 76.3378 313.771 75.6521Z" fill="#2D2D2D"/>
<path fill-rule="evenodd" clip-rule="evenodd" d="M1003.75 447.085L587.731 336.361L366.548 292.369L18.3893 201.034L31.8757 151.93L387.855 213.019L620.37 242.9L1026.95 333.87L1003.75 447.085Z" fill="#8E7252"/>
<path fill-rule="evenodd" clip-rule="evenodd" d="M354.354 277.096L305.627 328.533L242.547 379.97L259.651 401.84L320.543 344.462L403.445 284.829" fill="#8E7252"/>
<path d="M251.928 404.195C244.239 404.195 238.006 397.955 238.006 390.258C238.006 382.56 244.239 376.32 251.928 376.32C259.617 376.32 265.85 382.56 265.85 390.258C265.85 397.955 259.617 404.195 251.928 404.195Z" fill="#8E7252"/>
<path d="M346.73 410.833C342.519 410.833 339.106 407.415 339.106 403.2C339.106 398.985 342.519 395.567 346.73 395.567C350.94 395.567 354.354 398.985 354.354 403.2C354.354 407.415 350.94 410.833 346.73 410.833Z" fill="#8E7252"/>
<path d="M26.5232 202.429C12.4269 202.429 0.999569 190.989 0.999569 176.877C0.999569 162.765 12.4269 151.324 26.5232 151.324C40.6195 151.324 52.0469 162.765 52.0469 176.877C52.0469 190.989 40.6195 202.429 26.5232 202.429Z" fill="#8E7252"/>
<path d="M1014.32 448C982.469 448 956.646 422.148 956.646 390.258C956.646 358.367 982.469 332.515 1014.32 332.515C1046.18 332.515 1072 358.367 1072 390.258C1072 422.148 1046.18 448 1014.32 448Z" fill="#8E7252"/>
<path d="M600.972 338.157C574.61 338.157 553.24 316.762 553.24 290.37C553.24 263.979 574.61 242.584 600.972 242.584C627.334 242.584 648.705 263.979 648.705 290.37C648.705 316.762 627.334 338.157 600.972 338.157Z" fill="#8E7252"/>
<path d="M377.557 294.021C354.857 294.021 336.454 275.597 336.454 252.871C336.454 230.145 354.857 211.721 377.557 211.721C400.258 211.721 418.66 230.145 418.66 252.871C418.66 275.597 400.258 294.021 377.557 294.021Z" fill="#8E7252"/>
<path d="M889.522 85.9495C887.417 85.9495 885.71 84.2409 885.71 82.1332C885.71 80.0255 887.417 78.3169 889.522 78.3169C891.627 78.3169 893.334 80.0255 893.334 82.1332C893.334 84.2409 891.627 85.9495 889.522 85.9495Z" fill="#8E7252"/>
<path d="M742.512 11.9467C739.217 11.9467 736.545 9.27231 736.545 5.97333C736.545 2.67435 739.217 0 742.512 0C745.807 0 748.479 2.67435 748.479 5.97333C748.479 9.27231 745.807 11.9467 742.512 11.9467Z" fill="#8E7252"/>
<path d="M759.086 120.794C753.228 120.794 748.479 116.04 748.479 110.175C748.479 104.31 753.228 99.5554 759.086 99.5554C764.944 99.5554 769.693 104.31 769.693 110.175C769.693 116.04 764.944 120.794 759.086 120.794Z" fill="#8E7252"/>
<path d="M313.583 347.117C307.541 347.117 302.644 342.214 302.644 336.166C302.644 330.118 307.541 325.215 313.583 325.215C319.624 325.215 324.521 330.118 324.521 336.166C324.521 342.214 319.624 347.117 313.583 347.117Z" fill="#8E7252"/>
<path fill-rule="evenodd" clip-rule="evenodd" d="M340.431 407.514L303.737 340.944L322.996 330.557L353.16 399.118L340.431 407.514Z" fill="#8E7252"/>
<path fill-rule="evenodd" clip-rule="evenodd" d="M632.131 126.767L568.487 252.871L600.972 268.468L656.229 144.521L760.511 120.694L891.014 85.6508L889.356 78.3169L755.307 100.252L641.313 121.657L632.131 126.767Z" fill="#8E7252"/>
<path d="M643.732 151.324C635.494 151.324 628.816 144.639 628.816 136.391C628.816 128.144 635.494 121.458 643.732 121.458C651.97 121.458 658.648 128.144 658.648 136.391C658.648 144.639 651.97 151.324 643.732 151.324Z" fill="#8E7252"/>
<path fill-rule="evenodd" clip-rule="evenodd" d="M747.055 9.82281L656.23 144.521L632.132 126.767L737.243 3.15259L747.055 9.82281Z" fill="#8E7252"/>
<path d="M956.713 390.192C953.796 386.641 950.647 383.322 947.432 380.07C944.216 376.818 940.868 373.665 937.454 370.646C930.593 364.573 923.333 358.931 915.776 353.754C911.964 351.199 908.118 348.71 904.141 346.42C900.163 344.131 896.119 341.94 892.009 339.949C883.755 335.901 875.17 332.549 866.319 330.06C857.469 327.571 848.386 325.912 839.238 325.215C836.95 325.049 834.663 324.916 832.376 324.883L831.514 324.85H830.652H828.929L825.515 324.817L818.653 324.75L815.239 324.717C814.112 324.684 812.952 324.717 811.825 324.651L798.135 324.054L794.72 323.888C793.593 323.821 792.433 323.755 791.306 323.688L784.478 323.224C779.937 322.892 775.362 322.66 770.821 322.261L757.164 321.133C754.877 320.934 752.623 320.768 750.336 320.536L743.507 319.905C738.966 319.474 734.425 319.076 729.851 318.644L702.57 316.023C684.405 314.231 666.207 312.339 648.042 310.481L538.986 299.297L538.953 299.496C575.184 304.441 611.48 308.689 647.81 312.605C652.351 313.102 656.893 313.567 661.434 313.998L675.057 315.359C684.14 316.255 693.256 317.051 702.338 317.914C711.454 318.711 720.536 319.507 729.652 320.237C734.193 320.602 738.767 320.934 743.308 321.266L750.137 321.764C752.424 321.93 754.711 322.062 756.965 322.228L770.655 323.124L774.069 323.357L777.484 323.556L784.312 323.954L791.14 324.352C792.268 324.419 793.428 324.485 794.555 324.551L797.969 324.684L811.791 325.215L825.515 325.58L828.929 325.68L830.619 325.713L831.481 325.746L832.343 325.779C834.63 325.879 836.884 326.045 839.138 326.277C848.188 327.173 857.137 328.998 865.822 331.62C883.258 336.83 899.699 344.993 914.881 355.048C918.659 357.571 922.405 360.192 926.051 362.913C929.698 365.668 933.244 368.488 936.758 371.442C943.719 377.349 950.415 383.555 956.547 390.324L956.713 390.192Z" fill="#725B44"/>
<path d="M628.982 276.831C602.63 278.357 576.311 279.419 549.958 279.486C543.362 279.519 536.799 279.486 530.202 279.286C528.545 279.253 526.921 279.154 525.263 279.12C523.606 279.054 521.982 278.955 520.324 278.888C518.667 278.822 517.043 278.689 515.385 278.556C513.728 278.457 512.104 278.291 510.48 278.125C503.916 277.461 497.386 276.532 490.956 275.138C484.525 273.744 478.194 271.853 472.161 269.298C469.145 268.003 466.228 266.543 463.344 264.95C460.493 263.358 457.675 261.599 454.792 259.973C451.908 258.313 448.924 256.787 445.775 255.625C442.626 254.431 439.378 253.601 436.063 253.037C432.782 252.473 429.434 252.141 426.119 251.942L423.633 251.842C422.804 251.809 421.975 251.776 421.147 251.776L418.661 251.743L416.175 251.809L411.202 251.909C409.545 251.975 407.888 252.108 406.23 252.174L403.744 252.307L402.518 252.373L401.291 252.473L396.352 252.904L393.866 253.136L391.413 253.402L386.474 253.933C383.193 254.331 379.911 254.763 376.629 255.227C370.099 256.189 363.569 257.218 357.072 258.38C355.448 258.678 353.824 258.944 352.2 259.243L347.327 260.172C345.703 260.47 344.078 260.802 342.487 261.134C340.863 261.466 339.239 261.798 337.648 262.13C336.024 262.462 334.433 262.793 332.808 263.158L327.969 264.253C324.753 264.984 321.538 265.747 318.356 266.576L318.389 266.776C321.638 266.145 324.853 265.515 328.101 264.917L337.847 263.158C344.344 261.997 350.841 260.935 357.338 259.939C363.834 258.911 370.365 258.015 376.895 257.152L381.801 256.588C383.425 256.389 385.082 256.19 386.706 256.024L391.612 255.526L394.065 255.26L396.518 255.061L401.424 254.663L402.65 254.563L403.877 254.497L406.33 254.364C407.954 254.265 409.611 254.165 411.236 254.099L416.141 253.933L418.594 253.867H421.047C421.876 253.867 422.672 253.867 423.5 253.9L425.953 253.966C429.202 254.132 432.483 254.398 435.665 254.928C438.881 255.459 442.03 256.256 445.079 257.351C448.129 258.413 451.046 259.873 453.93 261.433C455.355 262.229 456.78 263.026 458.239 263.855C459.664 264.652 461.123 265.481 462.581 266.245C465.531 267.804 468.515 269.198 471.631 270.426C474.713 271.654 477.862 272.683 481.045 273.579L483.431 274.242L485.851 274.84C486.646 275.039 487.475 275.238 488.271 275.404L490.691 275.935C497.187 277.229 503.718 278.191 510.281 278.888L512.734 279.154C513.562 279.253 514.391 279.32 515.187 279.386C516.844 279.552 518.468 279.685 520.126 279.817C521.783 279.95 523.407 280.116 525.065 280.216C526.722 280.315 528.346 280.448 530.004 280.547C536.6 280.946 543.196 281.178 549.793 281.311C556.389 281.41 562.985 281.377 569.615 281.211L574.554 281.078C576.211 281.045 577.869 280.979 579.493 280.912C581.15 280.846 582.775 280.78 584.432 280.713L589.371 280.481C602.564 279.784 615.723 278.755 628.817 277.262L628.982 276.831Z" fill="#725B44"/>
<path d="M79.03 176.811C91.593 182.618 104.289 188.094 117.084 193.403L126.696 197.352L136.342 201.202C142.773 203.757 149.237 206.246 155.734 208.635C168.728 213.414 181.821 217.894 194.947 222.241C201.511 224.431 208.107 226.555 214.703 228.613C221.333 230.637 227.962 232.595 234.691 234.221C241.42 235.88 248.315 237.042 255.177 237.838C256.9 238.037 258.624 238.236 260.348 238.402L265.519 238.867L270.69 239.232C272.413 239.365 274.137 239.431 275.894 239.531C282.822 239.863 289.75 240.095 296.677 240.194C298.401 240.228 300.125 240.228 301.882 240.228C303.605 240.228 305.329 240.228 307.086 240.228L312.29 240.194L317.494 240.128C324.422 239.962 331.35 239.763 338.244 239.431C345.172 239.099 352.067 238.701 358.962 238.27C372.784 237.34 386.574 236.179 400.297 234.586L400.264 234.387L389.922 235.051L379.58 235.648C376.132 235.847 372.685 236.046 369.238 236.212L358.895 236.71C345.073 237.374 331.284 237.772 317.461 238.004C310.566 238.137 303.638 238.17 296.744 238.137C289.849 238.137 282.921 237.971 276.026 237.705C269.132 237.407 262.237 237.009 255.375 236.312L254.083 236.179L252.79 236.046L250.238 235.748C248.514 235.582 246.823 235.316 245.1 235.051C243.376 234.818 241.685 234.52 239.995 234.221C238.304 233.956 236.614 233.557 234.923 233.192C233.233 232.86 231.575 232.429 229.885 232.031C228.194 231.633 226.537 231.201 224.846 230.77C224.018 230.537 223.189 230.338 222.327 230.106L219.841 229.409C218.184 228.945 216.526 228.48 214.869 227.982C211.554 227.02 208.273 225.958 204.958 224.929C201.676 223.867 198.395 222.772 195.113 221.644C193.489 221.08 191.831 220.516 190.207 219.918L185.335 218.159C182.086 216.965 178.838 215.77 175.622 214.542C172.374 213.314 169.158 212.087 165.943 210.859L156.297 207.076C143.403 202.065 130.541 197.054 117.68 191.943L79.1295 176.578L79.03 176.811Z" fill="#725B44"/>
<path d="M522.678 252.937C522.81 253.07 522.943 253.17 523.109 253.269C523.241 253.369 523.407 253.468 523.539 253.568C523.838 253.767 524.136 253.966 524.434 254.132C524.733 254.298 525.031 254.497 525.363 254.63L526.324 255.094C526.655 255.26 526.954 255.393 527.285 255.526L528.28 255.924C528.611 256.057 528.943 256.156 529.274 256.256L530.268 256.588C530.434 256.654 530.6 256.687 530.766 256.754L531.263 256.886L532.29 257.152L533.318 257.384L534.346 257.55C535.042 257.65 535.738 257.782 536.434 257.882C537.13 257.948 537.826 258.015 538.522 258.081L539.583 258.181C539.948 258.214 540.279 258.214 540.644 258.214L542.765 258.28C543.461 258.313 544.157 258.247 544.887 258.247L547.008 258.147C549.792 257.948 552.61 257.583 555.328 257.019C556.024 256.886 556.687 256.754 557.383 256.588L559.405 256.057L561.427 255.493C562.09 255.293 562.786 255.128 563.449 254.895L567.427 253.601C568.753 253.203 570.079 252.705 571.371 252.174C573.957 251.112 576.443 249.785 578.797 248.325C581.15 246.831 583.437 245.205 585.625 243.446C587.813 241.688 589.868 239.796 591.857 237.805C593.812 235.814 595.669 233.69 597.426 231.5C600.939 227.152 604.121 222.507 607.005 217.728C609.856 212.916 612.408 207.938 614.695 202.828C616.983 197.717 619.005 192.54 620.629 187.197L620.43 187.131C619.866 188.392 619.303 189.686 618.739 190.947C618.176 192.208 617.546 193.469 616.983 194.73C615.789 197.219 614.563 199.708 613.303 202.164C610.751 207.075 608.099 211.92 605.215 216.633C603.79 218.989 602.298 221.312 600.773 223.602C599.249 225.891 597.658 228.148 595.967 230.338C594.277 232.528 592.553 234.652 590.73 236.71C588.907 238.767 586.984 240.758 584.962 242.617C582.94 244.475 580.785 246.234 578.465 247.727C576.145 249.254 573.725 250.548 571.139 251.544C568.587 252.539 565.836 253.103 563.184 253.8C562.521 253.966 561.825 254.099 561.162 254.232L559.14 254.63L557.118 255.028C556.422 255.128 555.759 255.227 555.063 255.327C552.345 255.791 549.627 256.09 546.875 256.322L544.82 256.455C544.124 256.488 543.461 256.555 542.765 256.521H540.71C540.378 256.521 540.014 256.521 539.682 256.521L538.655 256.455C537.959 256.422 537.296 256.389 536.6 256.355C535.904 256.289 535.241 256.223 534.544 256.123L533.517 256.024L532.522 255.858L531.495 255.692L530.998 255.592C530.832 255.559 530.666 255.526 530.5 255.493C529.838 255.327 529.175 255.194 528.512 254.995L527.517 254.696C527.186 254.597 526.854 254.497 526.523 254.364L525.561 254.032C525.23 253.9 524.932 253.767 524.6 253.634C523.97 253.369 523.341 253.07 522.777 252.705L522.678 252.937Z" fill="#725B44"/>
<path d="M330.388 369.119C328.2 366.597 326.112 364.075 324.189 361.42C323.228 360.093 322.3 358.765 321.471 357.372C320.642 355.978 319.847 354.584 319.117 353.124C318.388 351.697 317.791 350.204 317.361 348.644C316.963 347.084 316.764 345.458 316.996 343.865C317.195 342.272 317.825 340.746 318.753 339.385C319.217 338.688 319.681 337.991 320.145 337.328L321.537 335.237C322.001 334.54 322.432 333.843 322.896 333.146C323.327 332.449 323.791 331.753 324.222 331.022C325.084 329.596 325.913 328.169 326.708 326.708C328.332 323.821 329.89 320.868 331.349 317.881C332.078 316.388 332.774 314.894 333.47 313.368C334.166 311.875 334.829 310.348 335.459 308.822C336.752 305.769 337.978 302.682 339.072 299.53L338.907 299.43C337.216 302.284 335.625 305.204 334.067 308.125C332.509 311.045 330.984 313.965 329.459 316.919C327.968 319.872 326.543 322.859 325.051 325.812L320.609 334.673C320.211 335.403 319.847 336.133 319.449 336.863C319.051 337.593 318.62 338.29 318.222 339.02L317.593 340.148C317.493 340.314 317.394 340.547 317.327 340.713L317.095 341.31C316.797 342.106 316.565 342.936 316.399 343.766C315.803 347.117 316.366 350.635 317.659 353.821C318.289 355.414 319.117 356.907 320.012 358.334C320.94 359.761 321.935 361.121 323.029 362.383C323.559 363.013 324.123 363.644 324.719 364.274L325.581 365.17L326.476 366.033C327.703 367.194 328.962 368.289 330.321 369.252L330.388 369.119Z" fill="#725B44"/>
<path d="M786.036 369.285C787.594 370.314 789.218 371.21 790.876 372.039C791.704 372.471 792.533 372.869 793.395 373.267C794.224 373.665 795.085 374.063 795.947 374.429L798.533 375.524C799.395 375.889 800.257 376.187 801.118 376.552C801.98 376.884 802.842 377.249 803.737 377.548L806.356 378.477C808.112 379.108 809.902 379.639 811.659 380.203C813.416 380.767 815.239 381.265 816.996 381.762L819.681 382.526C820.576 382.758 821.471 382.99 822.399 383.189C823.294 383.422 824.189 383.621 825.117 383.853C826.012 384.052 826.907 384.285 827.835 384.484L833.305 385.579L834.664 385.844C835.128 385.944 835.592 386.01 836.023 386.077L838.774 386.541C840.597 386.84 842.42 387.205 844.277 387.47L849.779 388.333L852.53 388.798L855.282 389.229C857.105 389.528 858.961 389.793 860.784 390.092L871.756 391.917C879.048 393.211 886.341 394.506 893.667 395.733C897.313 396.397 900.959 397.028 904.605 397.691L915.544 399.682C930.129 402.271 944.714 404.926 959.299 407.614L959.332 407.415C952.172 405.423 944.979 403.698 937.72 402.072C930.494 400.446 923.201 398.986 915.909 397.592C908.616 396.231 901.291 395.037 893.965 393.875C890.286 393.311 886.639 392.747 882.96 392.249L877.457 391.519C875.601 391.287 873.778 391.021 871.922 390.822C864.563 389.926 857.204 389.03 849.912 387.669L844.442 386.641C842.619 386.276 840.829 385.844 839.006 385.446C835.393 384.65 831.813 383.72 828.2 382.858C826.41 382.426 824.62 381.928 822.83 381.464C821.935 381.231 821.04 381.032 820.145 380.767L817.46 380.037C815.67 379.572 813.88 379.074 812.123 378.543C810.367 378.012 808.577 377.548 806.82 376.951L804.168 376.121C803.273 375.855 802.411 375.524 801.549 375.258C800.687 374.959 799.792 374.661 798.931 374.362L796.312 373.433C795.45 373.134 794.588 372.769 793.726 372.437C792.865 372.106 792.003 371.74 791.141 371.409C789.45 370.712 787.727 369.949 786.102 369.119L786.036 369.285Z" fill="#725B44"/>
<path fill-rule="evenodd" clip-rule="evenodd" d="M102.125 137.713C102.956 139.379 103.789 140.941 104.611 142.382C117.932 165.739 149.424 179.103 178.525 162.463C201.352 149.41 207.682 123.312 203.993 103.271L179.556 96.5994L161.971 131.336L122.567 112.467L102.125 137.713Z" fill="#C1BF65"/>
<path fill-rule="evenodd" clip-rule="evenodd" d="M156.955 128.935L161.97 131.336L170.845 113.806C177.777 116.585 185.866 116.283 192.857 112.286C196.949 109.946 200.143 106.638 202.316 102.814L203.823 103.226C205.321 111.152 205.253 120.04 203.214 128.699C196.761 122.887 187.065 121.574 179.112 126.122C169.186 131.798 165.732 144.45 171.396 154.381C173.33 157.773 176.077 160.408 179.252 162.183C178.999 162.334 178.743 162.482 178.486 162.63C164.644 170.544 150.253 171.647 137.536 168.104C138.096 167.821 138.652 167.521 139.204 167.206C153.009 159.312 159.694 143.742 156.955 128.935Z" fill="#DDDD72"/>
<path fill-rule="evenodd" clip-rule="evenodd" d="M209.882 94.6027C209.381 95.7792 208.917 96.9233 208.492 98.0295C197.444 126.747 208.249 164.32 243.805 178.043C276.071 190.496 307.899 170.745 320.392 149.099L305.331 112.792L278.428 121.058L252.215 92.2918L228.263 101.697L209.882 94.6027Z" fill="#AA4F4F"/>
<path fill-rule="evenodd" clip-rule="evenodd" d="M252.726 92.8514L278.429 121.057L305.332 112.791L309.091 121.853C307.011 123.725 305.329 126.103 304.255 128.896C300.615 138.358 305.331 148.989 314.79 152.64C315.831 153.042 316.886 153.342 317.944 153.546C311.885 162.144 302.859 170.101 292.114 175.417C291.441 175.066 290.741 174.749 290.017 174.469C281.057 171.011 271.149 174.394 266.042 182.066C258.806 182.257 251.308 181.09 243.783 178.186C239.594 176.568 235.745 174.623 232.234 172.403C235.996 169.324 239.034 165.254 240.905 160.389C246.659 145.432 239.203 128.628 224.253 122.858C217.52 120.259 210.415 120.341 204.113 122.582C203.937 117.107 204.463 111.633 205.675 106.339C223.003 112.66 241.902 106.738 252.726 92.8514ZM258.477 139.428C251.459 136.719 247.959 128.832 250.66 121.811C253.361 114.79 261.239 111.294 268.257 114.003C275.275 116.712 278.774 124.599 276.073 131.62C273.373 138.64 265.494 142.136 258.477 139.428Z" fill="#C65959"/>
<path fill-rule="evenodd" clip-rule="evenodd" d="M163.641 120.031C164.004 122.133 164.404 124.12 164.831 125.971C171.748 155.956 201.865 180.972 239.228 172.316C267.568 165.751 283.015 140.737 286.307 118.135L252.956 103.387L240.75 120.828L189.791 96.9099L163.641 120.031Z" fill="#914A7A"/>
<path fill-rule="evenodd" clip-rule="evenodd" d="M163.897 119.804L189.791 96.9099L215.178 108.825C213.06 108.728 210.894 108.915 208.727 109.417C195.983 112.37 188.035 125.099 190.975 137.847C193.914 150.595 206.629 158.536 219.373 155.583C232.117 152.63 240.064 139.901 237.125 127.153C236.175 123.034 234.204 119.416 231.542 116.506L240.75 120.828L245.211 114.453C251.641 124.476 263.888 129.876 276.157 127.033C279.603 126.234 282.763 124.852 285.557 123.015C282.787 135.701 276.262 148.676 265.853 158.369C262.366 154.943 257.257 153.319 252.14 154.505C244.257 156.331 239.31 164.143 240.991 172.029C240.479 172.162 239.963 172.288 239.443 172.409C217.447 177.505 197.961 170.889 184.253 158.448C185.088 156.087 185.284 153.468 184.68 150.848C183.146 144.198 176.988 139.823 170.387 140.336C168.05 135.777 166.273 130.953 165.13 125.993C164.686 124.069 164.272 121.998 163.897 119.804Z" fill="#AD578D"/>
<path fill-rule="evenodd" clip-rule="evenodd" d="M220.614 128.19C215.118 156.709 229.755 189.687 264.478 199.665C301.341 210.258 334.131 181.918 341.188 157.266C341.825 155.039 342.433 152.435 342.979 149.53L322.748 149.769L278.029 122.107L220.614 128.19Z" fill="#64AD9B"/>
<path fill-rule="evenodd" clip-rule="evenodd" d="M264.483 199.662C262.281 199.03 260.16 198.304 258.12 197.494C263.262 194.536 267.304 189.651 269.066 183.494C272.666 170.916 265.392 157.791 252.819 154.177C241.693 150.979 230.146 156.301 225.141 166.284C222.719 160.957 221.076 155.333 220.21 149.62C219.186 142.731 219.29 135.716 220.522 128.938L246.77 126.157C245.659 127.533 244.8 129.15 244.283 130.958C242.213 138.19 246.395 145.737 253.625 147.815C260.855 149.893 268.393 145.715 270.463 138.483C272.014 133.063 270.054 127.466 265.931 124.127L273.193 123.357C276.63 130.681 283.089 136.54 291.47 138.949C295.972 140.243 300.531 140.398 304.838 139.585L322.532 150.53L342.693 150.292C342.183 152.91 341.623 155.271 341.038 157.315C339.695 162.007 337.422 166.833 334.369 171.5C312.949 166.564 291.188 179.217 285.067 200.604C284.954 200.999 284.847 201.394 284.746 201.789C278.233 202.273 271.43 201.659 264.483 199.662Z" fill="#72C7B4"/>
<path d="M58.1826 133.168C61.3366 130.377 66.7646 128.688 72.926 128.321C70.4321 122.593 72.1191 116.277 77.4004 113.193C82.0948 110.476 88.2563 111.137 92.9508 114.441L121.924 134.196L156.986 139.043L156.473 138.309C156.473 138.309 156.473 138.309 156.399 138.235L156.326 138.162C155.446 136.913 154.785 135.445 154.492 133.902C153.098 127.293 157.426 120.684 164.101 119.068C169.236 117.819 174.297 119.949 177.011 123.915L191.241 143.817L269.286 154.612L278.895 136.032C278.895 136.032 278.895 136.032 278.895 135.959L278.968 135.885C279.555 134.857 280.362 133.902 281.462 133.168C286.083 130.084 293.638 131.479 298.333 136.252C302 139.924 302.881 144.477 301.047 147.782L299.653 150.426L349.898 135.812L363.028 125.09C364.422 123.841 366.109 122.887 367.943 122.299C373.297 120.61 378.799 122.446 381.879 126.559C384.373 125.751 387.087 125.31 389.801 125.237C390.681 125.237 391.488 125.31 392.295 125.31C393.762 124.135 395.449 123.254 397.283 122.666C404.691 120.316 411.88 124.062 413.42 131.038C414.594 136.546 411.806 142.348 406.965 145.726L324.446 209.544C325.693 212.922 325.253 216.52 322.905 219.531C319.311 224.084 312.416 225.847 305.888 224.305L305.375 224.231C303.981 225.333 302.367 226.141 300.533 226.728C294.078 228.711 287.844 226.214 285.35 220.927C284.396 221.514 283.296 222.028 282.122 222.395C276.548 224.158 270.753 222.028 267.819 217.622L265.105 217.181L261.951 223.277C261.364 224.452 260.484 225.553 259.237 226.361C254.616 229.445 247.061 228.05 242.366 223.277C242.293 223.203 242.22 223.13 242.146 223.056C240.899 227.242 237.378 230.694 232.831 231.869C227.549 233.117 222.341 230.841 219.701 226.581L205.471 206.68L204.297 206.459C203.49 207.487 202.463 208.369 201.216 209.103C196.375 211.967 189.92 211.086 185.226 207.487L176.571 201.612L163.294 199.262H163.221H163.074C161.094 198.895 159.113 198.234 157.279 197.279C151.265 194.048 148.404 188.393 149.724 183.326L112.902 158.284L79.3075 153.657C79.2342 153.657 79.2342 153.657 79.1608 153.657L78.8674 153.584C75.7133 153.143 72.5593 152.409 69.5519 151.307C56.9356 146.901 51.9477 138.749 58.1826 133.168ZM278.528 194.122L291.951 183.179L283.223 182.004L277.061 193.901L278.528 194.122ZM213.833 175.615C215.08 175.101 216.4 174.587 217.72 174.22L220.728 173.339L211.265 172.017L213.833 175.615ZM183.392 176.129L177.084 167.317L168.722 166.142L183.392 176.129Z" fill="#DBDBDB"/>
<path d="M413.421 135.297C413.421 135.297 319.458 221.807 216.034 221.807C225.056 238.551 239.213 232.309 242.22 223.35C255.863 232.309 260.264 228.05 265.252 217.254C270.313 219.457 275.668 227.022 285.277 220.926C287.844 225.7 294.812 231.208 305.302 224.378C313.223 225.259 311.683 224.818 311.683 224.818C311.683 224.818 327.16 222.836 324.666 211.232C330.241 199.923 414.888 150.572 413.421 135.297Z" fill="#C1C1C1"/>
<path d="M812.854 324.936C771.327 322.307 739.777 286.512 742.386 244.985C744.995 203.458 780.774 171.924 822.302 174.553C863.829 177.181 895.379 212.976 892.77 254.504C890.162 296.031 854.382 327.564 812.854 324.936Z" fill="#AD578D"/>
<path d="M809.816 234.192C776.886 227.257 755.784 194.947 762.685 162.027C769.585 129.106 801.875 108.04 834.805 114.975C867.736 121.91 888.838 154.219 881.937 187.14C875.037 220.061 842.747 241.127 809.816 234.192Z" fill="#AD578D"/>
<path d="M727.992 283.058C721.652 282.657 716.835 277.192 717.234 270.852C717.632 264.512 723.094 259.697 729.434 260.098C735.774 260.5 740.591 265.965 740.193 272.305C739.794 278.645 734.332 283.459 727.992 283.058Z" fill="#AD578D"/>
<path fill-rule="evenodd" clip-rule="evenodd" d="M750.053 216.358L719.866 264.233L732.41 281.918C732.413 281.873 745.68 285.949 750.053 216.358Z" fill="#AD578D"/>
<path d="M902.275 294.06C895.935 293.659 891.118 288.194 891.517 281.854C891.915 275.514 897.378 270.699 903.718 271.101C910.058 271.502 914.874 276.967 914.476 283.307C914.078 289.647 908.615 294.461 902.275 294.06Z" fill="#AD578D"/>
<path fill-rule="evenodd" clip-rule="evenodd" d="M888.745 225.109L912.7 276.41L898.041 292.374C898.044 292.329 884.372 294.7 888.745 225.109Z" fill="#AD578D"/>
<path d="M817.513 209.779C814.724 209.369 812.794 206.776 813.201 203.988C813.609 201.199 816.2 199.272 818.989 199.682C821.778 200.092 823.709 202.684 823.301 205.473C822.893 208.261 820.302 210.189 817.513 209.779Z" fill="#DDDD72"/>
<path d="M818.676 199.291C813.3 198.501 809.579 193.503 810.365 188.128C811.151 182.753 816.146 179.037 821.522 179.827C826.898 180.618 830.619 185.616 829.833 190.991C829.047 196.365 824.051 200.082 818.676 199.291Z" fill="#DDDD72"/>
<path fill-rule="evenodd" clip-rule="evenodd" d="M813.096 204.716L810.36 190.709L829.096 193.464L823.195 206.2L813.096 204.716Z" fill="#DDDD72"/>
<path d="M848.544 180.355C842.978 179.537 839.127 174.359 839.942 168.789C840.757 163.219 845.93 159.367 851.495 160.185C857.061 161.003 860.912 166.181 860.097 171.751C859.282 177.321 854.109 181.173 848.544 180.355Z" fill="#2D2D2D"/>
<path d="M792.569 172.138C787.004 171.32 783.153 166.142 783.968 160.572C784.783 155.002 789.955 151.15 795.52 151.968C801.086 152.786 804.937 157.964 804.122 163.534C803.307 169.104 798.135 172.956 792.569 172.138Z" fill="#2D2D2D"/>
<path fill-rule="evenodd" clip-rule="evenodd" d="M878.155 173.287C879.129 157.789 874.191 143.247 865.328 131.915C877.124 143.832 884.007 160.58 882.872 178.639C880.762 212.239 851.811 237.712 818.254 235.588C800.196 234.445 784.444 225.514 774.102 212.314C784.23 222.574 798.039 229.255 813.537 230.236C847.091 232.404 876.044 206.887 878.155 173.287Z" fill="#914A7A"/>
<path fill-rule="evenodd" clip-rule="evenodd" d="M888.252 249.43C889.481 229.871 883.137 211.605 871.744 197.497C885.938 212.181 894.1 232.557 892.718 254.545C890.111 296.048 854.35 327.607 812.802 324.977C790.814 323.585 771.627 312.885 758.839 297.004C771.449 310.081 788.774 318.669 808.289 319.904C849.884 322.492 885.645 290.934 888.252 249.43Z" fill="#914A7A"/>
<path d="M846.341 167.069C845.297 167.184 844.357 166.431 844.242 165.386C844.127 164.342 844.88 163.402 845.924 163.286C846.968 163.171 847.908 163.925 848.023 164.969C848.138 166.014 847.385 166.954 846.341 167.069Z" fill="white"/>
<path d="M790.366 158.851C789.322 158.966 788.382 158.212 788.267 157.168C788.152 156.123 788.905 155.183 789.949 155.068C790.993 154.953 791.933 155.706 792.048 156.751C792.163 157.796 791.41 158.736 790.366 158.851Z" fill="white"/>
<path d="M80.2627 173.574C46.7464 173.574 19.5761 146.394 19.5761 112.867C19.5761 79.3388 46.7464 52.1592 80.2627 52.1592C113.779 52.1592 140.949 79.3388 140.949 112.867C140.949 146.394 113.779 173.574 80.2627 173.574Z" fill="#DDDD72"/>
<path d="M92.6337 99.6381C66.4041 106.5 39.6023 90.8048 32.77 64.5824C25.9377 38.3601 41.6624 11.5403 67.8919 4.6787C94.1215 -2.18292 120.923 13.512 127.756 39.7343C134.588 65.9566 118.863 92.7765 92.6337 99.6381Z" fill="#DDDD72"/>
<path d="M9.91852 144.164C4.80156 144.164 0.653442 140.015 0.653442 134.896C0.653442 129.777 4.80156 125.628 9.91852 125.628C15.0355 125.628 19.1836 129.777 19.1836 134.896C19.1836 140.015 15.0355 144.164 9.91852 144.164Z" fill="#DDDD72"/>
<path fill-rule="evenodd" clip-rule="evenodd" d="M24.2793 89.4106L2.43481 129.443L13.4105 143.024C13.4105 143.024 24.2793 145.626 24.2793 89.4106Z" fill="#DDDD72"/>
<path d="M150.606 144.165C145.489 144.165 141.341 140.016 141.341 134.897C141.341 129.778 145.489 125.629 150.606 125.629C155.723 125.629 159.871 129.778 159.871 134.897C159.871 140.016 155.723 144.165 150.606 144.165Z" fill="#DDDD72"/>
<path fill-rule="evenodd" clip-rule="evenodd" d="M136.245 89.4106L158.09 129.443L147.114 143.024C147.114 143.024 136.245 145.626 136.245 89.4106Z" fill="#DDDD72"/>
<path d="M88.3656 83.2337C85.4703 83.9911 82.5118 82.2586 81.7576 79.364C81.0034 76.4695 82.7391 73.509 85.6345 72.7515C88.5298 71.9941 91.4883 73.7266 92.2425 76.6212C92.9967 79.5157 91.2609 82.4762 88.3656 83.2337Z" fill="#C65959"/>
<path d="M85.1513 72.4667C79.5701 73.9267 73.8672 70.5871 72.4135 65.0074C70.9597 59.4278 74.3055 53.721 79.8867 52.261C85.4678 50.801 91.1707 54.1406 92.6245 59.7203C94.0783 65.2999 90.7324 71.0067 85.1513 72.4667Z" fill="#C65959"/>
<path fill-rule="evenodd" clip-rule="evenodd" d="M81.9438 80.0852L73.4788 67.5318L92.9297 62.4436L92.428 77.3426L81.9438 80.0852Z" fill="#C65959"/>
<path fill-rule="evenodd" clip-rule="evenodd" d="M125.092 48.3092C125.092 35.797 120.388 24.3542 112.691 15.6919C122.776 24.675 129.154 37.7932 129.154 52.373C129.154 79.5005 107.167 101.459 80.0848 101.459C65.5101 101.459 52.3964 95.0784 43.4163 84.9902C52.0756 92.7257 63.5145 97.3955 76.0224 97.3955C103.105 97.3955 125.092 75.4011 125.092 48.3092Z" fill="#C1BF65"/>
<path fill-rule="evenodd" clip-rule="evenodd" d="M137.065 108.981C137.065 93.189 131.043 78.8231 121.172 68.0576C133.324 79.1439 140.914 95.1139 140.914 112.866C140.914 146.375 113.76 173.574 80.2275 173.574C62.4812 173.574 46.5167 165.945 35.4342 153.825C46.2316 163.699 60.5926 169.724 76.3433 169.724C109.912 169.688 137.065 142.525 137.065 108.981Z" fill="#C1BF65"/>
<path d="M621.864 211.673L640.834 231.851V206.134L621.864 211.673Z" fill="#72C7B4"/>
<path d="M572.233 267.036C536.015 266.807 506.839 237.253 507.065 201.024C507.291 164.796 536.835 135.612 573.053 135.84C609.271 136.069 638.447 165.623 638.221 201.851C637.995 238.08 608.451 267.264 572.233 267.036Z" fill="#72C7B4"/>
<path d="M579.258 188.543C550.17 191.989 523.81 171.203 520.383 142.117C516.955 113.03 537.757 86.6574 566.845 83.2113C595.933 79.7653 622.292 100.551 625.72 129.637C629.148 158.724 608.346 185.097 579.258 188.543Z" fill="#72C7B4"/>
<path d="M648.443 235.774C642.914 235.739 638.459 231.227 638.494 225.696C638.528 220.165 643.039 215.709 648.568 215.744C654.098 215.779 658.552 220.291 658.517 225.822C658.483 231.353 653.972 235.809 648.443 235.774Z" fill="#72C7B4"/>
<path fill-rule="evenodd" clip-rule="evenodd" d="M633.293 176.511L656.628 219.917L644.676 234.518C644.676 234.479 632.913 237.217 633.293 176.511Z" fill="#72C7B4"/>
<path d="M577.113 170.304C573.902 170.685 570.992 168.39 570.614 165.18C570.236 161.969 572.532 159.058 575.743 158.677C578.954 158.297 581.863 160.591 582.242 163.802C582.62 167.013 580.324 169.924 577.113 170.304Z" fill="#DDDD72"/>
<path d="M575.274 158.341C569.085 159.074 563.476 154.651 562.747 148.462C562.017 142.273 566.443 136.662 572.633 135.928C578.822 135.195 584.431 139.618 585.16 145.807C585.89 151.996 581.464 157.608 575.274 158.341Z" fill="#DDDD72"/>
<path fill-rule="evenodd" clip-rule="evenodd" d="M570.713 166.019L563.513 151.322L585.084 148.766L582.34 164.641L570.713 166.019Z" fill="#DDDD72"/>
<path fill-rule="evenodd" clip-rule="evenodd" d="M603.513 129.472C601.68 127.019 598.626 125.584 595.367 125.97C592.108 126.355 589.472 128.464 588.26 131.279C587.358 130.071 586.751 128.616 586.562 127.011C585.988 122.143 589.464 117.731 594.327 117.155C599.19 116.58 603.597 120.059 604.171 124.926C604.361 126.531 604.109 128.087 603.513 129.472Z" fill="#2D2D2D"/>
<path fill-rule="evenodd" clip-rule="evenodd" d="M554.603 135.258C552.77 132.805 549.716 131.37 546.457 131.755C543.198 132.141 540.562 134.25 539.35 137.065C538.448 135.857 537.841 134.402 537.652 132.796C537.078 127.929 540.554 123.517 545.417 122.941C550.28 122.366 554.687 125.845 555.261 130.712C555.45 132.317 555.199 133.873 554.603 135.258Z" fill="#2D2D2D"/>
<path fill-rule="evenodd" clip-rule="evenodd" d="M621.523 131.984C621.607 118.464 616.602 106.067 608.342 96.6549C619.179 106.43 625.984 120.649 625.885 136.403C625.702 165.716 601.795 189.294 572.529 189.109C556.78 189.01 542.652 182.026 533.016 171.064C542.321 179.481 554.651 184.605 568.167 184.69C597.432 184.913 621.34 161.297 621.523 131.984Z" fill="#64AD9B"/>
<path fill-rule="evenodd" clip-rule="evenodd" d="M634.049 197.664C634.156 180.601 627.745 165.036 617.151 153.336C630.207 165.399 638.302 182.707 638.182 201.889C637.956 238.097 608.429 267.302 572.194 267.073C553.017 266.953 535.817 258.601 523.923 245.429C535.525 256.172 551.002 262.78 568.023 262.887C604.297 263.077 633.823 233.872 634.049 197.664Z" fill="#64AD9B"/>
<ellipse rx="9.8801" ry="9.89127" transform="matrix(-1 0 0 1 491.446 161.821)" fill="#72C7B4"/>
<path d="M508.44 212.86L482.357 166.173L496.189 153.117L519.506 166.173L508.44 212.86Z" fill="#72C7B4"/>
<path d="M52.203 62.1488C57.4343 60.554 60.3856 55.0175 58.7949 49.7826C57.2043 44.5477 51.674 41.5968 46.4428 43.1916C41.2115 44.7863 38.2602 50.3228 39.8508 55.5577C41.4415 60.7926 46.9717 63.7435 52.203 62.1488Z" fill="#2D2D2D"/>
<path d="M104.814 46.1156C110.046 44.5208 112.997 38.9843 111.406 33.7494C109.816 28.5145 104.285 25.5636 99.0541 27.1583C93.8228 28.7531 90.8715 34.2896 92.4622 39.5245C94.0528 44.7594 99.5831 47.7103 104.814 46.1156Z" fill="#2D2D2D"/>
<path d="M52.3939 49.0551C53.4142 49.0141 54.2082 48.1535 54.1673 47.1329C54.1265 46.1122 53.2662 45.318 52.2459 45.359C51.2256 45.3999 50.4316 46.2605 50.4724 47.2812C50.5133 48.3018 51.3736 49.096 52.3939 49.0551Z" fill="white"/>
<path d="M105.005 33.0258C106.026 32.9848 106.82 32.1242 106.779 31.1036C106.738 30.0829 105.878 29.2887 104.857 29.3297C103.837 29.3706 103.043 30.2312 103.084 31.2519C103.125 32.2725 103.985 33.0667 105.005 33.0258Z" fill="white"/>
<path d="M74.6712 35.3964L66.0332 41.001L71.9216 49.2164L78.2898 44.4744L86.2071 45.0388L86.5737 34.9941L76.4584 34.8738L74.6712 35.3964Z" fill="#DD511C"/>
<path fill-rule="evenodd" clip-rule="evenodd" d="M55.1518 28.112C60.7086 26.487 66.5601 29.7855 68.2214 35.4794L73.0345 51.975C74.6958 57.6689 71.5379 63.6021 65.9811 65.2271L42.057 72.2234C36.5002 73.8485 30.6487 70.55 28.9873 64.8561L24.1743 48.3605C22.513 42.6665 25.6709 36.7334 31.2277 35.1083L55.1518 28.112ZM53.6743 30.5334C59.2311 28.9083 65.0826 32.2068 66.7439 37.9007L70.5542 50.9598C72.2156 56.6537 69.0577 62.5868 63.5008 64.2119L43.6014 70.0312C38.0446 71.6562 32.1931 68.3578 30.5317 62.6638L26.7214 49.6048C25.0601 43.9109 28.218 37.9777 33.7748 36.3527L53.6743 30.5334Z" fill="#DD511C"/>
<path fill-rule="evenodd" clip-rule="evenodd" d="M112.614 11.3078C118.171 9.68282 124.023 12.9813 125.684 18.6752L130.497 35.1708C132.158 40.8647 129 46.7979 123.444 48.4229L99.5195 55.4192C93.9626 57.0443 88.1112 53.7458 86.4498 48.0519L81.6368 31.5563C79.9755 25.8623 83.1334 19.9292 88.6902 18.3041L112.614 11.3078ZM111.137 13.7292C116.694 12.1041 122.545 15.4026 124.206 21.0965L128.017 34.1556C129.678 39.8495 126.52 45.7827 120.963 47.4077L101.064 53.227C95.507 54.8521 89.6555 51.5536 87.9942 45.8596L84.1839 32.8006C82.5225 27.1067 85.6805 21.1735 91.2373 19.5485L111.137 13.7292Z" fill="#DD511C"/>
<path d="M124.207 21.0966C122.546 15.4027 116.695 12.1042 111.138 13.7292L91.2382 19.5486C85.6814 21.1736 82.5235 27.1068 84.1849 32.8007L87.9952 45.8597C89.6565 51.5536 95.508 54.8521 101.065 53.2271L120.964 47.4077C126.521 45.7827 129.679 39.8495 128.018 34.1556L124.207 21.0966Z" fill="#321F2B" fill-opacity="0.8"/>
<path d="M66.7449 37.9008C65.0835 32.2069 59.232 28.9084 53.6752 30.5334L33.7758 36.3528C28.2189 37.9778 25.061 43.911 26.7224 49.6049L30.5327 62.6639C32.194 68.3578 38.0455 71.6563 43.6023 70.0313L63.5018 64.2119C69.0586 62.5869 72.2165 56.6537 70.5552 50.9598L66.7449 37.9008Z" fill="#321F2B" fill-opacity="0.8"/>
</svg>
