<svg width="1074" height="546" viewBox="0 0 1074 546" fill="none" xmlns="http://www.w3.org/2000/svg">
<path fill-rule="evenodd" clip-rule="evenodd" d="M-150.649 544.885L357.434 409.939L627.561 356.325L1052.76 245.01L1036.29 185.165L601.54 259.617L317.572 296.035L-178.977 406.905L-150.649 544.885Z" fill="#8E7252"/>
<path fill-rule="evenodd" clip-rule="evenodd" d="M642.453 337.711L701.963 400.4L779.002 463.089L758.112 489.742L683.746 419.813L582.498 347.135" fill="#8E7252"/>
<path d="M767.546 492.613C776.936 492.613 784.549 485.008 784.549 475.627C784.549 466.245 776.936 458.64 767.546 458.64C758.155 458.64 750.543 466.245 750.543 475.627C750.543 485.008 758.155 492.613 767.546 492.613Z" fill="#8E7252"/>
<path d="M651.764 500.702C656.907 500.702 661.075 496.537 661.075 491.4C661.075 486.263 656.907 482.098 651.764 482.098C646.622 482.098 642.453 486.263 642.453 491.4C642.453 496.537 646.622 500.702 651.764 500.702Z" fill="#8E7252"/>
<path d="M1042.83 246.711C1060.04 246.711 1074 232.768 1074 215.569C1074 198.369 1060.04 184.427 1042.83 184.427C1025.61 184.427 1011.66 198.369 1011.66 215.569C1011.66 232.768 1025.61 246.711 1042.83 246.711Z" fill="#8E7252"/>
<path d="M341.26 412.129C373.456 412.129 399.555 386.054 399.555 353.889C399.555 321.724 373.456 295.649 341.26 295.649C309.065 295.649 282.965 321.724 282.965 353.889C282.965 386.054 309.065 412.129 341.26 412.129Z" fill="#8E7252"/>
<path d="M614.115 358.338C641.839 358.338 664.313 335.884 664.313 308.187C664.313 280.489 641.839 258.036 614.115 258.036C586.391 258.036 563.916 280.489 563.916 308.187C563.916 335.884 586.391 358.338 614.115 358.338Z" fill="#8E7252"/>
<path d="M168.4 14.56C172.425 14.56 175.687 11.3006 175.687 7.28C175.687 3.25937 172.425 0 168.4 0C164.376 0 161.113 3.25937 161.113 7.28C161.113 11.3006 164.376 14.56 168.4 14.56Z" fill="#8E7252"/>
<path d="M148.158 147.218C155.312 147.218 161.112 141.423 161.112 134.276C161.112 127.128 155.312 121.333 148.158 121.333C141.003 121.333 135.203 127.128 135.203 134.276C135.203 141.423 141.003 147.218 148.158 147.218Z" fill="#8E7252"/>
<path d="M692.246 423.049C699.624 423.049 705.605 417.073 705.605 409.702C705.605 402.331 699.624 396.355 692.246 396.355C684.868 396.355 678.887 402.331 678.887 409.702C678.887 417.073 684.868 423.049 692.246 423.049Z" fill="#8E7252"/>
<path fill-rule="evenodd" clip-rule="evenodd" d="M659.456 496.658L704.27 415.526L680.75 402.867L643.91 486.425L659.456 496.658Z" fill="#8E7252"/>
<path fill-rule="evenodd" clip-rule="evenodd" d="M303.208 154.498L380.935 308.187L341.262 327.195L273.777 176.135L146.418 147.096L-12.9629 104.387L-10.9387 95.4489L152.774 122.183L291.994 148.269L303.208 154.498Z" fill="#8E7252"/>
<path d="M289.038 184.427C299.099 184.427 307.255 176.278 307.255 166.227C307.255 156.175 299.099 148.027 289.038 148.027C278.976 148.027 270.82 156.175 270.82 166.227C270.82 176.278 278.976 184.427 289.038 184.427Z" fill="#8E7252"/>
<path fill-rule="evenodd" clip-rule="evenodd" d="M162.854 11.9716L273.777 176.136L303.208 154.498L174.836 3.84222L162.854 11.9716Z" fill="#8E7252"/>
<path d="M-93.2012 475.546C-89.6387 471.218 -85.7928 467.174 -81.866 463.21C-77.9391 459.247 -73.8504 455.405 -69.6806 451.724C-61.3007 444.323 -52.435 437.447 -43.2049 431.138C-38.5494 428.024 -33.8533 424.99 -28.9954 422.2C-24.1375 419.409 -19.1986 416.74 -14.1787 414.313C-4.09847 409.379 6.38658 405.294 17.1955 402.261C28.0044 399.227 39.0967 397.205 50.27 396.356C53.0633 396.154 55.8566 395.992 58.6499 395.951L59.7025 395.911H60.755H62.8601L67.0298 395.87L75.4098 395.79L79.5795 395.749C80.9559 395.709 82.3728 395.749 83.7493 395.668L100.469 394.94L104.638 394.738C106.015 394.657 107.432 394.576 108.808 394.495L117.148 393.929C122.694 393.525 128.28 393.242 133.827 392.756L150.505 391.381C153.299 391.138 156.052 390.936 158.845 390.653L167.184 389.885C172.73 389.359 178.277 388.874 183.863 388.348L217.181 385.153C239.365 382.969 261.59 380.663 283.775 378.398L416.963 364.769L417.004 365.011C372.756 371.038 328.427 376.214 284.058 380.987C278.512 381.594 272.966 382.16 267.42 382.686L250.781 384.344C239.689 385.436 228.556 386.406 217.464 387.458C206.331 388.429 195.239 389.399 184.106 390.289C178.56 390.734 172.973 391.138 167.427 391.543L159.088 392.15C156.294 392.352 153.501 392.514 150.748 392.716L134.029 393.808L129.859 394.091L125.689 394.334L117.35 394.819L109.011 395.304C107.634 395.385 106.217 395.466 104.841 395.547L100.671 395.709L83.7897 396.356L67.0298 396.801L62.8601 396.922L60.7955 396.962L59.7429 397.003L58.6904 397.043C55.8971 397.165 53.1442 397.367 50.3914 397.65C39.3396 398.742 28.4092 400.966 17.8027 404.162C-3.49123 410.511 -23.5707 420.461 -42.1118 432.715C-46.7269 435.789 -51.3014 438.984 -55.7546 442.301C-60.2077 445.658 -64.5393 449.095 -68.8305 452.695C-77.3319 459.894 -85.5094 467.457 -92.9988 475.708L-93.2012 475.546Z" fill="#725B44"/>
<path d="M307.053 337.388C339.237 339.248 371.38 340.542 403.564 340.623C411.62 340.664 419.635 340.623 427.692 340.38C429.716 340.34 431.699 340.219 433.724 340.178C435.748 340.097 437.731 339.976 439.755 339.895C441.78 339.814 443.763 339.652 445.787 339.491C447.812 339.369 449.795 339.167 451.779 338.965C459.794 338.156 467.77 337.024 475.623 335.325C483.477 333.626 491.209 331.321 498.577 328.207C502.261 326.629 505.823 324.85 509.345 322.908C512.827 320.967 516.268 318.824 519.79 316.842C523.312 314.82 526.955 312.959 530.801 311.544C534.647 310.088 538.615 309.076 542.663 308.389C546.671 307.701 550.759 307.297 554.808 307.054L557.844 306.933C558.856 306.892 559.868 306.852 560.88 306.852L563.916 306.812L566.952 306.892L573.025 307.014C575.049 307.095 577.073 307.256 579.097 307.337L582.134 307.499L583.631 307.58L585.129 307.701L591.161 308.227L594.197 308.51L597.193 308.834L603.225 309.481C607.233 309.966 611.241 310.492 615.249 311.058C623.224 312.231 631.199 313.485 639.133 314.9C641.117 315.264 643.101 315.588 645.084 315.952L651.035 317.084C653.019 317.448 655.003 317.853 656.946 318.257C658.93 318.662 660.913 319.066 662.856 319.471C664.84 319.875 666.783 320.28 668.767 320.724L674.677 322.059C678.604 322.949 682.531 323.879 686.417 324.89L686.377 325.133C682.41 324.364 678.483 323.596 674.515 322.868L662.613 320.724C654.679 319.309 646.744 318.015 638.81 316.801C630.875 315.548 622.9 314.456 614.925 313.404L608.933 312.716C606.949 312.474 604.925 312.231 602.942 312.029L596.95 311.422L593.955 311.099L590.959 310.856L584.967 310.371L583.47 310.249L581.972 310.168L578.976 310.007C576.992 309.885 574.968 309.764 572.984 309.683L566.993 309.481L563.997 309.4H561.002C559.989 309.4 559.018 309.4 558.006 309.44L555.01 309.521C551.043 309.724 547.035 310.047 543.149 310.694C539.222 311.341 535.376 312.312 531.651 313.647C527.927 314.941 524.365 316.72 520.843 318.621C519.102 319.592 517.361 320.563 515.58 321.574C513.839 322.544 512.058 323.556 510.277 324.486C506.674 326.387 503.03 328.085 499.225 329.582C495.46 331.078 491.614 332.332 487.728 333.424L484.813 334.233L481.858 334.961C480.886 335.204 479.874 335.446 478.902 335.648L475.947 336.296C468.012 337.873 460.037 339.046 452.022 339.895L449.026 340.219C448.014 340.34 447.002 340.421 446.03 340.502C444.006 340.704 442.022 340.866 439.998 341.028C437.974 341.189 435.991 341.392 433.966 341.513C431.942 341.634 429.959 341.796 427.934 341.917C419.878 342.403 411.822 342.686 403.766 342.848C395.71 342.969 387.654 342.928 379.557 342.726L373.526 342.564C371.501 342.524 369.477 342.443 367.494 342.362C365.469 342.281 363.486 342.2 361.462 342.12L355.43 341.836C339.318 340.987 323.246 339.733 307.255 337.913L307.053 337.388Z" fill="#725B44"/>
<path d="M978.703 215.488C963.36 222.566 947.855 229.239 932.229 235.71L920.489 240.523L908.708 245.215C900.855 248.329 892.961 251.362 885.026 254.274C869.157 260.098 853.166 265.558 837.135 270.857C829.119 273.526 821.063 276.114 813.007 278.622C804.91 281.089 796.814 283.475 788.596 285.457C780.378 287.479 771.957 288.895 763.577 289.865C761.472 290.108 759.367 290.351 757.262 290.553L750.947 291.119L744.632 291.564C742.526 291.726 740.421 291.807 738.276 291.928C729.815 292.332 721.354 292.616 712.893 292.737C710.788 292.777 708.683 292.777 706.537 292.777C704.432 292.777 702.327 292.777 700.181 292.777L693.826 292.737L687.47 292.656C679.009 292.454 670.548 292.211 662.128 291.807C653.667 291.402 645.246 290.917 636.826 290.391C619.945 289.259 603.104 287.843 586.344 285.902L586.384 285.659L599.015 286.468L611.645 287.196C615.856 287.439 620.066 287.681 624.276 287.884L636.907 288.49C653.788 289.299 670.629 289.784 687.51 290.068C695.931 290.229 704.392 290.27 712.812 290.229C721.232 290.229 729.693 290.027 738.114 289.704C746.534 289.34 754.955 288.854 763.335 288.005L764.913 287.843L766.492 287.681L769.609 287.317C771.715 287.115 773.779 286.792 775.884 286.468C777.989 286.185 780.054 285.821 782.119 285.457C784.183 285.133 786.248 284.648 788.313 284.203C790.377 283.799 792.401 283.273 794.466 282.788C796.531 282.302 798.555 281.777 800.619 281.251C801.631 280.968 802.643 280.725 803.696 280.442L806.732 279.592C808.756 279.026 810.78 278.46 812.805 277.853C816.853 276.68 820.861 275.386 824.909 274.132C828.917 272.838 832.925 271.504 836.932 270.129C838.916 269.441 840.94 268.753 842.924 268.025L848.875 265.882C852.842 264.426 856.809 262.97 860.736 261.473C864.704 259.977 868.63 258.481 872.557 256.984L884.338 252.373C900.086 246.266 915.793 240.159 931.5 233.931L978.582 215.205L978.703 215.488Z" fill="#725B44"/>
<path d="M436.881 308.267C436.719 308.429 436.557 308.551 436.354 308.672C436.193 308.793 435.99 308.915 435.828 309.036C435.464 309.279 435.099 309.521 434.735 309.723C434.371 309.926 434.006 310.168 433.602 310.33L432.428 310.896C432.023 311.099 431.658 311.26 431.254 311.422L430.039 311.907C429.634 312.069 429.229 312.191 428.825 312.312L427.61 312.716C427.408 312.797 427.205 312.838 427.003 312.919L426.396 313.08L425.141 313.404L423.886 313.687L422.631 313.889C421.781 314.011 420.93 314.172 420.08 314.294C419.23 314.375 418.38 314.455 417.53 314.536L416.234 314.658C415.789 314.698 415.384 314.698 414.939 314.698L412.348 314.779C411.498 314.819 410.648 314.739 409.757 314.739L407.166 314.617C403.766 314.375 400.325 313.93 397.005 313.242C396.155 313.08 395.345 312.919 394.495 312.716L392.026 312.069L389.556 311.382C388.747 311.139 387.896 310.937 387.087 310.654L382.229 309.076C380.61 308.591 378.99 307.984 377.411 307.337C374.254 306.043 371.218 304.425 368.343 302.646C365.469 300.826 362.676 298.844 360.004 296.7C357.332 294.557 354.822 292.251 352.393 289.825C350.005 287.398 347.737 284.81 345.592 282.14C341.301 276.842 337.414 271.18 333.892 265.356C330.411 259.491 327.294 253.425 324.5 247.196C321.707 240.968 319.238 234.659 317.254 228.147L317.497 228.066C318.185 229.603 318.873 231.18 319.561 232.717C320.25 234.254 321.019 235.791 321.707 237.328C323.164 240.361 324.662 243.395 326.201 246.387C329.318 252.373 332.556 258.278 336.078 264.021C337.819 266.893 339.641 269.724 341.503 272.515C343.365 275.305 345.309 278.055 347.373 280.725C349.438 283.394 351.543 285.983 353.769 288.49C355.996 290.998 358.344 293.424 360.813 295.689C363.283 297.954 365.914 300.098 368.748 301.918C371.582 303.778 374.537 305.355 377.695 306.569C380.812 307.782 384.172 308.47 387.411 309.319C388.22 309.521 389.07 309.683 389.88 309.845L392.35 310.33L394.819 310.815C395.669 310.937 396.479 311.058 397.329 311.179C400.649 311.746 403.968 312.11 407.328 312.393L409.838 312.555C410.688 312.595 411.498 312.676 412.348 312.635H414.858C415.263 312.635 415.708 312.635 416.113 312.635L417.368 312.555C418.218 312.514 419.028 312.474 419.878 312.433C420.728 312.352 421.538 312.271 422.388 312.15L423.643 312.029L424.857 311.827L426.112 311.624L426.719 311.503C426.922 311.463 427.124 311.422 427.327 311.382C428.136 311.179 428.946 311.018 429.756 310.775L430.97 310.411C431.375 310.29 431.78 310.168 432.185 310.007L433.359 309.602C433.764 309.44 434.128 309.279 434.533 309.117C435.302 308.793 436.071 308.429 436.759 307.984L436.881 308.267Z" fill="#725B44"/>
<path d="M671.724 449.864C674.396 446.79 676.946 443.716 679.294 440.481C680.468 438.863 681.601 437.245 682.614 435.547C683.626 433.848 684.597 432.149 685.488 430.37C686.378 428.631 687.107 426.811 687.633 424.91C688.119 423.009 688.362 421.027 688.079 419.086C687.836 417.144 687.067 415.284 685.933 413.626C685.366 412.776 684.8 411.927 684.233 411.118L682.533 408.57C681.966 407.721 681.44 406.872 680.873 406.022C680.346 405.173 679.78 404.324 679.253 403.434C678.201 401.695 677.189 399.956 676.217 398.176C674.234 394.657 672.331 391.058 670.55 387.418C669.659 385.598 668.809 383.778 667.959 381.917C667.109 380.097 666.299 378.237 665.53 376.376C663.951 372.656 662.453 368.894 661.117 365.052L661.32 364.931C663.384 368.409 665.327 371.968 667.23 375.527C669.133 379.086 670.995 382.645 672.857 386.245C674.679 389.844 676.42 393.484 678.241 397.084L683.666 407.883C684.152 408.772 684.597 409.662 685.083 410.552C685.569 411.442 686.095 412.291 686.581 413.181L687.35 414.556C687.471 414.758 687.593 415.041 687.674 415.244L687.957 415.972C688.322 416.942 688.605 417.953 688.807 418.964C689.536 423.049 688.848 427.336 687.269 431.219C686.5 433.16 685.488 434.981 684.395 436.72C683.261 438.459 682.047 440.117 680.711 441.654C680.063 442.422 679.375 443.191 678.646 443.959L677.594 445.051L676.501 446.103C675.003 447.518 673.464 448.853 671.805 450.026L671.724 449.864Z" fill="#725B44"/>
<path d="M115.246 450.066C113.343 451.32 111.359 452.412 109.335 453.423C108.323 453.949 107.311 454.434 106.259 454.919C105.247 455.405 104.194 455.89 103.141 456.335L99.9838 457.669C98.9312 458.114 97.8787 458.478 96.8261 458.923C95.7736 459.328 94.721 459.773 93.628 460.137L90.4298 461.269C88.2842 462.037 86.0982 462.685 83.9526 463.372C81.807 464.06 79.5804 464.666 77.4348 465.273L74.1557 466.203C73.0627 466.486 71.9697 466.769 70.8361 467.012C69.7431 467.295 68.6501 467.538 67.5165 467.821C66.4235 468.064 65.3305 468.347 64.1969 468.589L57.5173 469.924L55.8575 470.248C55.2907 470.369 54.724 470.45 54.1977 470.531L50.8376 471.097C48.611 471.461 46.3845 471.906 44.1175 472.229L37.3973 473.281L34.0372 473.847L30.6772 474.373C28.4506 474.737 26.1836 475.061 23.957 475.425L10.5572 477.649C1.65096 479.226 -7.25525 480.804 -16.202 482.3C-20.6551 483.109 -25.1082 483.877 -29.5613 484.686L-42.9206 487.113C-60.7331 490.268 -78.5455 493.503 -96.358 496.779L-96.3984 496.537C-87.6541 494.11 -78.8694 492.007 -70.0036 490.025C-61.1784 488.043 -52.2722 486.264 -43.3659 484.565C-34.4597 482.907 -25.513 481.451 -16.5663 480.035C-12.0727 479.348 -7.6196 478.66 -3.12601 478.053L3.59416 477.164C5.8612 476.881 8.08774 476.557 10.3548 476.314C19.342 475.222 28.3292 474.13 37.2354 472.472L43.9151 471.218C46.1416 470.773 48.3277 470.248 50.5542 469.762C54.9669 468.792 59.339 467.659 63.7516 466.608C65.9377 466.082 68.1238 465.475 70.3099 464.909C71.4029 464.626 72.4959 464.383 73.589 464.06L76.8681 463.17C79.0542 462.604 81.2402 461.997 83.3858 461.35C85.5314 460.703 87.7175 460.137 89.8631 459.409L93.1017 458.397C94.1947 458.074 95.2473 457.669 96.2998 457.346C97.3524 456.982 98.4454 456.618 99.498 456.254L102.696 455.121C103.749 454.757 104.801 454.313 105.854 453.908C106.906 453.504 107.959 453.059 109.011 452.654C111.076 451.805 113.181 450.875 115.165 449.864L115.246 450.066Z" fill="#725B44"/>
<path fill-rule="evenodd" clip-rule="evenodd" d="M715.189 45.5411C768.086 24.1805 814.226 89.6099 828.308 124.397C842.39 159.184 829.982 205.188 786.864 222.599C743.747 240.011 700.466 209.75 688.731 180.76C676.995 151.771 663.625 66.3633 715.189 45.5411Z" fill="#AA4F4F"/>
<path fill-rule="evenodd" clip-rule="evenodd" d="M736.027 48.3123C739.77 57.5586 735.306 68.0818 726.056 71.8166C716.806 75.5514 706.273 71.0835 702.53 61.8373C701.469 59.216 701.067 56.492 701.247 53.8492C675.321 75.5712 674.898 120.136 680.689 152.523C681.379 152.156 682.095 151.822 682.835 151.523C694.305 146.892 707.366 152.432 712.008 163.897C716.65 175.363 711.115 188.411 699.645 193.043C698.405 193.543 697.146 193.925 695.881 194.194C703.444 204.532 714.599 214.035 727.79 220.304C728.596 219.867 729.436 219.471 730.307 219.12C741.177 214.731 753.349 218.671 759.742 227.936C768.6 228.038 777.753 226.474 786.901 222.78C791.996 220.723 796.664 218.27 800.914 215.487C796.235 211.801 792.424 206.885 790.03 200.971C782.693 182.848 791.442 162.223 809.572 154.903C817.74 151.605 826.419 151.57 834.161 154.185C834.256 147.527 833.5 140.885 831.913 134.473C806.125 144.295 777.086 131.716 766.683 106.022C759.414 88.0668 763.146 68.3994 774.714 54.4829C761.568 45.4861 746.85 40.0905 731.261 41.5634C733.288 43.3566 734.942 45.634 736.027 48.3123ZM732.179 141.528C746.979 135.552 754.122 118.715 748.132 103.921C742.143 89.1271 725.289 81.9785 710.49 87.9542C695.69 93.9299 688.547 110.767 694.537 125.561C700.526 140.355 717.38 147.504 732.179 141.528ZM777.315 154.186C780.759 162.693 776.652 172.374 768.142 175.81C759.632 179.246 749.942 175.136 746.498 166.629C743.054 158.123 747.161 148.441 755.67 145.005C764.18 141.569 773.871 145.68 777.315 154.186Z" fill="#C65959"/>
<path fill-rule="evenodd" clip-rule="evenodd" d="M801.299 51.1131C858.735 51.1131 877.076 129.033 877.076 166.549C877.076 204.066 848.116 242.064 801.299 242.064C754.481 242.064 725.521 197.813 725.521 166.549C725.521 135.285 745.31 51.1131 801.299 51.1131Z" fill="#914A7A"/>
<path fill-rule="evenodd" clip-rule="evenodd" d="M830.939 101.903C830.939 89.4361 835.436 78.0181 842.896 69.1793C832.129 58.2214 818.375 51.1131 801.063 51.1131C798.45 51.1131 795.917 51.2971 793.461 51.6511C794.632 54.3655 795.28 57.3575 795.28 60.5007C795.28 72.8644 785.248 82.8871 772.873 82.8871C766.058 82.8871 759.954 79.8481 755.844 75.0527C743.316 90.7309 735.15 111.758 730.461 130.734C734.877 128.759 739.772 127.66 744.923 127.66C764.484 127.66 780.342 143.502 780.342 163.045C780.342 182.587 764.484 198.429 744.923 198.429C740.613 198.429 736.482 197.66 732.661 196.251C739.433 210.558 750.753 224.176 765.792 232.826C768.996 227.778 774.638 224.426 781.065 224.426C790.956 224.426 798.991 232.366 799.133 242.214C799.773 242.231 800.416 242.239 801.063 242.239C828.641 242.239 850.013 228.999 862.902 210.43C861.276 207.864 860.334 204.821 860.334 201.559C860.334 193.256 866.432 186.376 874.398 185.145C875.928 179.085 876.718 172.864 876.718 166.655C876.718 162.362 876.479 157.54 875.969 152.366C850.627 149.486 830.939 127.992 830.939 101.903ZM815.519 118.031C815.519 131.591 804.516 142.584 790.943 142.584C777.37 142.584 766.367 131.591 766.367 118.031C766.367 104.471 777.37 93.4784 790.943 93.4784C804.516 93.4784 815.519 104.471 815.519 118.031ZM820.338 216.724C836.306 216.724 849.251 203.791 849.251 187.838C849.251 171.885 836.306 158.952 820.338 158.952C804.37 158.952 791.425 171.885 791.425 187.838C791.425 203.791 804.37 216.724 820.338 216.724Z" fill="#AD578D"/>
<path fill-rule="evenodd" clip-rule="evenodd" d="M697.728 72.7195C750.762 56.0653 790.361 122.722 801.273 157.377C812.185 192.032 796.496 235.528 753.267 249.103C710.037 262.678 670.426 230.201 661.333 201.322C652.24 172.443 646.03 88.9538 697.728 72.7195Z" fill="#64AD9B"/>
<path fill-rule="evenodd" clip-rule="evenodd" d="M695.171 83.0727C698.769 94.4948 692.422 106.662 680.996 110.249C674.697 112.227 668.17 111.184 662.977 107.936C659.537 116.834 657.444 126.619 656.346 136.51C662.689 137.523 668.236 142.001 670.296 148.541C673.197 157.752 668.079 167.565 658.864 170.457C657.937 170.749 657.003 170.959 656.071 171.091C657.126 183.348 659.238 194.089 661.529 201.366C663.258 206.854 666.085 212.474 669.827 217.884C694.955 211.496 721.003 225.793 728.887 250.824C729.045 251.325 729.194 251.827 729.335 252.33C737.094 252.742 745.167 251.832 753.37 249.257C756.002 248.43 758.532 247.492 760.96 246.451C754.674 243.128 749.642 237.424 747.338 230.109C742.696 215.371 750.885 199.671 765.628 195.043C778.718 190.933 792.574 196.933 798.766 208.645C805.622 192.368 806.409 173.944 801.232 157.503C799.43 151.782 796.848 145.188 793.555 138.241C790.87 141.059 787.454 143.256 783.476 144.505C770.944 148.439 757.587 141.473 753.641 128.946C749.773 116.663 756.388 103.596 768.458 99.3808C750.174 78.5165 725.848 63.8829 697.767 72.6996C695.353 73.4576 693.065 74.3629 690.899 75.4031C692.778 77.5759 694.254 80.1594 695.171 83.0727ZM775.031 167.428C777.7 175.903 772.991 184.93 764.514 187.592C756.036 190.253 747 185.541 744.331 177.066C741.662 168.592 746.371 159.564 754.848 156.903C763.326 154.242 772.362 158.954 775.031 167.428ZM719.528 178.279C737.589 172.609 747.62 153.377 741.934 135.323C736.247 117.269 716.997 107.229 698.936 112.899C680.876 118.569 670.844 137.802 676.531 155.856C682.217 173.91 701.467 183.949 719.528 178.279Z" fill="#72C7B4"/>
<path fill-rule="evenodd" clip-rule="evenodd" d="M898.889 75.3457C944.82 88.5962 941.455 155.162 932.773 185.174C924.09 215.187 892.138 238.904 854.699 228.103C817.259 217.302 804.341 175.221 811.576 150.211C818.812 125.2 854.116 62.4292 898.889 75.3457Z" fill="#C1BF65"/>
<path fill-rule="evenodd" clip-rule="evenodd" d="M929.633 102.105C925.513 109.557 916.656 113.452 908.13 110.993C898.235 108.14 892.533 97.8069 895.396 87.9147C896.773 83.1549 899.882 79.3644 903.84 77.0303C902.3 76.4117 900.696 75.8594 899.026 75.378C891.036 73.0735 883.347 73.1891 876.064 75.0762C875.959 75.5801 875.833 76.0838 875.688 76.5865C872.548 87.436 861.205 93.6938 850.352 90.5638C850.094 90.4894 849.838 90.4104 849.586 90.3269C840.708 98.3387 833.02 108.339 826.864 118.25C831.453 117.272 836.341 117.377 841.163 118.767C856.804 123.278 865.816 139.61 861.292 155.246C856.767 170.882 840.419 179.901 824.778 175.39C818.645 173.622 813.532 170.036 809.854 165.388C809.922 175.522 812.434 186.625 817.567 196.762C823.271 188.413 833.886 184.259 844.129 187.213C856.898 190.896 864.254 204.228 860.561 216.992C859.295 221.367 856.896 225.107 853.774 227.985C854.108 228.088 854.445 228.188 854.783 228.286C872.585 233.42 889.15 230.719 902.558 223.236C901.86 223.072 901.163 222.89 900.466 222.689C878.015 216.214 865.079 192.771 871.574 170.328C878.069 147.884 901.534 134.939 923.985 141.414C929.236 142.928 933.966 145.371 938.049 148.511C938.377 132.698 936.244 115.856 929.633 102.105ZM885.03 123.717C882.722 131.694 874.381 136.295 866.401 133.994C858.42 131.692 853.823 123.36 856.131 115.382C858.44 107.405 866.78 102.803 874.761 105.105C882.741 107.406 887.339 115.739 885.03 123.717Z" fill="#DDDD72"/>
<path d="M1004.16 162.298C1000.31 158.897 993.681 156.839 986.156 156.391C989.202 149.41 987.142 141.713 980.692 137.954C974.959 134.642 967.434 135.448 961.7 139.475L926.315 163.551L883.495 169.459L884.122 168.564C884.122 168.564 884.122 168.564 884.212 168.474L884.301 168.385C885.376 166.863 886.182 165.073 886.541 163.193C888.243 155.138 882.957 147.083 874.805 145.114C868.535 143.592 862.353 146.188 859.039 151.021L841.66 175.276L746.344 188.433L734.609 165.789C734.609 165.789 734.609 165.789 734.609 165.7L734.519 165.61C733.803 164.357 732.817 163.193 731.474 162.298C725.83 158.539 716.603 160.24 710.87 166.058C706.391 170.533 705.316 176.082 707.555 180.109L709.257 183.332L647.893 165.521L631.858 152.453C630.156 150.932 628.095 149.768 625.856 149.052C619.316 146.993 612.598 149.231 608.835 154.243C605.789 153.259 602.475 152.722 599.16 152.632C598.085 152.632 597.1 152.722 596.115 152.722C594.323 151.29 592.263 150.216 590.023 149.5C580.975 146.635 572.196 151.2 570.315 159.703C568.881 166.416 572.286 173.486 578.198 177.603L678.978 255.381C677.455 259.498 677.993 263.884 680.86 267.554C685.249 273.103 693.67 275.251 701.643 273.371L702.27 273.282C703.972 274.624 705.943 275.609 708.182 276.325C716.065 278.741 723.68 275.698 726.726 269.254C727.89 269.97 729.234 270.597 730.667 271.044C737.476 273.192 744.553 270.597 748.136 265.227L751.45 264.69L755.303 272.118C756.019 273.55 757.094 274.893 758.617 275.877C764.261 279.636 773.488 277.936 779.221 272.118C779.311 272.029 779.4 271.939 779.49 271.85C781.013 276.951 785.313 281.158 790.867 282.59C797.317 284.112 803.677 281.337 806.902 276.146L824.281 251.891L825.714 251.622C826.7 252.875 827.954 253.949 829.477 254.844C835.389 258.335 843.272 257.261 849.006 252.875L859.576 245.715L875.791 242.851H875.88H876.06C878.478 242.403 880.897 241.598 883.137 240.434C890.482 236.496 893.976 229.604 892.364 223.429L937.334 192.908L978.363 187.27C978.452 187.27 978.452 187.27 978.542 187.27L978.9 187.18C982.752 186.643 986.604 185.748 990.277 184.406C1005.69 179.035 1011.78 169.101 1004.16 162.298ZM735.057 236.586L718.663 223.25L729.324 221.818L736.849 236.317L735.057 236.586ZM814.069 214.031C812.546 213.405 810.933 212.778 809.321 212.33L805.648 211.256L817.204 209.645L814.069 214.031ZM851.245 214.658L858.949 203.917L869.162 202.485L851.245 214.658Z" fill="#DBDBDB"/>
<path d="M570.314 164.893C570.314 164.893 685.069 270.328 811.38 270.328C800.362 290.734 783.072 283.127 779.399 272.207C762.737 283.127 757.362 277.935 751.27 264.778C745.089 267.464 738.55 276.682 726.814 269.254C723.679 275.071 715.169 281.784 702.359 273.46C692.684 274.534 694.565 273.997 694.565 273.997C694.565 273.997 675.663 271.581 678.709 257.439C671.9 243.656 568.522 183.51 570.314 164.893Z" fill="#C1C1C1"/>
</svg>
