<svg width="993" height="223" viewBox="0 0 993 223" fill="none" xmlns="http://www.w3.org/2000/svg">
<path d="M188.809 223C188.809 171.037 146.602 128.844 94.6223 128.844C42.6425 128.844 0.435547 171.037 0.435547 223H1176C1176 223 688.778 202.47 600.964 134.083C568.813 109.022 344.607 53.8032 344.607 53.8032L96.7468 189.727L188.809 223Z" fill="#F5F5F5"/>
<path d="M481.993 158.578C481.993 70.9352 411.034 0 323.363 0C235.691 0 164.732 70.9352 164.732 158.578" fill="#F5F5F5"/>
<path d="M394.178 202.47C394.178 139.18 445.591 87.7841 508.901 87.7841C572.212 87.7841 623.625 139.18 623.625 202.47" fill="#F5F5F5"/>
<path d="M1176 223C1176 223 17.0076 221.16 17.0076 169.622C-4.23754 201.054 0.436374 223 0.436374 223H1176Z" fill="#DBDBDB"/>
</svg>
