<svg width="1371" height="273" viewBox="0 0 1371 273" fill="none" xmlns="http://www.w3.org/2000/svg">
<path d="M438.551 185.114C438.551 102.955 372.006 36.2892 289.994 36.2892C207.983 36.2892 141.438 102.955 141.438 185.114" fill="#F5F5F5"/>
<path d="M363.449 188.172C363.449 84.1981 447.496 0 551.282 0C655.069 0 739.115 84.1981 739.115 188.172" fill="#F5F5F5"/>
<path d="M864.071 244.644C864.071 196.939 825.609 158.407 777.99 158.407C730.37 158.407 691.908 196.939 691.908 244.644" fill="#F5F5F5"/>
<path d="M1371 271.349H0.40625C0.40625 216.916 44.5662 172.677 98.9014 172.677H289.787L502.651 125.583L691.908 183.482C691.908 183.482 1043.97 271.349 1371 271.349Z" fill="#F5F5F5"/>
<path d="M379.123 172.677C379.123 112.127 428.167 62.9949 488.607 62.9949C549.048 62.9949 598.092 112.127 598.092 172.677" fill="#F5F5F5"/>
<path d="M1371 271.349C1371 271.349 13.8413 287.047 13.8413 221.605C-3.65991 244.642 0.410196 271.349 0.410196 271.349H1371Z" fill="#DBDBDB"/>
</svg>
