<svg width="500" height="500" viewBox="0 0 500 500" fill="none" xmlns="http://www.w3.org/2000/svg">
<mask id="mask0" mask-type="alpha" maskUnits="userSpaceOnUse" x="0" y="0" width="500" height="500">
<path d="M250 500C388.071 500 500 388.071 500 250C500 111.929 388.071 0 250 0C111.929 0 0 111.929 0 250C0 388.071 111.929 500 250 500Z" fill="#7BCAD6"/>
</mask>
<g mask="url(#mask0)">
<path d="M248.991 499.892C387.031 499.892 498.934 387.988 498.934 249.946C498.934 111.905 387.031 0 248.991 0C110.951 0 -0.952637 111.905 -0.952637 249.946C-0.952637 387.988 110.951 499.892 248.991 499.892Z" fill="#80CAD6"/>
<path d="M128.354 252.488C148.106 250.141 163.369 241.938 162.445 234.167C161.522 226.396 144.762 221.999 125.01 224.346C105.258 226.693 89.9952 234.895 90.9186 242.667C91.8421 250.438 108.603 254.835 128.354 252.488Z" fill="#80674C"/>
<path d="M62.3206 24.5879L-62.2637 34.3594L-24.4861 516.025L100.098 506.254L62.3206 24.5879Z" fill="#8E7252"/>
<path d="M155.606 269.43C164.899 269.43 172.433 261.896 172.433 252.602C172.433 243.309 164.899 235.775 155.606 235.775C146.313 235.775 138.779 243.309 138.779 252.602C138.779 261.896 146.313 269.43 155.606 269.43Z" fill="#8E7252"/>
<path d="M71.4716 299.344C84.4061 299.344 94.8915 288.859 94.8915 275.924C94.8915 262.989 84.4061 252.504 71.4716 252.504C58.5372 252.504 48.0518 262.989 48.0518 275.924C48.0518 288.859 58.5372 299.344 71.4716 299.344Z" fill="#8E7252"/>
<path d="M162.593 267.854L81.115 297.277L63.8945 253.782L151.67 236.168L162.593 267.854Z" fill="#8E7252"/>
<path d="M219.863 166.008C219.863 144.95 236.887 127.926 257.945 127.926C279.003 127.926 296.027 144.95 296.027 166.008" fill="white"/>
<path d="M275.953 166.006C275.953 119.264 313.838 81.3789 360.579 81.3789C407.321 81.3789 445.206 119.264 445.206 166.006" fill="white"/>
<path d="M495.391 166.007C495.391 141.406 475.416 121.43 450.815 121.43C426.214 121.43 406.238 141.406 406.238 166.007" fill="white"/>
<path d="M113.292 243.452C117.586 243.452 121.066 239.972 121.066 235.678C121.066 231.385 117.586 227.904 113.292 227.904C108.999 227.904 105.519 231.385 105.519 235.678C105.519 239.972 108.999 243.452 113.292 243.452Z" fill="#C1BE65"/>
<path d="M118.212 233.513C120.875 233.513 123.034 231.354 123.034 228.691C123.034 226.028 120.875 223.869 118.212 223.869C115.549 223.869 113.391 226.028 113.391 228.691C113.391 231.354 115.549 233.513 118.212 233.513Z" fill="#DEDD73"/>
<path d="M127.66 228.69C131.301 228.69 134.253 225.738 134.253 222.097C134.253 218.456 131.301 215.504 127.66 215.504C124.019 215.504 121.067 218.456 121.067 222.097C121.067 225.738 124.019 228.69 127.66 228.69Z" fill="#DEDD73"/>
<path d="M136.91 242.861C143.486 242.861 148.816 237.53 148.816 230.954C148.816 224.378 143.486 219.047 136.91 219.047C130.334 219.047 125.003 224.378 125.003 230.954C125.003 237.53 130.334 242.861 136.91 242.861Z" fill="#C1BE65"/>
<path d="M245.842 257.424C247.635 257.424 249.089 255.97 249.089 254.177C249.089 252.384 247.635 250.93 245.842 250.93C244.048 250.93 242.594 252.384 242.594 254.177C242.594 255.97 244.048 257.424 245.842 257.424Z" fill="#C1BE65"/>
<path d="M201.166 264.411C203.177 264.411 204.807 262.781 204.807 260.77C204.807 258.759 203.177 257.129 201.166 257.129C199.155 257.129 197.525 258.759 197.525 260.77C197.525 262.781 199.155 264.411 201.166 264.411Z" fill="#C1BE65"/>
<path d="M220.847 291.374C226.716 291.374 231.474 286.616 231.474 280.747C231.474 274.877 226.716 270.119 220.847 270.119C214.977 270.119 210.219 274.877 210.219 280.747C210.219 286.616 214.977 291.374 220.847 291.374Z" fill="#C1BE65"/>
<path d="M221.831 270.217C221.831 270.217 208.94 262.148 204.315 258.999C198.903 255.26 195.557 260.278 198.214 263.034C200.871 265.789 211.991 285.962 211.991 285.962L221.831 270.217Z" fill="#C1BE65"/>
<path d="M243.382 251.914C241.512 254.177 230.097 266.675 230.097 266.675L242.988 279.762C242.988 279.762 247.908 258.015 248.794 255.457C249.384 253.685 243.382 251.914 243.382 251.914Z" fill="#C1BE65"/>
<path d="M227.735 297.476C236.431 297.476 243.48 290.427 243.48 281.731C243.48 273.035 236.431 265.986 227.735 265.986C219.04 265.986 211.991 273.035 211.991 281.731C211.991 290.427 219.04 297.476 227.735 297.476Z" fill="#C1BE65"/>
<path d="M248.203 302.591C249.181 302.591 249.974 301.798 249.974 300.82C249.974 299.842 249.181 299.049 248.203 299.049C247.225 299.049 246.432 299.842 246.432 300.82C246.432 301.798 247.225 302.591 248.203 302.591Z" fill="#2D2D2D"/>
<path d="M239.642 301.116C245.348 301.116 249.974 296.49 249.974 290.784C249.974 285.077 245.348 280.451 239.642 280.451C233.936 280.451 229.31 285.077 229.31 290.784C229.31 296.49 233.936 301.116 239.642 301.116Z" fill="#DEDD73"/>
<path d="M245.94 300.625C247.298 300.625 248.4 299.524 248.4 298.165C248.4 296.807 247.298 295.705 245.94 295.705C244.581 295.705 243.479 296.807 243.479 298.165C243.479 299.524 244.581 300.625 245.94 300.625Z" fill="#2D2D2D"/>
<path d="M162.396 234.201C163.282 241.975 148.029 250.142 128.348 252.504C108.569 254.866 91.841 250.437 90.9554 242.663C90.0697 234.89 107.979 242.171 127.758 239.81C147.537 237.448 161.51 226.427 162.396 234.201Z" fill="#80674C"/>
<path d="M249.679 299.935L248.006 296.885L244.168 299.935L247.317 302.297L249.679 299.935Z" fill="#2D2D2D"/>
</g>
</svg>
