<svg width="500" height="500" viewBox="0 0 500 500" fill="none" xmlns="http://www.w3.org/2000/svg">
<mask id="mask0" mask-type="alpha" maskUnits="userSpaceOnUse" x="0" y="0" width="500" height="500">
<path d="M250.089 499.646C388.025 499.646 499.843 387.871 499.843 249.99C499.843 112.109 388.025 0.333984 250.089 0.333984C112.154 0.333984 0.334961 112.109 0.334961 249.99C0.334961 387.871 112.154 499.646 250.089 499.646Z" fill="#7BCAD6"/>
</mask>
<g mask="url(#mask0)">
<path d="M250.246 499.312C388.181 499.312 500 387.537 500 249.656C500 111.775 388.181 0 250.246 0C112.31 0 0.491699 111.775 0.491699 249.656C0.491699 387.537 112.31 499.312 250.246 499.312Z" fill="#7BCAD6"/>
<path d="M352.016 455.868C410.557 455.868 458.014 408.43 458.014 349.911C458.014 291.393 410.557 243.955 352.016 243.955C293.475 243.955 246.018 291.393 246.018 349.911C246.018 408.43 293.475 455.868 352.016 455.868Z" fill="#C1BE65"/>
<path d="M303.344 284.647C329.41 284.647 350.541 263.524 350.541 237.468C350.541 211.412 329.41 190.289 303.344 190.289C277.277 190.289 256.146 211.412 256.146 237.468C256.146 263.524 277.277 284.647 303.344 284.647Z" fill="#DEDD73"/>
<path d="M305.801 203.066C312.481 203.066 317.896 197.653 317.896 190.976C317.896 184.299 312.481 178.887 305.801 178.887C299.122 178.887 293.707 184.299 293.707 190.976C293.707 197.653 299.122 203.066 305.801 203.066Z" fill="#2D2D2D"/>
<path d="M315.536 184.785L294.494 144.486L264.405 176.037L299.312 200.413L315.536 184.785Z" fill="#2D2D2D"/>
<path d="M278.269 180.951C290.38 180.951 300.197 171.137 300.197 159.032C300.197 146.927 290.38 137.113 278.269 137.113C266.159 137.113 256.342 146.927 256.342 159.032C256.342 171.137 266.159 180.951 278.269 180.951Z" fill="#2D2D2D"/>
<path d="M204.72 207.489C260.6 207.489 305.9 162.207 305.9 106.349C305.9 50.491 260.6 5.20898 204.72 5.20898C148.839 5.20898 103.54 50.491 103.54 106.349C103.54 162.207 148.839 207.489 204.72 207.489Z" fill="#924B7B"/>
<path d="M151.426 433.261C229.897 433.261 293.51 369.672 293.51 291.232C293.51 212.792 229.897 149.203 151.426 149.203C72.9547 149.203 9.34131 212.792 9.34131 291.232C9.34131 369.672 72.9547 433.261 151.426 433.261Z" fill="#AE578D"/>
<path d="M449.557 386.475C460.473 386.475 469.321 377.63 469.321 366.719C469.321 355.808 460.473 346.963 449.557 346.963C438.642 346.963 429.793 355.808 429.793 366.719C429.793 377.63 438.642 386.475 449.557 386.475Z" fill="#AE578D"/>
<path d="M352.016 470.023C383.296 470.023 408.653 444.675 408.653 413.408C408.653 382.14 383.296 356.793 352.016 356.793C320.736 356.793 295.379 382.14 295.379 413.408C295.379 444.675 320.736 470.023 352.016 470.023Z" fill="#AE578D"/>
<path d="M435.595 352.763C435.595 352.763 418.977 382.544 377.778 363.083C315.437 333.596 283.087 237.764 283.087 237.764C283.087 237.764 45.5258 279.93 20.7471 346.964C43.0343 470.717 187.02 568.803 376.106 464.616C429.793 438.373 467.515 378.18 467.515 378.18" fill="#AE578D"/>
</g>
</svg>
