<svg width="500" height="500" viewBox="0 0 500 500" fill="none" xmlns="http://www.w3.org/2000/svg">
<mask id="mask0" mask-type="alpha" maskUnits="userSpaceOnUse" x="0" y="0" width="500" height="500">
<path d="M250 500C388.071 500 500 388.071 500 250C500 111.929 388.071 0 250 0C111.929 0 0 111.929 0 250C0 388.071 111.929 500 250 500Z" fill="#7BCAD6"/>
</mask>
<g mask="url(#mask0)">
<path d="M250.236 506.568C390.185 506.568 503.636 393.169 503.636 253.284C503.636 113.399 390.185 0 250.236 0C110.287 0 -3.16406 113.399 -3.16406 253.284C-3.16406 393.169 110.287 506.568 250.236 506.568Z" fill="#80CAD6"/>
<path d="M541.546 90.1445C541.546 90.1445 401.577 266.945 275.476 266.945C149.374 266.945 275.077 505.869 275.077 505.869C275.077 505.869 596.316 506.268 596.316 114.775" fill="#924B7B"/>
<path d="M-41.174 90.1445C-41.174 90.1445 98.7947 266.945 224.896 266.945C350.998 266.945 225.295 505.869 225.295 505.869C225.295 505.869 -95.9443 506.169 -95.9443 114.675" fill="#924B7B"/>
<path d="M249.139 506.866C350.85 506.866 433.303 424.451 433.303 322.787C433.303 221.122 350.85 138.707 249.139 138.707C147.428 138.707 64.9746 221.122 64.9746 322.787C64.9746 424.451 147.428 506.866 249.139 506.866Z" fill="#AE578D"/>
<path d="M249.139 201.032C304.677 201.032 349.701 156.029 349.701 100.516C349.701 45.0025 304.677 0 249.139 0C193.6 0 148.577 45.0025 148.577 100.516C148.577 156.029 193.6 201.032 249.139 201.032Z" fill="#924B7B"/>
<path d="M249.538 185.576C255.875 185.576 261.011 180.442 261.011 174.108C261.011 167.775 255.875 162.641 249.538 162.641C243.202 162.641 238.065 167.775 238.065 174.108C238.065 180.442 243.202 185.576 249.538 185.576Z" fill="#2D2D2D"/>
<path d="M260.811 175.804L270.788 139.107L229.685 139.207L238.265 176.402L260.811 175.804Z" fill="#2D2D2D"/>
<path d="M311.89 361.279C323.185 361.279 332.342 352.127 332.342 340.837C332.342 329.547 323.185 320.395 311.89 320.395C300.595 320.395 291.438 329.547 291.438 340.837C291.438 352.127 300.595 361.279 311.89 361.279Z" fill="#AB4F50"/>
<path d="M361.672 320.494C382.499 320.494 399.382 303.618 399.382 282.801C399.382 261.983 382.499 245.107 361.672 245.107C340.845 245.107 323.961 261.983 323.961 282.801C323.961 303.618 340.845 320.494 361.672 320.494Z" fill="#AB4F50"/>
<path d="M295.13 307.531C315.957 307.531 332.84 290.656 332.84 269.838C332.84 249.02 315.957 232.145 295.13 232.145C274.303 232.145 257.419 249.02 257.419 269.838C257.419 290.656 274.303 307.531 295.13 307.531Z" fill="#AB4F50"/>
<path d="M262.507 288.684L293.533 349.712L323.263 357.889L384.119 313.016L326.655 271.832L262.507 288.684Z" fill="#AB4F50"/>
<path d="M318.076 359.183C329.371 359.183 338.528 350.031 338.528 338.741C338.528 327.451 329.371 318.299 318.076 318.299C306.781 318.299 297.625 327.451 297.625 338.741C297.625 350.031 306.781 359.183 318.076 359.183Z" fill="#C65A59"/>
<path d="M367.858 318.401C388.685 318.401 405.568 301.525 405.568 280.707C405.568 259.89 388.685 243.014 367.858 243.014C347.031 243.014 330.147 259.89 330.147 280.707C330.147 301.525 347.031 318.401 367.858 318.401Z" fill="#C65A59"/>
<path d="M301.316 305.436C322.143 305.436 339.026 288.56 339.026 267.742C339.026 246.925 322.143 230.049 301.316 230.049C280.489 230.049 263.605 246.925 263.605 267.742C263.605 288.56 280.489 305.436 301.316 305.436Z" fill="#C65A59"/>
<path d="M268.693 286.589L299.719 347.616L329.449 355.793L390.305 310.92L332.841 269.736L268.693 286.589Z" fill="#C65A59"/>
<path d="M250.235 156.657C261.696 156.657 270.986 147.37 270.986 135.915C270.986 124.46 261.696 115.174 250.235 115.174C238.775 115.174 229.484 124.46 229.484 135.915C229.484 147.37 238.775 156.657 250.235 156.657Z" fill="#2D2D2D"/>
<g opacity="0.6">
<g opacity="0.6">
<path opacity="0.6" d="M362.869 318.8L360.175 314.611C360.375 314.512 377.135 303.742 382.223 297.56C390.902 286.89 388.807 276.619 388.708 276.12L393.596 275.123C393.696 275.622 396.29 288.186 386.014 300.751C380.527 307.531 363.567 318.401 362.869 318.8Z" fill="white"/>
</g>
</g>
</g>
</svg>
