<svg width="267" height="62" viewBox="0 0 267 62" fill="none" xmlns="http://www.w3.org/2000/svg">
<path d="M0 61.8126C0 53.3462 6.93898 46.4531 15.4618 46.4531C23.9847 46.4531 30.9237 53.3462 30.9237 61.8126" fill="#F5F5F5"/>
<path d="M22.627 54.5074C22.627 41.995 32.8469 31.8428 45.4426 31.8428C58.0384 31.8428 68.2583 41.995 68.2583 54.5074" fill="#F5F5F5"/>
<path d="M60.3398 38.5861C60.3398 17.2701 77.725 0 99.1831 0C120.641 0 138.026 17.2701 138.026 38.5861" fill="#F5F5F5"/>
<path d="M0 61.8129H267C267 61.8129 147.076 56.5681 133.5 21.7282C125.467 1.124 103.331 0.374756 103.331 0.374756L64.1102 38.5863L33.5636 46.4533L0 61.8129Z" fill="#F5F5F5"/>
<path d="M122.188 62C122.188 46.0785 135.198 33.1541 151.226 33.1541C167.253 33.1541 180.264 46.0785 180.264 62" fill="#F5F5F5"/>
<path d="M267 61.8126C267 61.8126 3.39407 61.9999 3.20551 52.447C0 57.1298 0 61.8126 0 61.8126H267Z" fill="#DBDBDB"/>
</svg>
