<svg width="225" height="225" viewBox="0 0 225 225" fill="none" xmlns="http://www.w3.org/2000/svg">
<path d="M26.6621 117.596L12 104.308L26.7079 91.0205L26.7537 77.9621C26.7537 39.5658 65.3791 10.1958 105.929 26.6906C125.86 34.8006 138.69 54.4111 138.69 75.946V184.4C138.69 192.968 131.817 201.124 123.34 202.498C108.861 204.881 95.7572 199.291 95.7572 181.559C95.7572 154.663 126.868 112.418 164.761 99.0388C168.38 97.7559 172.275 97.0228 176.353 96.8395C192.115 96.1522 204.302 107.424 207.097 121.857L212 128.409L207.235 133.678C206.914 135.465 206.456 137.16 205.86 138.81C201.507 150.906 189.961 159.566 176.353 159.566" stroke="#AD578D" stroke-width="22" stroke-miterlimit="10" stroke-linecap="round" stroke-linejoin="round"/>
<path d="M69.5945 72.5555C74.0229 72.5555 77.6128 68.9655 77.6128 64.5371C77.6128 60.1087 74.0229 56.5188 69.5945 56.5188C65.1661 56.5188 61.5762 60.1087 61.5762 64.5371C61.5762 68.9655 65.1661 72.5555 69.5945 72.5555Z" fill="#AD578D"/>
<path d="M181.576 124.468C184.207 124.468 186.341 122.335 186.341 119.703C186.341 117.071 184.207 114.938 181.576 114.938C178.944 114.938 176.811 117.071 176.811 119.703C176.811 122.335 178.944 124.468 181.576 124.468Z" fill="#AD578D"/>
</svg>
