<svg width="30" height="1382" viewBox="0 0 30 1382" fill="none" xmlns="http://www.w3.org/2000/svg">
<rect x="13.5" y="1156.86" width="3" height="197" stroke="#72C7B4" stroke-width="3" stroke-dasharray="20 20"/>
<rect x="12" y="29.3592" width="6" height="1098" fill="#72C7B4"/>
<circle r="15" transform="matrix(-1 0 0 1 15 1366.36)" fill="#72C7B4"/>
<circle r="9" transform="matrix(-1 0 0 1 14.6445 1366.27)" fill="white"/>
<circle r="15" transform="matrix(-1 0 0 1 15 15.3592)" fill="#72C7B4"/>
<circle r="9" transform="matrix(-1 0 0 1 14.6445 15.2702)" fill="white"/>
<circle r="15" transform="matrix(-1 0 0 1 15 240.359)" fill="#72C7B4"/>
<circle r="9" transform="matrix(-1 0 0 1 14.6445 240.27)" fill="white"/>
<circle r="15" transform="matrix(-1 0 0 1 15 466.359)" fill="#72C7B4"/>
<circle r="9" transform="matrix(-1 0 0 1 14.6445 466.27)" fill="white"/>
<circle r="15" transform="matrix(-1 0 0 1 15 690.359)" fill="#72C7B4"/>
<circle r="9" transform="matrix(-1 0 0 1 14.6445 690.27)" fill="white"/>
<circle r="15" transform="matrix(-1 0 0 1 15 916.359)" fill="#72C7B4"/>
<circle r="9" transform="matrix(-1 0 0 1 14.6445 916.27)" fill="white"/>
<circle r="15" transform="matrix(-1 0 0 1 15 1141.36)" fill="#72C7B4"/>
<circle r="9" transform="matrix(-1 0 0 1 14.6445 1141.27)" fill="white"/>
</svg>
