<svg width="300" height="70" viewBox="0 0 300 70" fill="none" xmlns="http://www.w3.org/2000/svg">
<rect y="70" width="5" height="300" transform="rotate(-90 0 70)" fill="#AD578D"/>
<path d="M94.3355 45.088V15.616H85.9835C85.7275 15.616 85.5035 15.536 85.3115 15.376C85.1515 15.184 85.0715 14.96 85.0715 14.704V13.312C85.0715 13.056 85.1515 12.848 85.3115 12.688C85.5035 12.496 85.7275 12.4 85.9835 12.4H106.336C106.592 12.4 106.8 12.496 106.96 12.688C107.152 12.848 107.248 13.056 107.248 13.312V14.704C107.248 14.96 107.152 15.184 106.96 15.376C106.8 15.536 106.592 15.616 106.336 15.616H97.9835V45.088C97.9835 45.312 97.8875 45.52 97.6955 45.712C97.5355 45.904 97.3275 46 97.0715 46H95.2475C94.9915 46 94.7675 45.904 94.5755 45.712C94.4155 45.52 94.3355 45.312 94.3355 45.088ZM107.297 36.4C107.297 33.584 108.161 31.2 109.889 29.248C111.617 27.296 113.889 26.32 116.705 26.32C119.233 26.32 121.313 27.152 122.945 28.816C124.577 30.48 125.393 32.576 125.393 35.104C125.393 35.52 125.361 35.952 125.297 36.4C125.233 36.944 124.945 37.216 124.433 37.216H110.609C110.705 38.848 111.377 40.304 112.625 41.584C113.905 42.832 115.377 43.456 117.041 43.456C118.641 43.456 120.225 42.976 121.793 42.016C122.209 41.792 122.465 41.664 122.561 41.632C122.657 41.6 122.849 41.696 123.137 41.92C123.233 42.048 123.361 42.24 123.521 42.496C123.713 42.72 123.857 42.896 123.953 43.024C124.145 43.28 124.241 43.488 124.241 43.648C124.241 43.808 124.081 44.016 123.761 44.272C121.905 45.744 119.553 46.48 116.705 46.48C113.889 46.48 111.617 45.52 109.889 43.6C108.161 41.648 107.297 39.248 107.297 36.4ZM110.657 34.528H122.081C122.017 33.12 121.457 31.888 120.401 30.832C119.377 29.776 118.145 29.248 116.705 29.248C115.105 29.248 113.729 29.76 112.577 30.784C111.457 31.776 110.817 33.024 110.657 34.528ZM131.627 45.088V27.712C131.627 27.488 131.707 27.28 131.867 27.088C132.059 26.896 132.283 26.8 132.539 26.8H133.451C133.867 26.8 134.123 26.992 134.219 27.376L134.651 28.864C134.843 28.672 135.131 28.432 135.515 28.144C135.899 27.856 136.667 27.488 137.819 27.04C139.003 26.56 140.187 26.32 141.371 26.32C146.331 26.32 148.811 29.2 148.811 34.96V45.088C148.811 45.312 148.715 45.52 148.523 45.712C148.363 45.904 148.155 46 147.899 46H146.363C146.107 46 145.883 45.904 145.691 45.712C145.531 45.52 145.451 45.312 145.451 45.088V34.96C145.451 33.168 145.067 31.824 144.299 30.928C143.563 30 142.507 29.536 141.131 29.536C140.075 29.536 139.019 29.776 137.963 30.256C136.939 30.704 136.187 31.152 135.707 31.6L134.939 32.272V45.088C134.939 45.312 134.843 45.52 134.651 45.712C134.459 45.904 134.251 46 134.027 46H132.539C132.283 46 132.059 45.904 131.867 45.712C131.707 45.52 131.627 45.312 131.627 45.088ZM156.68 44.752C155.56 43.6 155 42.08 155 40.192C155 38.304 155.672 36.768 157.016 35.584C158.392 34.4 160.28 33.808 162.68 33.808C163.288 33.808 163.928 33.856 164.6 33.952C165.304 34.048 165.848 34.16 166.232 34.288L166.76 34.432C166.792 32.512 166.6 31.168 166.184 30.4C165.8 29.632 164.952 29.248 163.64 29.248C161.624 29.248 159.704 29.6 157.88 30.304C157.432 30.496 157.128 30.336 156.968 29.824L156.584 28.624C156.424 28.144 156.6 27.792 157.112 27.568C157.304 27.472 157.64 27.344 158.12 27.184C158.632 27.024 159.432 26.848 160.52 26.656C161.608 26.432 162.696 26.32 163.784 26.32C166.152 26.32 167.752 26.944 168.584 28.192C169.448 29.408 169.88 31.488 169.88 34.432V45.088C169.88 45.312 169.784 45.52 169.592 45.712C169.4 45.904 169.192 46 168.968 46H168.056C167.672 46 167.4 45.76 167.24 45.28L166.856 43.984C165.192 45.648 163.208 46.48 160.904 46.48C159.208 46.48 157.8 45.904 156.68 44.752ZM158.072 40.192C158.072 41.184 158.376 42 158.984 42.64C159.592 43.28 160.408 43.6 161.432 43.6C162.552 43.6 163.592 43.328 164.552 42.784C165.512 42.208 166.232 41.584 166.712 40.912V37.12C165.848 36.608 164.504 36.352 162.68 36.352C161.304 36.352 160.184 36.688 159.32 37.36C158.488 38.032 158.072 38.976 158.072 40.192ZM177.549 45.088V27.712C177.549 27.488 177.629 27.28 177.789 27.088C177.981 26.896 178.205 26.8 178.461 26.8H179.373C179.789 26.8 180.045 26.992 180.141 27.376L180.573 28.864C180.765 28.672 181.053 28.432 181.437 28.144C181.821 27.856 182.589 27.488 183.741 27.04C184.925 26.56 186.109 26.32 187.293 26.32C192.253 26.32 194.733 29.2 194.733 34.96V45.088C194.733 45.312 194.637 45.52 194.445 45.712C194.285 45.904 194.077 46 193.821 46H192.285C192.029 46 191.805 45.904 191.613 45.712C191.453 45.52 191.373 45.312 191.373 45.088V34.96C191.373 33.168 190.989 31.824 190.221 30.928C189.485 30 188.429 29.536 187.053 29.536C185.997 29.536 184.941 29.776 183.885 30.256C182.861 30.704 182.109 31.152 181.629 31.6L180.861 32.272V45.088C180.861 45.312 180.765 45.52 180.573 45.712C180.381 45.904 180.173 46 179.949 46H178.461C178.205 46 177.981 45.904 177.789 45.712C177.629 45.52 177.549 45.312 177.549 45.088ZM203.562 41.2V29.68H201.114C200.858 29.68 200.634 29.6 200.442 29.44C200.282 29.248 200.202 29.024 200.202 28.768V27.712C200.202 27.104 200.506 26.8 201.114 26.8H203.562V21.472C203.562 21.248 203.642 21.04 203.802 20.848C203.994 20.656 204.218 20.56 204.474 20.56L206.01 20.464C206.234 20.464 206.426 20.56 206.586 20.752C206.778 20.912 206.874 21.12 206.874 21.376V26.8H212.442C213.05 26.8 213.354 27.104 213.354 27.712V28.768C213.354 29.024 213.258 29.248 213.066 29.44C212.906 29.6 212.698 29.68 212.442 29.68H206.874V40.912C206.874 41.84 206.986 42.464 207.21 42.784C207.466 43.072 207.882 43.216 208.458 43.216C209.482 43.216 210.65 42.864 211.962 42.16C212.442 41.904 212.826 42 213.114 42.448L213.834 43.648C214.122 44.128 214.01 44.528 213.498 44.848C212.986 45.168 212.186 45.52 211.098 45.904C210.01 46.288 208.97 46.48 207.978 46.48C206.218 46.48 205.034 46.032 204.426 45.136C203.85 44.24 203.562 42.928 203.562 41.2Z" fill="black"/>
</svg>
