<svg width="818" height="811" viewBox="0 0 818 811" fill="none" xmlns="http://www.w3.org/2000/svg">
<path d="M79.4413 187.213C3.45265 289.167 90.866 553.429 165.723 639.66C188.414 680.863 270.397 728.106 312.842 742.479C361.801 759.059 528.457 734.333 647.518 652.803C766.579 571.273 723.931 517.833 731.965 373.441C739.999 229.048 634.636 88.4675 576.952 171.136C530.805 237.271 399.379 196.313 339.435 167.566C284.432 131.635 155.43 85.2594 79.4413 187.213Z" fill="#73D3DD"/>
<ellipse cx="231.74" cy="713.944" rx="48.5194" ry="43.9707" fill="white"/>
<ellipse cx="266.614" cy="675.28" rx="48.5194" ry="43.9707" fill="white"/>
<ellipse cx="282.534" cy="714.702" rx="48.5194" ry="43.9707" fill="white"/>
<ellipse cx="309.826" cy="698.782" rx="48.5194" ry="43.9707" fill="white"/>
<ellipse cx="318.924" cy="713.944" rx="48.5194" ry="43.9707" fill="white"/>
<ellipse cx="588.691" cy="430.619" rx="76.7917" ry="69.5925" fill="white"/>
<ellipse cx="643.885" cy="369.426" rx="76.7917" ry="69.5925" fill="white"/>
<ellipse cx="669.083" cy="431.819" rx="76.7917" ry="69.5925" fill="white"/>
<ellipse cx="712.277" cy="406.622" rx="76.7917" ry="69.5925" fill="white"/>
<ellipse cx="726.677" cy="430.619" rx="76.7917" ry="69.5925" fill="white"/>
<ellipse cx="70.0565" cy="292.686" rx="62.6151" ry="56.7449" fill="white"/>
<ellipse cx="115.061" cy="242.79" rx="62.6151" ry="56.7449" fill="white"/>
<ellipse cx="135.606" cy="293.665" rx="62.6151" ry="56.7449" fill="white"/>
<ellipse cx="170.828" cy="273.119" rx="62.6151" ry="56.7449" fill="white"/>
<ellipse cx="182.568" cy="292.687" rx="62.6151" ry="56.7449" fill="white"/>
</svg>
