<svg width="225" height="222" viewBox="0 0 225 222" fill="none" xmlns="http://www.w3.org/2000/svg">
<path d="M202.284 51.1001C223.057 78.9709 199.161 151.211 178.698 174.784C172.495 186.048 150.083 198.962 138.48 202.892C125.097 207.424 79.538 200.665 46.9907 178.377C14.4434 156.09 26.1019 141.481 23.9058 102.009C21.7096 62.5364 50.5123 24.1063 66.2811 46.7052C78.8962 64.7843 114.824 53.5876 131.211 45.7294C146.247 35.9068 181.512 23.2293 202.284 51.1001Z" fill="#E5E5E5"/>
<ellipse rx="13.2636" ry="12.0202" transform="matrix(-1 0 0 1 160.65 195.09)" fill="white"/>
<ellipse rx="13.2636" ry="12.0202" transform="matrix(-1 0 0 1 151.117 184.521)" fill="white"/>
<ellipse rx="13.2636" ry="12.0202" transform="matrix(-1 0 0 1 146.764 195.298)" fill="white"/>
<ellipse rx="13.2636" ry="12.0202" transform="matrix(-1 0 0 1 139.303 190.947)" fill="white"/>
<ellipse rx="13.2636" ry="12.0202" transform="matrix(-1 0 0 1 136.818 195.09)" fill="white"/>
<ellipse rx="20.9923" ry="19.0243" transform="matrix(-1 0 0 1 63.0682 117.64)" fill="white"/>
<ellipse rx="20.9923" ry="19.0243" transform="matrix(-1 0 0 1 47.9784 100.911)" fill="white"/>
<ellipse rx="20.9923" ry="19.0243" transform="matrix(-1 0 0 1 41.0897 117.967)" fill="white"/>
<ellipse rx="20.9923" ry="19.0243" transform="matrix(-1 0 0 1 29.2811 111.079)" fill="white"/>
<ellipse rx="20.9923" ry="19.0243" transform="matrix(-1 0 0 1 25.3475 117.64)" fill="white"/>
<ellipse rx="17.1169" ry="15.5122" transform="matrix(-1 0 0 1 204.848 79.9312)" fill="white"/>
<ellipse rx="17.1169" ry="15.5122" transform="matrix(-1 0 0 1 192.543 66.2915)" fill="white"/>
<ellipse rx="17.1169" ry="15.5122" transform="matrix(-1 0 0 1 186.93 80.1987)" fill="white"/>
<ellipse rx="17.1169" ry="15.5122" transform="matrix(-1 0 0 1 177.299 74.5815)" fill="white"/>
<ellipse rx="17.1169" ry="15.5122" transform="matrix(-1 0 0 1 174.092 79.9312)" fill="white"/>
</svg>
