<!-- Button will be Used in How It Works. -->
<svg width="300" height="70" viewBox="0 0 300 70" fill="none" xmlns="http://www.w3.org/2000/svg">
<rect y="70" width="5" height="300" transform="rotate(-90 0 70)" fill="#72C7B4"/>
<path d="M93.403 49.784V7.416C93.403 7.11733 93.531 6.84 93.787 6.584C94.043 6.328 94.3203 6.2 94.619 6.2H97.115C97.4563 6.2 97.7337 6.328 97.947 6.584C98.203 6.79733 98.331 7.07467 98.331 7.416V26.104H124.315V7.416C124.315 7.07467 124.422 6.79733 124.635 6.584C124.891 6.328 125.19 6.2 125.531 6.2H128.027C128.326 6.2 128.603 6.328 128.859 6.584C129.115 6.84 129.243 7.11733 129.243 7.416V49.784C129.243 50.0827 129.115 50.36 128.859 50.616C128.603 50.872 128.326 51 128.027 51H125.531C125.19 51 124.891 50.8933 124.635 50.68C124.422 50.424 124.315 50.1253 124.315 49.784V30.392H98.331V49.784C98.331 50.1253 98.203 50.424 97.947 50.68C97.7337 50.8933 97.4563 51 97.115 51H94.619C94.3203 51 94.043 50.872 93.787 50.616C93.531 50.36 93.403 50.0827 93.403 49.784ZM138.251 38.136C138.251 34.5093 139.488 31.3733 141.963 28.728C144.437 26.0827 147.445 24.76 150.987 24.76C154.528 24.76 157.536 26.0827 160.011 28.728C162.485 31.3733 163.723 34.5093 163.723 38.136C163.723 41.848 162.485 45.0267 160.011 47.672C157.536 50.3173 154.528 51.64 150.987 51.64C147.445 51.64 144.437 50.3173 141.963 47.672C139.488 45.0267 138.251 41.848 138.251 38.136ZM142.667 38.136C142.667 40.7387 143.456 42.9573 145.035 44.792C146.656 46.584 148.64 47.48 150.987 47.48C153.333 47.48 155.296 46.584 156.875 44.792C158.496 42.9573 159.307 40.7387 159.307 38.136C159.307 35.6187 158.496 33.464 156.875 31.672C155.296 29.88 153.333 28.984 150.987 28.984C148.64 28.984 146.656 29.88 145.035 31.672C143.456 33.464 142.667 35.6187 142.667 38.136ZM170.766 48.76C170.339 48.4187 170.232 47.9707 170.446 47.416C170.531 47.288 170.68 47.0107 170.894 46.584C171.15 46.1573 171.299 45.9013 171.342 45.816C171.726 45.2187 172.302 45.1547 173.07 45.624C174.904 47.1173 176.91 47.864 179.086 47.864C180.366 47.864 181.368 47.5867 182.094 47.032C182.862 46.4347 183.246 45.688 183.246 44.792C183.246 43.768 182.84 42.936 182.03 42.296C181.219 41.6133 179.747 40.7387 177.614 39.672C176.206 38.9893 175.032 38.3493 174.094 37.752C173.198 37.1547 172.344 36.3013 171.534 35.192C170.723 34.04 170.318 32.7813 170.318 31.416C170.318 29.7947 171 28.28 172.366 26.872C173.731 25.464 175.758 24.76 178.446 24.76C181.262 24.76 183.63 25.4213 185.55 26.744C186.275 27.2133 186.403 27.8747 185.934 28.728L185.422 29.752C184.952 30.5627 184.334 30.7547 183.566 30.328C181.731 29.304 180.024 28.792 178.446 28.792C177.166 28.792 176.227 29.048 175.63 29.56C175.075 30.072 174.798 30.6693 174.798 31.352C174.798 32.0347 175.054 32.6533 175.566 33.208C176.078 33.7627 176.568 34.168 177.038 34.424C177.507 34.68 178.339 35.1067 179.534 35.704C180.942 36.3867 182.03 36.9413 182.798 37.368C183.566 37.7947 184.398 38.3707 185.294 39.096C186.232 39.7787 186.894 40.568 187.278 41.464C187.704 42.3173 187.918 43.2987 187.918 44.408C187.918 46.328 187.086 48.0133 185.422 49.464C183.758 50.9147 181.646 51.64 179.086 51.64C176.014 51.64 173.24 50.68 170.766 48.76ZM197.458 44.6V29.24H194.194C193.853 29.24 193.554 29.1333 193.298 28.92C193.085 28.664 192.978 28.3653 192.978 28.024V26.616C192.978 25.8053 193.383 25.4 194.194 25.4H197.458V18.296C197.458 17.9973 197.565 17.72 197.778 17.464C198.034 17.208 198.333 17.08 198.674 17.08L200.722 16.952C201.021 16.952 201.277 17.08 201.49 17.336C201.746 17.5493 201.874 17.8267 201.874 18.168V25.4H209.298C210.109 25.4 210.514 25.8053 210.514 26.616V28.024C210.514 28.3653 210.386 28.664 210.13 28.92C209.917 29.1333 209.639 29.24 209.298 29.24H201.874V44.216C201.874 45.4533 202.023 46.2853 202.322 46.712C202.663 47.096 203.218 47.288 203.986 47.288C205.351 47.288 206.909 46.8187 208.658 45.88C209.298 45.5387 209.81 45.6667 210.194 46.264L211.154 47.864C211.538 48.504 211.389 49.0373 210.706 49.464C210.023 49.8907 208.957 50.36 207.506 50.872C206.055 51.384 204.669 51.64 203.346 51.64C200.999 51.64 199.421 51.0427 198.61 49.848C197.842 48.6533 197.458 46.904 197.458 44.6Z" fill="black"/>
</svg>
