<svg width="300" height="70" viewBox="0 0 300 70" fill="none" xmlns="http://www.w3.org/2000/svg">
<rect y="70" width="5" height="300" transform="rotate(-90 0 70)" fill="#DBDBDB"/>
<path d="M107.177 45.088V13.312C107.177 13.088 107.273 12.88 107.465 12.688C107.657 12.496 107.865 12.4 108.089 12.4H109.961C110.217 12.4 110.425 12.496 110.585 12.688C110.777 12.848 110.873 13.056 110.873 13.312V27.328H130.361V13.312C130.361 13.056 130.441 12.848 130.601 12.688C130.793 12.496 131.017 12.4 131.273 12.4H133.145C133.369 12.4 133.577 12.496 133.769 12.688C133.961 12.88 134.057 13.088 134.057 13.312V45.088C134.057 45.312 133.961 45.52 133.769 45.712C133.577 45.904 133.369 46 133.145 46H131.273C131.017 46 130.793 45.92 130.601 45.76C130.441 45.568 130.361 45.344 130.361 45.088V30.544H110.873V45.088C110.873 45.344 110.777 45.568 110.585 45.76C110.425 45.92 110.217 46 109.961 46H108.089C107.865 46 107.657 45.904 107.465 45.712C107.273 45.52 107.177 45.312 107.177 45.088ZM141.063 36.352C141.063 33.632 141.991 31.28 143.847 29.296C145.703 27.312 147.959 26.32 150.615 26.32C153.271 26.32 155.527 27.312 157.383 29.296C159.239 31.28 160.167 33.632 160.167 36.352C160.167 39.136 159.239 41.52 157.383 43.504C155.527 45.488 153.271 46.48 150.615 46.48C147.959 46.48 145.703 45.488 143.847 43.504C141.991 41.52 141.063 39.136 141.063 36.352ZM144.375 36.352C144.375 38.304 144.967 39.968 146.151 41.344C147.367 42.688 148.855 43.36 150.615 43.36C152.375 43.36 153.847 42.688 155.031 41.344C156.247 39.968 156.855 38.304 156.855 36.352C156.855 34.464 156.247 32.848 155.031 31.504C153.847 30.16 152.375 29.488 150.615 29.488C148.855 29.488 147.367 30.16 146.151 31.504C144.967 32.848 144.375 34.464 144.375 36.352ZM165.699 44.32C165.379 44.064 165.299 43.728 165.459 43.312C165.523 43.216 165.635 43.008 165.795 42.688C165.987 42.368 166.099 42.176 166.131 42.112C166.419 41.664 166.851 41.616 167.427 41.968C168.803 43.088 170.307 43.648 171.939 43.648C172.899 43.648 173.651 43.44 174.195 43.024C174.771 42.576 175.059 42.016 175.059 41.344C175.059 40.576 174.755 39.952 174.147 39.472C173.539 38.96 172.435 38.304 170.835 37.504C169.779 36.992 168.899 36.512 168.195 36.064C167.523 35.616 166.883 34.976 166.275 34.144C165.667 33.28 165.363 32.336 165.363 31.312C165.363 30.096 165.875 28.96 166.899 27.904C167.923 26.848 169.443 26.32 171.459 26.32C173.571 26.32 175.347 26.816 176.787 27.808C177.331 28.16 177.427 28.656 177.075 29.296L176.691 30.064C176.339 30.672 175.875 30.816 175.299 30.496C173.923 29.728 172.643 29.344 171.459 29.344C170.499 29.344 169.795 29.536 169.347 29.92C168.931 30.304 168.723 30.752 168.723 31.264C168.723 31.776 168.915 32.24 169.299 32.656C169.683 33.072 170.051 33.376 170.403 33.568C170.755 33.76 171.379 34.08 172.275 34.528C173.331 35.04 174.147 35.456 174.723 35.776C175.299 36.096 175.923 36.528 176.595 37.072C177.299 37.584 177.795 38.176 178.083 38.848C178.403 39.488 178.563 40.224 178.563 41.056C178.563 42.496 177.939 43.76 176.691 44.848C175.443 45.936 173.859 46.48 171.939 46.48C169.635 46.48 167.555 45.76 165.699 44.32ZM185.969 41.2V29.68H183.521C183.265 29.68 183.041 29.6 182.849 29.44C182.689 29.248 182.609 29.024 182.609 28.768V27.712C182.609 27.104 182.913 26.8 183.521 26.8H185.969V21.472C185.969 21.248 186.049 21.04 186.209 20.848C186.401 20.656 186.625 20.56 186.881 20.56L188.417 20.464C188.641 20.464 188.833 20.56 188.993 20.752C189.185 20.912 189.281 21.12 189.281 21.376V26.8H194.849C195.457 26.8 195.761 27.104 195.761 27.712V28.768C195.761 29.024 195.665 29.248 195.473 29.44C195.313 29.6 195.105 29.68 194.849 29.68H189.281V40.912C189.281 41.84 189.393 42.464 189.617 42.784C189.873 43.072 190.289 43.216 190.865 43.216C191.889 43.216 193.057 42.864 194.369 42.16C194.849 41.904 195.233 42 195.521 42.448L196.241 43.648C196.529 44.128 196.417 44.528 195.905 44.848C195.393 45.168 194.593 45.52 193.505 45.904C192.417 46.288 191.377 46.48 190.385 46.48C188.625 46.48 187.441 46.032 186.833 45.136C186.257 44.24 185.969 42.928 185.969 41.2Z" fill="#DBDBDB"/>
</svg>
