<svg width="846" height="2545" viewBox="0 0 846 2545" fill="none" xmlns="http://www.w3.org/2000/svg">
<circle r="25" transform="matrix(-1 0 0 1 325 422)" fill="#72C7B4"/>
<circle r="15" transform="matrix(-1 0 0 1 325 422)" fill="white"/>
<circle r="25" transform="matrix(-1 0 0 1 687 25)" fill="#72C7B4"/>
<circle r="15" transform="matrix(-1 0 0 1 687 25)" fill="white"/>
<circle r="25" transform="matrix(-1 0 0 1 713.754 844)" fill="#72C7B4"/>
<circle r="15" transform="matrix(-1 0 0 1 713.754 844)" fill="white"/>
<path d="M675.754 45.5C641.254 95.5 541.754 200.8 419.754 222C297.754 243.2 301.254 350.167 318.254 401" stroke="#72C7B4" stroke-width="10"/>
<path d="M333.254 440.5C362.921 507 458.454 633.9 603.254 609.5C784.254 579 841.754 730.5 728.754 830.5" stroke="#72C7B4" stroke-width="10"/>
<path d="M696 860C614.148 925.888 416.444 1046.8 220 1003.33C133.084 977.326 94.4766 1000.5 44.5 1140.5" stroke="#72C7B4" stroke-width="10"/>
<path d="M27.3418 1179C12.8418 1204.5 -13.6245 1276.17 29.8418 1360" stroke="#72C7B4" stroke-width="10"/>
<path d="M44.0002 1397C61.3088 1430.5 172.127 1488.49 462.5 1469.5C646 1457.5 853.709 1320.95 840.001 1554C832.001 1690 746.982 1765.99 618.5 1801C440.5 1849.5 299.5 2001.5 327 2076" stroke="#72C7B4" stroke-width="10"/>
<path d="M353 2079C353 2065.19 341.807 2054 328 2054C328 2073.5 328 2077.5 328 2104C341.807 2104 353 2092.81 353 2079Z" fill="#72C7B4"/>
<path d="M303 2079C303 2092.81 314.193 2104 328 2104C328 2084.5 328 2080.5 328 2054C314.193 2054 303 2065.19 303 2079Z" fill="#72C7B4"/>
<circle r="15" transform="matrix(1 -8.74228e-08 -8.74228e-08 -1 328 2079)" fill="white"/>
<path d="M430 2443L428.565 2447.79L428.763 2447.85L428.966 2447.89L430 2443ZM327.093 2099.46C327.702 2102.57 328.207 2105.66 328.613 2108.75L338.528 2107.44C338.094 2104.15 337.556 2100.85 336.906 2097.54L327.093 2099.46ZM329.945 2127.48C330.028 2133.79 329.756 2140.07 329.191 2146.33L339.15 2147.23C339.744 2140.66 340.032 2134.03 339.945 2127.35L329.945 2127.48ZM326.657 2165.12C325.553 2171.37 324.214 2177.58 322.703 2183.77L332.417 2186.14C333.972 2179.78 335.358 2173.35 336.504 2166.85L326.657 2165.12ZM317.701 2202.26C315.89 2208.44 313.971 2214.58 312.011 2220.67L321.53 2223.73C323.506 2217.59 325.453 2211.37 327.297 2205.08L317.701 2202.26ZM305.993 2239.07C303.948 2245.3 301.932 2251.49 300.03 2257.61L309.58 2260.58C311.456 2254.54 313.451 2248.41 315.494 2242.19L305.993 2239.07ZM294.569 2276.46C292.859 2282.94 291.372 2289.36 290.214 2295.72L300.052 2297.52C301.153 2291.47 302.578 2285.3 304.238 2279.01L294.569 2276.46ZM287.775 2315.58C287.392 2322.4 287.54 2329.16 288.369 2335.83L298.292 2334.6C297.548 2328.6 297.405 2322.45 297.759 2316.13L287.775 2315.58ZM293.108 2355.72C295.377 2361.95 298.406 2368.05 302.306 2374L310.668 2368.51C307.19 2363.21 304.509 2357.81 302.505 2352.3L293.108 2355.72ZM315.185 2389.83C319.594 2394.31 324.597 2398.68 330.245 2402.94L336.264 2394.95C330.975 2390.97 326.347 2386.92 322.312 2382.82L315.185 2389.83ZM346.832 2414.01C352.214 2417.21 358.027 2420.35 364.296 2423.42L368.695 2414.44C362.648 2411.48 357.075 2408.47 351.945 2405.42L346.832 2414.01ZM382.244 2431.51C388.002 2433.91 394.077 2436.26 400.483 2438.57L403.877 2429.16C397.609 2426.9 391.684 2424.61 386.084 2422.28L382.244 2431.51ZM418.952 2444.82C422.087 2445.82 425.291 2446.81 428.565 2447.79L431.434 2438.21C428.213 2437.25 425.062 2436.27 421.983 2435.29L418.952 2444.82ZM428.966 2447.89C432.397 2448.62 435.812 2449.27 439.209 2449.86L440.912 2440C437.635 2439.44 434.342 2438.81 431.034 2438.11L428.966 2447.89ZM459.719 2452.64C466.686 2453.33 473.567 2453.76 480.353 2453.95L480.643 2443.96C474.079 2443.77 467.431 2443.35 460.705 2442.69L459.719 2452.64ZM501.016 2453.86C508.016 2453.6 514.899 2453.13 521.655 2452.46L520.681 2442.51C514.114 2443.15 507.433 2443.62 500.648 2443.87L501.016 2453.86ZM542.126 2449.89C549.033 2448.83 555.783 2447.61 562.366 2446.28L560.389 2436.48C553.944 2437.78 547.349 2438.97 540.613 2440L542.126 2449.89ZM582.45 2441.81C589.289 2440.15 595.911 2438.42 602.298 2436.68L599.667 2427.03C593.348 2428.75 586.82 2430.46 580.094 2432.09L582.45 2441.81ZM621.967 2431.13C628.823 2429.15 635.301 2427.26 641.437 2425.55L638.739 2415.92C632.554 2417.65 626.011 2419.56 619.196 2421.52L621.967 2431.13ZM660.918 2420.51C668.271 2418.85 674.693 2417.79 680.209 2417.52L679.722 2407.53C673.385 2407.84 666.33 2409.04 658.716 2410.75L660.918 2420.51ZM696.615 2420.79C700.005 2423.15 702.701 2427.28 703.948 2434.81L713.813 2433.17C712.276 2423.89 708.588 2416.94 702.323 2412.58L696.615 2420.79ZM704.275 2453.88C703.801 2459.59 702.904 2466.08 701.553 2473.44L711.389 2475.24C712.784 2467.65 713.734 2460.82 714.241 2454.71L704.275 2453.88ZM697.366 2493.04C695.913 2499.11 694.237 2505.62 692.329 2512.58L701.974 2515.23C703.906 2508.17 705.61 2501.56 707.092 2495.36L697.366 2493.04ZM686.759 2532.01C685.788 2535.26 684.776 2538.6 683.721 2542.03L693.279 2544.97C694.341 2541.52 695.362 2538.15 696.342 2534.86L686.759 2532.01Z" fill="#72C7B4"/>
</svg>

