<svg width="505" height="1512" viewBox="0 0 505 1512" fill="none" xmlns="http://www.w3.org/2000/svg">
<circle r="14.8127" transform="matrix(-1 0 0 1 194.965 250.766)" fill="#72C7B4"/>
<circle r="8.88764" transform="matrix(-1 0 0 1 194.964 250.766)" fill="white"/>
<circle r="14.8127" transform="matrix(-1 0 0 1 409.455 15.5393)" fill="#72C7B4"/>
<circle r="8.88764" transform="matrix(-1 0 0 1 409.454 15.539)" fill="white"/>
<path d="M402 28C381.648 57.5359 322.951 119.738 250.981 132.262C179.012 144.785 181.076 207.972 191.105 238" stroke="#72C7B4" stroke-width="10"/>
<path d="M200 260C217.531 299.559 289.207 411.365 359.556 360.533C411.501 323 477 349.5 482.501 383.5" stroke="#72C7B4" stroke-width="10"/>
<path d="M439.5 573.5C426.5 642.5 249.369 621.881 132.98 596.315C81.4839 581.016 58.6101 594.647 29 677" stroke="#72C7B4" stroke-width="10"/>
<path d="M18.532 699C10.0173 714.215 -5.52407 756.977 20 807" stroke="#72C7B4" stroke-width="10"/>
<path d="M29 829C39.2333 848.834 104.752 883.166 276.429 871.923C384.92 864.819 507.724 783.975 499.619 921.951C494.89 1002.47 444.624 1047.46 368.661 1068.19C263.423 1096.9 180.059 1186.89 196.318 1231" stroke="#72C7B4" stroke-width="10"/>
<path d="M211.561 1232.55C211.561 1224.37 204.929 1217.74 196.748 1217.74C196.748 1229.3 196.748 1231.67 196.748 1247.37C204.929 1247.37 211.561 1240.74 211.561 1232.55Z" fill="#72C7B4"/>
<path d="M181.935 1232.55C181.935 1240.74 188.567 1247.37 196.748 1247.37C196.748 1235.81 196.748 1233.44 196.748 1217.74C188.567 1217.74 181.935 1224.37 181.935 1232.55Z" fill="#72C7B4"/>
<circle r="8.88764" transform="matrix(1 -8.74228e-08 -8.74228e-08 -1 196.746 1232.55)" fill="white"/>

</svg>


