<svg width="100" height="100" viewBox="0 0 100 100" fill="none" xmlns="http://www.w3.org/2000/svg">
<path d="M11.8505 52.2647L5.33398 46.3591L11.8708 40.4536L11.8912 34.6498C11.8912 17.5848 29.058 4.53144 47.0802 11.8625C55.9385 15.4669 61.6405 24.1827 61.6405 33.7538V81.9554C61.6405 85.7635 58.5859 89.3883 54.8185 89.9992C48.3835 91.0581 42.5594 88.5737 42.5594 80.6928C42.5594 68.7392 56.3866 49.9635 73.2276 44.0173C74.8363 43.4471 76.5673 43.1212 78.3797 43.0398C85.3849 42.7343 90.8017 47.7439 92.0439 54.1585L94.2229 57.0706L92.105 59.4124C91.9625 60.2066 91.7588 60.9601 91.4941 61.6932C89.5595 67.0693 84.4278 70.9181 78.3797 70.9181" stroke="white" stroke-width="5" stroke-miterlimit="10" stroke-linecap="round" stroke-linejoin="round"/>
<path d="M30.9309 32.2468C32.8991 32.2468 34.4946 30.6513 34.4946 28.6831C34.4946 26.715 32.8991 25.1194 30.9309 25.1194C28.9627 25.1194 27.3672 26.715 27.3672 28.6831C27.3672 30.6513 28.9627 32.2468 30.9309 32.2468Z" fill="white"/>
<path d="M80.7018 55.3193C81.8715 55.3193 82.8197 54.3711 82.8197 53.2014C82.8197 52.0318 81.8715 51.0836 80.7018 51.0836C79.5322 51.0836 78.584 52.0318 78.584 53.2014C78.584 54.3711 79.5322 55.3193 80.7018 55.3193Z" fill="white"/>
</svg>
