<svg width="95" height="86" viewBox="0 0 95 86" fill="none" xmlns="http://www.w3.org/2000/svg">
<path d="M9.84949 45.2647L3.33301 39.3592L9.86985 33.4536L9.89022 27.6499C9.89022 10.5848 27.0571 -2.4685 45.0792 4.86255C53.9376 8.46698 59.6395 17.1828 59.6395 26.7539V74.9555C59.6395 78.7635 56.5849 82.3883 52.8175 82.9992C46.3825 84.0582 40.5584 81.5738 40.5584 73.6929C40.5584 61.7392 54.3856 42.9636 71.2266 37.0173C72.8354 36.4471 74.5663 36.1213 76.3787 36.0398C83.3839 35.7344 88.8007 40.7439 90.0429 47.1586L92.2219 50.0706L90.104 52.4125C89.9615 53.2067 89.7579 53.9602 89.4931 54.6933C87.5585 60.0694 82.4268 63.9182 76.3787 63.9182" stroke="white" stroke-width="5" stroke-miterlimit="10" stroke-linecap="round" stroke-linejoin="round"/>
<path d="M28.9309 25.2468C30.8991 25.2468 32.4946 23.6513 32.4946 21.6831C32.4946 19.7149 30.8991 18.1194 28.9309 18.1194C26.9627 18.1194 25.3672 19.7149 25.3672 21.6831C25.3672 23.6513 26.9627 25.2468 28.9309 25.2468Z" fill="white"/>
<path d="M78.6999 48.3192C79.8695 48.3192 80.8177 47.371 80.8177 46.2014C80.8177 45.0317 79.8695 44.0835 78.6999 44.0835C77.5302 44.0835 76.582 45.0317 76.582 46.2014C76.582 47.371 77.5302 48.3192 78.6999 48.3192Z" fill="white"/>
</svg>
