<svg width="95" height="86" viewBox="0 0 95 86" fill="none" xmlns="http://www.w3.org/2000/svg">
<path d="M9.84949 45.2647L3.33301 39.3591L9.86985 33.4536L9.89022 27.6498C9.89022 10.5848 27.0571 -2.46856 45.0792 4.86249C53.9376 8.46691 59.6395 17.1827 59.6395 26.7538V74.9554C59.6395 78.7635 56.5849 82.3883 52.8175 82.9992C46.3825 84.0581 40.5584 81.5737 40.5584 73.6928C40.5584 61.7392 54.3856 42.9635 71.2266 37.0173C72.8354 36.4471 74.5663 36.1212 76.3787 36.0398C83.3839 35.7343 88.8007 40.7439 90.0429 47.1585L92.2219 50.0706L90.104 52.4124C89.9615 53.2066 89.7579 53.9601 89.4931 54.6932C87.5585 60.0693 82.4268 63.9181 76.3787 63.9181" stroke="white" stroke-width="5" stroke-miterlimit="10" stroke-linecap="round" stroke-linejoin="round"/>
</svg>
