<svg width="1920" height="1170" viewBox="0 0 1920 1170" fill="none" xmlns="http://www.w3.org/2000/svg">
<path d="M900.567 898.719C1019.23 1048.96 1437.63 1024.82 1592.21 949.55C1660.97 932.606 1761.63 831.784 1799.07 775.656C1842.27 710.913 1871.25 458.9 1799.07 253.973C1726.9 49.0448 1632.56 90.2444 1425.69 22.2918C1218.82 -45.6608 973.312 52.7902 1071.06 168.898C1149.26 261.784 1038.48 436.963 973.312 512.941C899.62 578.932 781.903 748.475 900.567 898.719Z" fill="#73D3DD"/>
<ellipse cx="1437.05" cy="962.419" rx="73.0535" ry="66.2048" fill="white"/>
<ellipse cx="1489.56" cy="904.205" rx="73.0535" ry="66.2048" fill="white"/>
<ellipse cx="1513.53" cy="963.561" rx="73.0535" ry="66.2048" fill="white"/>
<ellipse cx="1554.62" cy="939.59" rx="73.0535" ry="66.2048" fill="white"/>
<ellipse cx="1568.32" cy="962.419" rx="73.0535" ry="66.2048" fill="white"/>
<ellipse cx="1673.62" cy="294.559" rx="115.622" ry="104.782" fill="white"/>
<ellipse cx="1756.72" cy="202.423" rx="115.622" ry="104.782" fill="white"/>
<ellipse cx="1794.66" cy="296.366" rx="115.622" ry="104.782" fill="white"/>
<ellipse cx="1859.7" cy="258.427" rx="115.622" ry="104.782" fill="white"/>
<ellipse cx="1881.38" cy="294.559" rx="115.622" ry="104.782" fill="white"/>
<ellipse cx="1024.98" cy="334.601" rx="94.2768" ry="85.4383" fill="white"/>
<ellipse cx="1092.74" cy="259.474" rx="94.2768" ry="85.4383" fill="white"/>
<ellipse cx="1123.67" cy="336.074" rx="94.2768" ry="85.4383" fill="white"/>
<ellipse cx="1176.7" cy="305.139" rx="94.2768" ry="85.4383" fill="white"/>
<ellipse cx="1194.38" cy="334.601" rx="94.2768" ry="85.4383" fill="white"/>
<path d="M1680.09 181.675C1606.65 338.76 1153.54 605.208 936.17 718.796C993.456 709.357 1048.14 699.271 1100.28 688.661C1530.74 444.741 1666.18 249.037 1680.09 181.675Z" fill="#C65959"/>
<path d="M-139.038 956.329L-90.7359 1167.62C37.4529 1069.77 393.46 873.591 784.39 827.239C1273.05 769.299 1899.77 549.428 1988.27 321.773C1916.31 407.773 1648.21 577.171 1100.28 688.661C1048.14 699.271 993.456 709.357 936.17 718.796C842.153 734.288 741.116 748.039 632.738 759.512C421.376 789.414 -28.8866 870.641 -139.038 956.329Z" fill="#C65959"/>
<ellipse cx="1314.5" cy="474.5" rx="108.5" ry="126.5" fill="#914A7A"/>
<ellipse cx="1315" cy="638.5" rx="186" ry="67.5" fill="#AA4F4F"/>
<ellipse cx="1315" cy="585.5" rx="186" ry="67.5" fill="#AA4F4F"/>
<path d="M1266.02 400.166L1247 375.498C1284.85 340.055 1329.44 346.298 1347 353.85L1322.12 360.898L1347 375.498L1322.12 386.573L1312.37 427.352L1266.02 449L1247 427.352L1266.02 400.166Z" fill="#AD578D"/>
</svg>
