<svg width="504" height="1248" viewBox="0 0 504 1248" fill="none" xmlns="http://www.w3.org/2000/svg">
<circle cx="96.5998" cy="15.5393" r="14.8127" fill="#AD578D"/>
<circle cx="96.6005" cy="15.539" r="8.88764" fill="white"/>
<circle cx="308.123" cy="250.766" r="14.8127" fill="#AD578D"/>
<circle cx="308.124" cy="250.766" r="8.88764" fill="white"/>
<path d="M101 28C121.352 57.5359 180.049 119.738 252.019 132.262C323.988 144.785 321.924 207.972 311.895 238" stroke="#AD578D" stroke-width="10"/>
<path d="M303 260C285.403 299.559 228.737 375.048 142.848 360.533C35.4876 342.39 1.38136 432.513 68.4078 492" stroke="#AD578D" stroke-width="10"/>
<path d="M89 512C137.621 550.757 255.06 621.881 371.751 596.315C423.38 581.016 446.313 594.647 476 677" stroke="#AD578D" stroke-width="10"/>
<circle cx="78.8264" cy="500.804" r="14.8127" fill="#AD578D"/>
<circle cx="78.8271" cy="500.804" r="8.88764" fill="white"/>
<path d="M466.326 688.629C466.326 680.448 472.958 673.816 481.139 673.816C481.139 685.37 481.139 687.74 481.139 703.441C472.958 703.441 466.326 696.81 466.326 688.629Z" fill="#AD578D"/>
<path d="M495.951 688.629C495.951 696.81 489.32 703.442 481.139 703.442C481.139 691.888 481.139 689.518 481.139 673.816C489.32 673.816 495.951 680.448 495.951 688.629Z" fill="#AD578D"/>
<circle cx="481.14" cy="688.629" r="8.88764" transform="rotate(-180 481.14 688.629)" fill="white"/>
<path d="M486.363 699C494.27 714.215 508.701 756.977 485 807" stroke="#AD578D" stroke-width="10"/>
<path d="M476 829C465.767 848.834 400.248 883.166 228.571 871.923C120.08 864.819 -2.72389 783.975 5.38075 921.951C10.1103 1002.47 60.3763 1047.46 136.339 1068.19C241.577 1096.9 324.941 1186.89 308.682 1231" stroke="#AD578D" stroke-width="10"/>
<path d="M293.101 1232.55C293.101 1224.37 299.733 1217.74 307.914 1217.74C307.914 1229.3 307.914 1231.67 307.914 1247.37C299.733 1247.37 293.101 1240.74 293.101 1232.55Z" fill="#AD578D"/>
<path d="M322.727 1232.55C322.727 1240.74 316.095 1247.37 307.914 1247.37C307.914 1235.81 307.914 1233.44 307.914 1217.74C316.095 1217.74 322.727 1224.37 322.727 1232.55Z" fill="#AD578D"/>
<circle cx="307.917" cy="1232.55" r="8.88764" transform="rotate(-180 307.917 1232.55)" fill="white"/>
<path d="M466.326 816.018C466.326 807.837 472.958 801.206 481.139 801.206C481.139 812.76 481.139 815.13 481.139 830.831C472.958 830.831 466.326 824.199 466.326 816.018Z" fill="#AD578D"/>
<path d="M495.951 816.019C495.951 824.2 489.32 830.832 481.139 830.832C481.139 819.278 481.139 816.908 481.139 801.206C489.32 801.206 495.951 807.838 495.951 816.019Z" fill="#AD578D"/>
<circle cx="481.14" cy="816.019" r="8.88764" transform="rotate(-180 481.14 816.019)" fill="white"/>
</svg>

