<!-- Button will be Used in How It Works. -->
<svg width="300" height="70" viewBox="0 0 300 70" fill="none" xmlns="http://www.w3.org/2000/svg">
<rect y="70" width="5" height="300" transform="rotate(-90 0 70)" fill="#AD578D"/>
<path d="M76.614 49.784V10.488H65.478C65.1367 10.488 64.838 10.3813 64.582 10.168C64.3687 9.912 64.262 9.61333 64.262 9.272V7.416C64.262 7.07467 64.3687 6.79733 64.582 6.584C64.838 6.328 65.1367 6.2 65.478 6.2H92.614C92.9553 6.2 93.2327 6.328 93.446 6.584C93.702 6.79733 93.83 7.07467 93.83 7.416V9.272C93.83 9.61333 93.702 9.912 93.446 10.168C93.2327 10.3813 92.9553 10.488 92.614 10.488H81.478V49.784C81.478 50.0827 81.35 50.36 81.094 50.616C80.8807 50.872 80.6033 51 80.262 51H77.83C77.4887 51 77.19 50.872 76.934 50.616C76.7207 50.36 76.614 50.0827 76.614 49.784ZM93.563 38.2C93.563 34.4453 94.715 31.2667 97.019 28.664C99.323 26.0613 102.352 24.76 106.107 24.76C109.478 24.76 112.251 25.8693 114.427 28.088C116.603 30.3067 117.691 33.1013 117.691 36.472C117.691 37.0267 117.648 37.6027 117.563 38.2C117.478 38.9253 117.094 39.288 116.411 39.288H97.979C98.107 41.464 99.003 43.4053 100.667 45.112C102.374 46.776 104.336 47.608 106.555 47.608C108.688 47.608 110.8 46.968 112.891 45.688C113.446 45.3893 113.787 45.2187 113.915 45.176C114.043 45.1333 114.299 45.2613 114.683 45.56C114.811 45.7307 114.982 45.9867 115.195 46.328C115.451 46.6267 115.643 46.8613 115.771 47.032C116.027 47.3733 116.155 47.6507 116.155 47.864C116.155 48.0773 115.942 48.3547 115.515 48.696C113.04 50.6587 109.904 51.64 106.107 51.64C102.352 51.64 99.323 50.36 97.019 47.8C94.715 45.1973 93.563 41.9973 93.563 38.2ZM98.043 35.704H113.275C113.19 33.8267 112.443 32.184 111.035 30.776C109.67 29.368 108.027 28.664 106.107 28.664C103.974 28.664 102.139 29.3467 100.603 30.712C99.1097 32.0347 98.2563 33.6987 98.043 35.704ZM125.669 49.784V26.616C125.669 26.3173 125.776 26.04 125.989 25.784C126.245 25.528 126.544 25.4 126.885 25.4H128.101C128.656 25.4 128.997 25.656 129.125 26.168L129.701 28.152C129.957 27.896 130.341 27.576 130.853 27.192C131.365 26.808 132.389 26.3173 133.925 25.72C135.504 25.08 137.082 24.76 138.661 24.76C145.274 24.76 148.581 28.6 148.581 36.28V49.784C148.581 50.0827 148.453 50.36 148.197 50.616C147.984 50.872 147.706 51 147.365 51H145.317C144.976 51 144.677 50.872 144.421 50.616C144.208 50.36 144.101 50.0827 144.101 49.784V36.28C144.101 33.8907 143.589 32.0987 142.565 30.904C141.584 29.6667 140.176 29.048 138.341 29.048C136.933 29.048 135.525 29.368 134.117 30.008C132.752 30.6053 131.749 31.2027 131.109 31.8L130.085 32.696V49.784C130.085 50.0827 129.957 50.36 129.701 50.616C129.445 50.872 129.168 51 128.869 51H126.885C126.544 51 126.245 50.872 125.989 50.616C125.776 50.36 125.669 50.0827 125.669 49.784ZM158.741 49.336C157.247 47.8 156.501 45.7733 156.501 43.256C156.501 40.7387 157.397 38.6907 159.189 37.112C161.023 35.5333 163.541 34.744 166.741 34.744C167.551 34.744 168.405 34.808 169.301 34.936C170.239 35.064 170.965 35.2133 171.477 35.384L172.181 35.576C172.223 33.016 171.967 31.224 171.413 30.2C170.901 29.176 169.77 28.664 168.021 28.664C165.333 28.664 162.773 29.1333 160.341 30.072C159.743 30.328 159.338 30.1147 159.125 29.432L158.613 27.832C158.399 27.192 158.634 26.7227 159.317 26.424C159.573 26.296 160.021 26.1253 160.661 25.912C161.343 25.6987 162.41 25.464 163.861 25.208C165.311 24.9093 166.762 24.76 168.213 24.76C171.37 24.76 173.503 25.592 174.613 27.256C175.765 28.8773 176.341 31.6507 176.341 35.576V49.784C176.341 50.0827 176.213 50.36 175.957 50.616C175.701 50.872 175.423 51 175.125 51H173.909C173.397 51 173.034 50.68 172.821 50.04L172.309 48.312C170.09 50.5307 167.445 51.64 164.373 51.64C162.111 51.64 160.234 50.872 158.741 49.336ZM160.597 43.256C160.597 44.5787 161.002 45.6667 161.812 46.52C162.623 47.3733 163.711 47.8 165.077 47.8C166.57 47.8 167.957 47.4373 169.237 46.712C170.517 45.944 171.477 45.112 172.117 44.216V39.16C170.965 38.4773 169.173 38.136 166.741 38.136C164.906 38.136 163.413 38.584 162.26 39.48C161.151 40.376 160.597 41.6347 160.597 43.256ZM186.232 49.784V26.616C186.232 26.3173 186.338 26.04 186.552 25.784C186.808 25.528 187.106 25.4 187.448 25.4H188.664C189.218 25.4 189.56 25.656 189.688 26.168L190.264 28.152C190.52 27.896 190.904 27.576 191.416 27.192C191.928 26.808 192.952 26.3173 194.488 25.72C196.066 25.08 197.645 24.76 199.224 24.76C205.837 24.76 209.144 28.6 209.144 36.28V49.784C209.144 50.0827 209.016 50.36 208.76 50.616C208.546 50.872 208.269 51 207.928 51H205.88C205.538 51 205.24 50.872 204.984 50.616C204.77 50.36 204.664 50.0827 204.664 49.784V36.28C204.664 33.8907 204.152 32.0987 203.128 30.904C202.146 29.6667 200.738 29.048 198.904 29.048C197.496 29.048 196.088 29.368 194.68 30.008C193.314 30.6053 192.312 31.2027 191.672 31.8L190.648 32.696V49.784C190.648 50.0827 190.52 50.36 190.264 50.616C190.008 50.872 189.73 51 189.432 51H187.448C187.106 51 186.808 50.872 186.552 50.616C186.338 50.36 186.232 50.0827 186.232 49.784ZM220.583 44.6V29.24H217.319C216.978 29.24 216.679 29.1333 216.423 28.92C216.21 28.664 216.103 28.3653 216.103 28.024V26.616C216.103 25.8053 216.508 25.4 217.319 25.4H220.583V18.296C220.583 17.9973 220.69 17.72 220.903 17.464C221.159 17.208 221.458 17.08 221.799 17.08L223.847 16.952C224.146 16.952 224.402 17.08 224.615 17.336C224.871 17.5493 224.999 17.8267 224.999 18.168V25.4H232.423C233.234 25.4 233.639 25.8053 233.639 26.616V28.024C233.639 28.3653 233.511 28.664 233.255 28.92C233.042 29.1333 232.764 29.24 232.423 29.24H224.999V44.216C224.999 45.4533 225.148 46.2853 225.447 46.712C225.788 47.096 226.343 47.288 227.111 47.288C228.476 47.288 230.034 46.8187 231.783 45.88C232.423 45.5387 232.935 45.6667 233.319 46.264L234.279 47.864C234.663 48.504 234.514 49.0373 233.831 49.464C233.148 49.8907 232.082 50.36 230.631 50.872C229.18 51.384 227.794 51.64 226.471 51.64C224.124 51.64 222.546 51.0427 221.735 49.848C220.967 48.6533 220.583 46.904 220.583 44.6Z" fill="black"/>
</svg>
