
</svg>
<svg width="852" height="2553" viewBox="0 0 852 2553" fill="none" xmlns="http://www.w3.org/2000/svg">
<g >
<circle cx="165" cy="25" r="25" fill="#AD578D"/>
<circle cx="165" cy="25" r="15" fill="white"/>
</g>
<g >
<circle cx="522" cy="422" r="25" fill="#AD578D"/>
<circle cx="522" cy="422" r="15" fill="white"/>
</g>
<g >
<path d="M173 45.5C207.5 95.5 307 200.8 429 222C551 243.2 547.5 350.167 530.5 401" stroke="#AD578D" stroke-width="10"/>
</g>
<g>
<path d="M515.5 440.5C485.833 507 390.3 633.9 245.5 609.5C64.5001 579 7.00035 730.5 120 830.5" stroke="#AD578D" stroke-width="10"/>
</g>
<g >
<path d="M154 860C235.852 925.888 433.556 1046.8 630 1003.33C716.916 977.326 755.523 1000.5 805.5 1140.5" stroke="#AD578D" stroke-width="10"/>
</g>
<circle cx="135" cy="844" r="25" fill="#AD578D"/>
<circle cx="135" cy="844" r="15" fill="white"/>
<g >
<path d="M821.5 1179C836 1204.5 862.466 1276.17 819 1360" stroke="#AD578D" stroke-width="10"/>
</g>
<g >
<path d="M805.644 1397C788.336 1430.5 677.518 1488.49 387.145 1469.5C203.644 1457.5 -4.06411 1320.95 9.64399 1554C17.6436 1690 102.663 1765.99 231.145 1801C409.145 1849.5 550.145 2001.5 522.645 2076" stroke="#AD578D" stroke-width="10"/>
</g>
<g>
<path d="M496.645 2079C496.645 2065.19 507.837 2054 521.645 2054C521.645 2073.5 521.644 2077.5 521.645 2104C507.837 2104 496.645 2092.81 496.645 2079Z" fill="#AD578D"/>
<path d="M546.645 2079C546.645 2092.81 535.452 2104 521.645 2104C521.644 2084.5 521.645 2080.5 521.645 2054C535.452 2054 546.645 2065.19 546.645 2079Z" fill="#AD578D"/>
<circle cx="521.645" cy="2079" r="15" transform="rotate(-180 521.645 2079)" fill="white"/>
</g>
<g>
<path d="M420.754 2443L422.189 2447.79L421.991 2447.85L421.788 2447.89L420.754 2443ZM523.661 2099.46C523.052 2102.57 522.547 2105.66 522.14 2108.75L512.226 2107.44C512.66 2104.15 513.198 2100.85 513.848 2097.54L523.661 2099.46ZM520.809 2127.48C520.726 2133.79 520.998 2140.07 521.563 2146.33L511.604 2147.23C511.01 2140.66 510.722 2134.03 510.809 2127.35L520.809 2127.48ZM524.097 2165.12C525.201 2171.37 526.54 2177.58 528.051 2183.77L518.337 2186.14C516.782 2179.78 515.396 2173.35 514.249 2166.85L524.097 2165.12ZM533.053 2202.26C534.864 2208.44 536.783 2214.58 538.743 2220.67L529.224 2223.73C527.248 2217.59 525.301 2211.37 523.456 2205.08L533.053 2202.26ZM544.761 2239.07C546.806 2245.3 548.822 2251.49 550.724 2257.61L541.174 2260.58C539.298 2254.54 537.303 2248.41 535.26 2242.19L544.761 2239.07ZM556.185 2276.46C557.895 2282.94 559.382 2289.36 560.54 2295.72L550.702 2297.52C549.6 2291.47 548.176 2285.3 546.516 2279.01L556.185 2276.46ZM562.979 2315.58C563.362 2322.4 563.214 2329.16 562.385 2335.83L552.462 2334.6C553.206 2328.6 553.349 2322.45 552.995 2316.13L562.979 2315.58ZM557.646 2355.72C555.377 2361.95 552.348 2368.05 548.448 2374L540.086 2368.51C543.564 2363.21 546.245 2357.81 548.249 2352.3L557.646 2355.72ZM535.569 2389.83C531.16 2394.31 526.156 2398.68 520.509 2402.94L514.49 2394.95C519.779 2390.97 524.407 2386.92 528.441 2382.82L535.569 2389.83ZM503.922 2414.01C498.54 2417.21 492.727 2420.35 486.458 2423.42L482.059 2414.44C488.106 2411.48 493.679 2408.47 498.809 2405.42L503.922 2414.01ZM468.51 2431.51C462.752 2433.91 456.677 2436.26 450.27 2438.57L446.877 2429.16C453.145 2426.9 459.07 2424.61 464.67 2422.28L468.51 2431.51ZM431.802 2444.82C428.667 2445.82 425.463 2446.81 422.189 2447.79L419.319 2438.21C422.541 2437.25 425.691 2436.27 428.771 2435.29L431.802 2444.82ZM421.788 2447.89C418.357 2448.62 414.942 2449.27 411.545 2449.86L409.842 2440C413.118 2439.44 416.412 2438.81 419.72 2438.11L421.788 2447.89ZM391.035 2452.64C384.068 2453.33 377.187 2453.76 370.4 2453.95L370.111 2443.96C376.675 2443.77 383.323 2443.35 390.049 2442.69L391.035 2452.64ZM349.738 2453.86C342.738 2453.6 335.855 2453.13 329.099 2452.46L330.073 2442.51C336.64 2443.15 343.321 2443.62 350.106 2443.87L349.738 2453.86ZM308.627 2449.89C301.721 2448.83 294.971 2447.61 288.388 2446.28L290.365 2436.48C296.81 2437.78 303.405 2438.97 310.141 2440L308.627 2449.89ZM268.304 2441.81C261.465 2440.15 254.843 2438.42 248.456 2436.68L251.087 2427.03C257.406 2428.75 263.934 2430.46 270.66 2432.09L268.304 2441.81ZM228.787 2431.13C221.931 2429.15 215.453 2427.26 209.317 2425.55L212.015 2415.92C218.2 2417.65 224.742 2419.56 231.558 2421.52L228.787 2431.13ZM189.836 2420.51C182.483 2418.85 176.061 2417.79 170.545 2417.52L171.032 2407.53C177.369 2407.84 184.424 2409.04 192.038 2410.75L189.836 2420.51ZM154.139 2420.79C150.749 2423.15 148.053 2427.28 146.806 2434.81L136.941 2433.17C138.478 2423.89 142.165 2416.94 148.43 2412.58L154.139 2420.79ZM146.479 2453.88C146.953 2459.59 147.85 2466.08 149.201 2473.44L139.365 2475.24C137.97 2467.65 137.02 2460.82 136.513 2454.71L146.479 2453.88ZM153.388 2493.04C154.841 2499.11 156.517 2505.62 158.425 2512.58L148.78 2515.23C146.848 2508.17 145.144 2501.56 143.662 2495.36L153.388 2493.04ZM163.995 2532.01C164.966 2535.26 165.978 2538.6 167.033 2542.03L157.475 2544.97C156.413 2541.52 155.392 2538.15 154.412 2534.86L163.995 2532.01Z" fill="#AD578D"/>
</g>

</svg>

